<?xml version="1.0" standalone="no"?>
<!DOCTYPE svg PUBLIC "-//W3C//DTD SVG 20010904//EN"
 "http://www.w3.org/TR/2001/REC-SVG-20010904/DTD/svg10.dtd">
<svg version="1.0" xmlns="http://www.w3.org/2000/svg"
 width="700.000000pt" height="700.000000pt" viewBox="0 0 700.000000 700.000000"
 preserveAspectRatio="xMidYMid meet">
<metadata>
Created by potrace 1.14, written by Peter Selinger 2001-2017
</metadata>
<g transform="translate(0.000000,700.000000) scale(0.100000,-0.100000)"
fill="#000000" stroke="none">
<path d="M1503 6075 c0 -6 6 -12 12 -12 6 0 12 6 12 12 0 6 -6 12 -12 12 -6 0
-12 -6 -12 -12z"/>
<path d="M2385 6071 c2 -11 0 -21 -6 -21 -5 0 -9 5 -9 10 0 6 -5 10 -11 10 -5
0 -8 -4 -4 -9 3 -5 1 -13 -5 -16 -6 -4 -9 -1 -8 6 2 6 -3 14 -11 17 -8 3 -11
0 -7 -7 4 -6 2 -11 -3 -11 -6 0 -11 4 -11 10 0 14 -53 7 -71 -10 -18 -17 -14
-34 4 -23 7 4 6 0 -2 -10 -7 -9 -10 -17 -5 -17 5 0 0 -7 -10 -15 -12 -9 -15
-15 -7 -15 13 0 11 -22 -6 -67 -6 -16 -5 -17 12 -3 17 14 18 14 6 -7 -11 -22
-8 -28 13 -24 5 1 4 -4 -2 -12 -7 -8 -8 -18 -4 -22 4 -5 1 -5 -6 -1 -7 4 -9
13 -5 19 4 7 1 7 -9 -1 -18 -14 -13 -46 5 -35 10 6 6 -33 -9 -72 -7 -18 -6
-19 9 -6 15 12 17 12 11 -3 -3 -9 -11 -16 -16 -16 -6 0 0 -8 13 -19 l23 -18
-21 -14 c-20 -12 -20 -14 -5 -27 16 -13 16 -13 -1 -8 -12 4 -17 2 -14 -6 2 -7
9 -12 15 -11 6 2 9 -4 5 -12 -4 -13 -8 -13 -22 -3 -14 11 -14 11 -3 -4 10 -13
10 -17 0 -21 -11 -4 -10 -6 0 -6 7 -1 10 -6 6 -13 -5 -8 -1 -9 12 -5 18 7 18
7 0 -8 -19 -14 -11 -21 17 -16 5 1 5 -3 2 -9 -4 -6 -14 -9 -22 -6 -9 4 -13 1
-10 -6 2 -7 9 -12 15 -11 6 2 9 -4 5 -12 -4 -13 -8 -13 -22 -3 -14 12 -15 11
-2 -4 11 -15 11 -18 0 -18 -11 0 -11 -2 1 -10 8 -5 15 -14 15 -20 0 -6 7 -15
15 -21 12 -8 10 -9 -7 -4 -27 8 -30 -3 -5 -21 15 -13 14 -14 -11 -10 -24 4
-27 3 -16 -10 7 -8 18 -13 25 -10 7 3 16 1 19 -5 4 -5 3 -9 -2 -8 -29 5 -36
-2 -17 -17 17 -14 17 -15 1 -10 -12 4 -17 2 -15 -6 3 -7 10 -13 16 -13 5 0 14
-4 19 -9 5 -5 3 -6 -4 -2 -8 4 -13 2 -13 -5 0 -8 -5 -7 -17 2 -16 13 -17 12
-4 -3 11 -15 11 -18 0 -18 -11 0 -11 -2 0 -9 12 -8 12 -12 2 -25 -7 -8 -10
-20 -6 -26 12 -19 13 -60 1 -60 -6 0 -3 -5 7 -11 13 -8 15 -14 7 -28 -11 -21
10 -47 26 -33 4 4 3 0 -4 -9 -6 -9 -8 -20 -4 -24 4 -5 1 -5 -6 -1 -7 4 -9 13
-5 19 4 7 1 7 -9 -1 -18 -14 -13 -46 5 -35 10 6 6 -33 -9 -72 -7 -18 -6 -19
11 -5 17 14 18 14 6 -7 -11 -22 -8 -28 13 -24 5 1 4 -4 -2 -12 -7 -8 -8 -18
-4 -22 4 -5 1 -5 -6 -1 -7 4 -9 13 -5 19 4 7 1 7 -9 -1 -18 -14 -13 -46 5 -35
10 6 6 -33 -9 -72 -7 -17 -5 -18 7 -8 12 10 15 8 15 -8 0 -12 -5 -18 -14 -14
-8 3 -12 0 -9 -7 2 -7 9 -12 15 -11 6 2 9 -4 5 -12 -4 -13 -8 -13 -22 -3 -14
12 -15 11 -2 -4 11 -15 11 -18 0 -18 -9 0 -10 -3 -4 -8 6 -4 10 -14 10 -22 0
-8 9 -23 20 -33 20 -18 20 -18 -2 -8 -16 8 -22 7 -27 -5 -3 -8 -2 -13 2 -10 4
2 14 1 22 -5 12 -7 12 -9 -4 -9 -16 0 -16 -2 4 -18 l23 -19 -21 -14 c-20 -15
-20 -15 -1 -27 16 -10 17 -15 7 -32 -10 -15 -15 -17 -28 -7 -13 11 -13 10 -1
-5 11 -15 11 -18 0 -18 -9 0 -10 -3 -4 -8 6 -4 10 -14 10 -22 0 -8 9 -23 20
-33 20 -18 20 -18 -2 -8 -16 8 -22 7 -27 -5 -3 -8 -2 -13 2 -10 4 2 14 1 22
-5 12 -7 12 -9 -4 -9 -16 0 -16 -2 4 -18 l23 -19 -21 -14 c-20 -15 -20 -15 -1
-27 16 -10 17 -15 7 -32 -10 -15 -15 -17 -28 -7 -13 10 -13 10 -2 -5 10 -13
10 -17 0 -21 -11 -4 -10 -6 0 -6 7 -1 10 -5 7 -11 -3 -5 -2 -10 4 -10 16 0 22
18 9 23 -9 4 -10 6 -1 6 21 2 24 -17 4 -31 -20 -14 -19 -14 1 -27 19 -12 19
-13 2 -32 -16 -18 -13 -24 10 -20 5 1 4 -4 -2 -12 -7 -8 -8 -18 -4 -22 4 -5 1
-5 -6 -1 -7 4 -9 13 -5 19 4 7 1 7 -9 -1 -18 -14 -13 -46 5 -35 10 6 6 -33 -9
-72 -7 -18 -6 -19 11 -5 17 14 18 14 6 -7 -11 -22 -8 -28 13 -24 5 1 4 -4 -2
-12 -7 -8 -8 -18 -4 -22 4 -5 1 -5 -6 -1 -7 4 -9 13 -5 19 4 7 1 7 -9 -1 -18
-14 -13 -46 5 -35 10 6 6 -33 -9 -72 -7 -18 -6 -19 9 -6 15 12 17 12 11 -3 -3
-9 -11 -16 -17 -16 -6 0 -2 -7 9 -16 18 -14 18 -15 -6 -9 -18 5 -21 4 -11 -4
12 -7 12 -12 3 -24 -10 -12 -10 -18 3 -30 8 -9 15 -23 15 -31 0 -9 5 -16 10
-16 6 0 10 -5 10 -11 0 -16 -20 0 -30 25 -8 18 -9 17 -6 -9 3 -27 6 -30 39
-29 24 1 34 -3 30 -10 -4 -6 1 -5 10 3 14 11 17 11 17 0 0 -10 3 -10 12 -1 16
16 31 15 22 0 -5 -9 -2 -9 9 1 14 11 17 11 17 0 0 -10 3 -10 12 -1 16 16 31
15 22 0 -6 -10 -4 -10 8 0 12 10 18 10 23 1 6 -8 10 -7 16 2 8 12 11 11 19 -1
8 -12 10 -12 10 -1 0 11 3 11 15 1 11 -9 15 -9 15 -1 0 7 5 9 12 5 16 -10 50
-10 65 -1 6 4 15 3 18 -3 5 -8 11 -8 20 0 10 8 15 8 20 0 5 -8 10 -8 20 0 10
8 15 8 20 0 5 -8 11 -8 21 1 11 9 17 9 28 0 11 -9 15 -9 18 0 3 8 9 9 18 4 19
-12 51 -14 44 -3 -6 10 10 11 20 1 10 -10 46 -11 40 -1 -6 10 10 11 20 1 10
-10 46 -11 40 -1 -6 10 10 11 20 1 10 -10 46 -11 40 -1 -3 4 -1 8 5 8 5 0 13
-5 16 -10 4 -7 13 -7 26 0 14 8 19 7 19 -2 0 -10 2 -10 9 0 4 8 11 13 15 13 3
-1 6 2 5 5 0 4 5 11 13 16 8 6 9 11 3 14 -11 4 -11 71 -1 81 3 4 0 13 -7 21
-9 13 -9 14 1 8 6 -4 12 -2 12 3 0 6 -5 11 -10 11 -7 0 -7 6 0 20 8 15 8 20
-1 20 -8 0 -8 4 1 15 9 11 9 15 1 15 -7 0 -9 5 -5 12 12 19 12 48 1 48 -5 0
-4 7 3 15 9 11 9 15 1 15 -9 0 -9 5 -1 20 8 15 8 20 -1 20 -8 0 -8 4 1 15 9
11 9 15 1 15 -7 0 -9 5 -5 12 12 19 12 48 1 48 -5 0 -4 7 3 15 9 11 9 15 1 15
-9 0 -9 5 -1 20 8 15 8 20 -1 20 -8 0 -8 4 1 15 9 11 9 15 1 15 -7 0 -9 5 -5
12 12 19 12 48 1 48 -5 0 -4 7 3 15 9 11 9 15 1 15 -9 0 -9 5 -1 20 8 15 8 20
-1 20 -8 0 -8 4 1 15 9 10 9 15 1 15 -8 0 -7 6 1 20 7 11 20 18 28 15 10 -3
10 -1 -2 9 -10 7 -18 17 -18 22 0 4 5 3 12 -4 16 -16 62 -16 52 0 -4 7 6 2 23
-10 23 -16 33 -18 41 -10 9 9 12 9 12 -1 0 -7 5 -9 10 -6 6 4 8 10 6 14 -3 4
1 8 9 8 8 0 12 -5 8 -10 -3 -5 3 -6 16 -2 14 4 21 2 21 -7 0 -10 2 -10 9 1 7
11 13 11 32 0 21 -11 22 -10 12 2 -10 13 -6 15 27 13 22 -1 46 -6 53 -12 10
-9 17 -8 25 0 9 9 12 9 12 -1 0 -7 5 -9 10 -6 6 4 8 10 6 14 -3 4 1 8 9 8 8 0
12 -5 8 -10 -3 -5 3 -6 16 -2 14 4 21 2 21 -7 0 -10 2 -10 9 1 7 11 13 11 32
0 21 -11 22 -10 12 2 -10 12 -7 14 15 13 15 -1 26 -7 24 -13 -1 -7 2 -10 8 -6
6 4 8 16 5 28 -2 12 -2 16 1 9 3 -6 10 -10 15 -6 5 3 9 -3 10 -13 0 -16 1 -16
9 2 6 14 9 16 10 5 2 -8 2 -19 1 -23 -1 -5 3 -6 8 -3 5 3 7 16 4 29 -4 17 -2
19 5 8 6 -8 18 -16 27 -17 14 -2 14 0 3 13 -12 15 -11 15 10 4 13 -7 22 -8 22
-2 0 6 7 7 17 4 12 -5 14 -3 8 8 -7 11 -6 12 6 2 12 -10 18 -10 29 0 9 8 11 8
6 0 -3 -6 0 -10 6 -9 18 3 55 25 43 26 -6 0 -16 -5 -23 -12 -9 -9 -12 -9 -12
-1 0 18 39 26 56 12 12 -10 13 -9 8 5 -5 12 -2 15 12 9 13 -5 16 -3 12 8 -4
11 1 15 23 13 18 -1 27 2 22 9 -4 6 2 8 16 4 18 -4 20 -3 10 9 -9 11 -7 14 12
16 13 0 30 1 37 1 9 -1 10 3 2 12 -7 8 -7 15 -1 19 5 3 12 0 15 -6 4 -7 4 -3
2 10 -2 12 0 22 5 22 5 0 9 -4 9 -10 0 -5 5 -10 11 -10 6 0 8 9 4 20 -4 14 -2
20 7 18 7 -2 12 5 12 14 -1 15 2 16 20 6 19 -10 20 -10 7 6 -8 9 -10 16 -5 15
27 -5 36 1 24 15 -10 13 -7 14 17 10 27 -5 27 -5 8 10 l-20 16 20 -7 c11 -3
17 -3 13 2 -4 4 3 16 15 27 l22 19 -24 -11 c-18 -9 -22 -9 -16 0 4 6 19 16 33
22 16 6 22 12 15 15 -7 3 -13 9 -13 14 0 4 8 5 18 2 15 -6 16 -5 2 12 -14 17
-13 18 3 12 15 -6 16 -4 6 16 -10 19 -10 20 2 10 12 -9 14 -5 16 25 3 56 8 76
24 80 11 3 11 1 -1 -7 -8 -6 -11 -11 -7 -11 4 0 3 -9 -3 -20 -6 -11 -8 -20 -6
-20 14 0 32 57 26 80 -4 14 -3 35 1 46 4 13 3 27 -4 34 -9 9 -9 11 -1 7 7 -4
15 0 18 9 3 8 11 12 17 8 8 -4 9 -3 5 5 -4 6 -11 9 -16 6 -5 -3 -12 -1 -15 5
-4 6 -3 10 2 9 18 -3 33 2 33 11 0 5 -8 7 -17 4 -17 -5 -17 -5 0 9 15 13 15
15 2 20 -8 4 -12 13 -9 22 3 8 11 12 18 8 6 -4 6 -1 -2 9 -10 13 -10 17 4 22
16 6 16 8 0 25 -13 15 -14 20 -4 24 8 4 7 6 -4 6 -10 1 -18 5 -18 11 0 5 6 7
14 4 11 -4 13 2 10 28 -3 18 -7 39 -10 47 -4 12 -2 12 13 0 16 -13 17 -12 4 4
-8 10 -20 16 -28 13 -7 -3 -13 -1 -13 4 0 6 9 10 20 10 11 0 20 5 20 11 0 5
-4 8 -8 5 -4 -2 -14 -1 -22 4 -13 8 -13 11 -1 22 11 11 13 11 6 -1 -6 -10 -4
-12 4 -7 9 6 9 11 0 22 -6 7 -15 11 -20 8 -5 -3 -9 0 -9 7 0 7 9 9 23 6 20 -5
20 -5 5 7 -10 7 -15 16 -11 20 4 3 -2 12 -12 20 -12 8 -14 15 -7 20 6 4 9 13
5 21 -3 8 0 15 7 15 10 0 10 3 0 15 -7 8 -16 13 -20 10 -4 -2 -12 7 -18 20 -7
15 -8 26 -2 30 6 4 10 11 10 16 0 6 -5 7 -12 3 -8 -5 -9 -2 -4 11 5 15 4 16
-9 5 -9 -7 -15 -9 -14 -4 4 24 -2 55 -10 50 -5 -4 -8 2 -6 11 3 18 -39 63 -58
63 -5 0 -4 6 2 14 10 11 8 16 -8 21 -12 3 -26 15 -32 26 -5 11 -15 16 -21 13
-7 -5 -9 -2 -5 8 8 22 -3 30 -22 16 -9 -7 -13 -8 -9 -4 5 5 -5 17 -22 27 -22
14 -28 23 -23 36 7 17 6 17 -11 1 -23 -23 -25 -23 -36 8 -8 20 -13 24 -24 15
-18 -15 -29 -1 -14 18 7 9 8 13 4 9 -5 -4 -15 -3 -22 3 -8 7 -14 6 -20 -2 -4
-8 -3 -9 4 -5 7 4 12 2 12 -3 0 -14 -17 -14 -25 0 -4 6 -14 8 -22 4 -13 -4
-14 -3 -3 10 12 14 10 14 -16 5 -27 -9 -27 -9 -10 5 18 13 17 14 -12 10 -20
-2 -32 1 -32 8 0 8 -4 7 -12 -1 -17 -17 -28 -15 -29 6 0 9 -3 12 -5 5 -3 -7
-12 -9 -20 -6 -8 3 -14 -1 -14 -8 0 -8 -10 0 -21 16 -12 17 -18 22 -15 12 4
-13 2 -17 -6 -14 -7 2 -12 11 -10 18 2 8 0 11 -4 7 -4 -4 -14 -2 -22 5 -10 7
-13 8 -9 1 4 -7 -1 -18 -10 -25 -9 -8 -14 -9 -10 -3 4 7 0 15 -9 18 -21 8 -26
8 -20 -3 3 -4 -6 -6 -19 -3 -14 2 -25 8 -25 13 0 5 -5 9 -11 9 -5 0 -8 -4 -5
-8 3 -5 -5 -8 -17 -7 -12 1 -22 7 -22 12 0 6 -3 15 -7 19 -4 3 -6 -3 -3 -15 2
-11 0 -21 -6 -21 -5 0 -9 5 -9 10 0 6 -5 10 -11 10 -5 0 -8 -4 -4 -9 3 -5 1
-13 -5 -16 -6 -4 -9 -1 -8 6 2 6 -3 14 -11 17 -8 3 -11 0 -7 -7 4 -6 2 -11 -3
-11 -6 0 -11 5 -11 10 0 6 -5 10 -11 10 -5 0 -8 -4 -4 -9 3 -5 1 -13 -5 -16
-6 -4 -9 -1 -8 5 2 7 -5 14 -15 15 -13 3 -17 -1 -13 -11 3 -9 1 -12 -4 -9 -6
4 -24 11 -41 15 -26 8 -29 7 -19 -5 21 -25 2 -16 -23 11 -17 18 -24 21 -24 10
0 -8 5 -12 11 -9 6 3 5 0 -3 -8 -10 -11 -15 -11 -18 -1 -3 6 -9 12 -14 12 -6
0 -8 -4 -4 -9 3 -5 1 -13 -5 -16 -6 -4 -9 -1 -8 6 2 6 -3 14 -11 17 -8 2 -11
1 -8 -4 3 -5 -21 -9 -54 -10 -32 0 -59 3 -59 8 0 4 -5 8 -11 8 -5 0 -8 -4 -4
-9 3 -5 1 -13 -5 -16 -6 -4 -9 -1 -8 6 2 6 -3 14 -11 17 -8 3 -11 0 -7 -7 4
-6 2 -11 -3 -11 -6 0 -11 5 -11 10 0 6 -5 10 -11 10 -5 0 -8 -4 -4 -9 3 -5 1
-13 -5 -16 -6 -4 -9 -1 -8 5 2 7 -5 14 -15 15 -13 3 -17 -1 -13 -11 3 -9 1
-12 -4 -9 -6 4 -24 11 -41 15 -26 8 -29 7 -19 -5 21 -25 2 -16 -23 11 -17 18
-24 21 -24 10 0 -8 5 -12 11 -9 6 3 5 0 -3 -8 -10 -11 -15 -11 -18 -1 -3 6 -9
12 -14 12 -6 0 -8 -4 -4 -9 3 -5 1 -13 -5 -16 -6 -4 -9 -1 -8 6 2 6 -3 14 -11
17 -8 3 -11 0 -7 -7 4 -6 2 -11 -3 -11 -6 0 -11 5 -11 10 0 6 -5 10 -11 10 -5
0 -8 -4 -4 -9 3 -5 1 -13 -5 -16 -6 -4 -9 -1 -8 5 2 7 -5 14 -15 15 -13 3 -17
-1 -13 -11 3 -9 1 -12 -4 -9 -6 4 -24 11 -41 15 -26 8 -29 7 -19 -5 21 -25 2
-16 -23 11 -17 18 -24 21 -24 10 0 -8 5 -12 11 -9 6 3 5 0 -3 -8 -10 -11 -15
-11 -18 -1 -3 6 -9 12 -14 12 -6 0 -8 -4 -4 -9 3 -5 0 -13 -6 -17 -8 -4 -9 -3
-5 5 9 13 -23 28 -33 15 -11 -16 -41 -16 -41 1 0 10 5 13 12 9 7 -4 8 -3 4 5
-10 15 -26 5 -27 -17 0 -11 -2 -13 -6 -4 -4 10 -8 10 -19 1 -10 -8 -17 -7 -29
5 -20 19 -32 21 -16 3 8 -11 6 -13 -12 -12 -12 1 -22 7 -22 12 0 6 -3 15 -7
19 -4 3 -6 -3 -3 -15z m-85 -17 c0 -8 -19 -13 -24 -6 -3 5 1 9 9 9 8 0 15 -2
15 -3z m1384 -20 c3 -8 2 -12 -4 -9 -6 3 -10 10 -10 16 0 14 7 11 14 -7z
m-1439 -454 c-3 -5 -12 -10 -18 -10 -7 0 -6 4 3 10 19 12 23 12 15 0z m2085
-20 c0 -5 -8 -10 -17 -10 -15 0 -16 2 -3 10 19 12 20 12 20 0z m-1125 -95 c17
0 33 5 37 10 5 7 8 7 8 0 0 -6 26 -9 63 -8 43 2 57 0 47 -7 -8 -5 -10 -10 -5
-10 6 0 16 5 23 12 9 9 12 9 12 -1 0 -10 4 -10 13 -3 8 7 18 6 31 -4 11 -8 15
-14 10 -14 -6 0 -15 5 -22 12 -8 8 -12 8 -12 1 0 -13 23 -23 58 -24 15 0 22
-3 15 -5 -13 -6 -6 -34 9 -34 5 0 6 5 2 12 -4 7 -3 8 4 4 7 -4 12 -14 12 -22
0 -8 5 -14 10 -14 12 0 9 -22 -5 -33 -5 -5 -1 -6 11 -3 14 4 21 2 21 -8 0 -9
-5 -12 -11 -9 -6 4 -2 -4 9 -17 11 -13 15 -20 8 -17 -11 7 -11 -52 1 -72 4 -5
1 -13 -5 -17 -8 -5 -9 -3 -4 6 6 9 4 11 -4 5 -8 -4 -9 -11 -3 -17 13 -13 -9
-59 -25 -53 -9 3 -10 -2 -3 -21 6 -15 6 -23 1 -19 -5 3 -16 -1 -24 -9 -8 -8
-18 -12 -23 -8 -5 4 -2 -1 5 -11 12 -15 12 -17 -3 -11 -9 4 -16 1 -16 -6 0
-10 -3 -10 -15 0 -13 11 -14 10 -9 -4 4 -12 0 -16 -16 -16 -14 0 -19 -4 -14
-12 6 -10 4 -10 -8 0 -10 8 -19 9 -22 4 -3 -6 -23 -9 -45 -8 -26 1 -37 -3 -34
-11 3 -7 -3 -10 -14 -9 -10 2 -21 -2 -25 -8 -5 -8 -8 -7 -8 2 0 8 -5 10 -12 6
-8 -5 -9 -2 -5 9 3 10 2 17 -3 17 -6 0 -10 -8 -10 -17 0 -15 -2 -16 -10 -3 -7
11 -10 12 -10 2 0 -10 -5 -8 -17 4 -17 17 -18 17 -21 0 -4 -16 -5 -16 -19 1
-8 10 -12 12 -8 6 4 -8 1 -11 -8 -7 -9 3 -13 13 -10 24 3 11 0 33 -5 49 -8 22
-8 33 0 37 6 4 8 3 5 -3 -3 -5 0 -10 8 -10 9 0 11 4 6 11 -5 6 -12 22 -16 35
-6 18 -4 22 6 16 8 -5 6 1 -4 12 -19 22 -13 59 7 46 7 -5 3 1 -9 11 l-20 19
23 -6 c22 -5 23 -4 8 12 -21 23 -20 32 2 24 13 -4 12 -2 -4 10 -21 16 -26 50
-9 64 4 5 5 3 2 -3 -3 -6 0 -11 7 -11 11 0 10 7 -3 31 -21 36 -17 58 7 48 15
-5 15 -4 0 12 -24 24 -23 29 7 24 13 -3 22 -2 20 3 -6 9 18 19 25 10 3 -3 19
-6 35 -6z m-960 -5 c-3 -5 -12 -10 -18 -10 -7 0 -6 4 3 10 19 12 23 12 15 0z
m1 -232 c4 -6 3 -8 -3 -5 -6 4 -13 0 -16 -7 -3 -8 -1 -17 6 -20 9 -3 9 -5 0
-5 -19 -1 -26 18 -13 34 15 18 17 18 26 3z m2129 -18 c3 -6 -1 -7 -9 -4 -18 7
-21 14 -7 14 6 0 13 -4 16 -10z m-2129 -42 c5 -7 3 -8 -6 -3 -10 6 -12 4 -7
-8 3 -9 2 -19 -2 -21 -6 -4 -8 30 -2 42 3 5 10 1 17 -10z m4 -62 c0 -2 -8 -10
-17 -17 -16 -13 -17 -12 -4 4 13 16 21 21 21 13z m-5 -416 c3 -6 -1 -7 -9 -4
-18 7 -21 14 -7 14 6 0 13 -4 16 -10z m0 -240 c3 -6 -1 -7 -9 -4 -18 7 -21 14
-7 14 6 0 13 -4 16 -10z m982 -42 c-3 -8 -6 -5 -6 6 -1 11 2 17 5 13 3 -3 4
-12 1 -19z m240 0 c-3 -8 -6 -5 -6 6 -1 11 2 17 5 13 3 -3 4 -12 1 -19z
m-1226 -657 c-7 -5 -11 -14 -7 -20 5 -7 1 -9 -9 -5 -12 5 -13 9 -4 20 6 8 17
14 23 14 6 0 5 -4 -3 -9z"/>
<path d="M3105 5320 c-3 -5 -1 -10 4 -10 6 0 11 5 11 10 0 6 -2 10 -4 10 -3 0
-8 -4 -11 -10z"/>
<path d="M3100 5200 c0 -5 5 -10 11 -10 5 0 7 5 4 10 -3 6 -8 10 -11 10 -2 0
-4 -4 -4 -10z"/>
<path d="M3247 5017 c-3 -8 1 -14 8 -14 7 0 11 6 8 14 -3 7 -6 13 -8 13 -2 0
-5 -6 -8 -13z"/>
<path d="M3103 6075 c0 -6 6 -12 12 -12 6 0 12 6 12 12 0 6 -6 12 -12 12 -6 0
-12 -6 -12 -12z"/>
<path d="M4863 6076 c0 -8 5 -12 11 -9 6 3 5 0 -3 -8 -10 -11 -15 -11 -18 -1
-3 6 -9 12 -14 12 -6 0 -8 -4 -4 -9 3 -5 1 -13 -5 -16 -6 -4 -9 -1 -8 6 2 7
-6 14 -17 16 -17 4 -18 2 -5 -7 12 -10 10 -11 -10 -5 -54 13 -60 13 -65 4 -4
-5 -11 -7 -16 -3 -5 3 -6 10 -3 16 4 7 2 8 -5 4 -6 -4 -9 -11 -6 -15 2 -5 -7
-6 -20 -3 -14 2 -25 9 -26 16 0 6 -4 2 -9 -9 -5 -11 -9 -14 -9 -7 -1 6 -6 12
-12 12 -5 0 -8 -4 -5 -8 3 -5 -1 -9 -9 -9 -8 0 -15 4 -15 9 0 4 -5 8 -11 8 -5
0 -7 -5 -3 -12 4 -7 3 -8 -5 -4 -6 4 -19 2 -27 -5 -12 -10 -13 -9 -7 7 6 16 4
17 -9 7 -8 -7 -18 -10 -21 -7 -8 8 0 -32 9 -48 4 -7 3 -8 -4 -4 -7 4 -12 1
-12 -9 0 -9 5 -13 10 -10 15 9 12 -2 -6 -19 -14 -15 -14 -16 2 -16 16 0 16 -1
-2 -16 -10 -8 -14 -13 -8 -10 7 3 15 -1 18 -10 3 -8 2 -12 -3 -9 -5 3 -12 1
-16 -5 -3 -5 1 -10 9 -10 19 0 21 -16 4 -26 -7 -5 -8 -2 -3 7 5 8 4 11 0 6
-18 -16 -14 -44 8 -56 l22 -12 -22 5 c-15 3 -20 0 -16 -10 3 -8 8 -12 12 -10
4 3 7 -4 7 -14 0 -10 -4 -16 -8 -14 -4 3 -8 -2 -8 -11 0 -9 4 -14 9 -11 4 3 6
-6 3 -19 -2 -14 -7 -23 -11 -20 -4 2 -6 -10 -5 -28 2 -45 3 -49 12 -43 4 2 8
-4 8 -14 0 -10 -4 -16 -8 -14 -4 3 -8 -2 -8 -11 0 -9 3 -14 8 -12 4 3 7 -5 7
-18 0 -13 -3 -21 -6 -19 -4 2 -10 -3 -13 -12 -3 -8 -2 -13 3 -10 5 3 12 -1 15
-10 3 -8 2 -12 -3 -9 -5 3 -12 1 -16 -5 -3 -5 1 -10 9 -10 19 0 21 -16 4 -26
-7 -5 -8 -2 -3 7 5 8 4 11 -1 6 -15 -14 -10 -41 9 -55 14 -11 15 -17 7 -27 -7
-8 -8 -20 -4 -26 4 -8 3 -9 -4 -5 -7 4 -12 1 -12 -9 0 -9 3 -14 8 -12 4 3 7
-5 7 -18 0 -13 -3 -21 -6 -19 -4 2 -10 -3 -13 -12 -3 -8 -2 -13 3 -10 5 3 12
-1 15 -10 3 -8 2 -12 -3 -9 -5 3 -12 1 -16 -5 -3 -5 1 -10 9 -10 19 0 21 -16
4 -26 -7 -5 -8 -2 -3 7 5 8 4 11 -1 6 -15 -14 -10 -41 9 -55 14 -11 15 -17 7
-27 -7 -8 -8 -20 -4 -26 4 -8 3 -9 -4 -5 -7 4 -12 1 -12 -9 0 -9 5 -13 11 -9
8 5 8 1 0 -14 -13 -24 -14 -35 -3 -29 4 3 7 -5 7 -18 0 -13 -3 -21 -6 -19 -4
2 -9 -3 -13 -11 -3 -8 0 -17 6 -21 7 -5 8 -2 3 7 -5 8 -4 11 0 6 11 -10 14
-48 3 -41 -4 3 -8 -2 -8 -11 0 -9 3 -14 8 -12 4 3 7 -5 7 -18 0 -13 -3 -21 -6
-19 -4 2 -10 -3 -13 -12 -3 -8 -2 -13 3 -10 5 3 12 -1 15 -10 3 -8 2 -12 -3
-9 -5 3 -12 1 -16 -5 -3 -5 1 -10 9 -10 19 0 21 -16 4 -26 -7 -5 -8 -2 -3 7 5
8 4 11 -1 6 -15 -14 -10 -41 9 -55 14 -11 15 -17 7 -27 -7 -8 -8 -20 -4 -26 4
-8 3 -9 -4 -5 -7 4 -12 1 -12 -9 0 -9 3 -14 8 -12 4 3 7 -5 7 -18 0 -13 -3
-21 -6 -19 -4 2 -10 -3 -13 -12 -3 -8 -2 -13 3 -10 5 3 12 -1 15 -10 3 -8 2
-12 -3 -9 -5 3 -12 1 -16 -5 -3 -5 1 -10 9 -10 19 0 21 -16 4 -26 -7 -5 -8 -2
-3 7 5 8 4 11 -1 6 -15 -14 -10 -41 9 -55 14 -11 15 -17 7 -27 -7 -8 -8 -20
-4 -26 4 -8 3 -9 -4 -5 -7 4 -12 1 -12 -9 0 -9 4 -14 9 -11 4 3 6 -6 3 -19 -2
-14 -7 -23 -11 -20 -4 2 -6 -10 -5 -28 2 -45 3 -49 12 -43 4 2 8 -4 8 -14 0
-10 -4 -16 -8 -14 -4 3 -8 -2 -8 -11 0 -9 3 -14 8 -12 4 3 7 -5 7 -18 0 -13
-3 -21 -6 -19 -4 2 -10 -3 -13 -12 -3 -8 -2 -13 3 -10 5 3 12 -1 15 -10 3 -8
2 -12 -3 -9 -5 3 -12 1 -16 -5 -3 -5 1 -10 9 -10 19 0 21 -16 4 -26 -7 -5 -8
-2 -3 7 5 8 4 11 -1 6 -15 -14 -10 -41 9 -55 14 -11 15 -17 7 -27 -7 -8 -8
-20 -4 -26 4 -8 3 -9 -4 -5 -7 4 -12 1 -12 -9 0 -9 3 -14 8 -12 4 3 7 -5 7
-18 0 -13 -3 -21 -6 -19 -4 2 -10 -3 -13 -12 -3 -8 -2 -13 3 -10 5 3 12 -1 15
-10 3 -8 2 -12 -3 -9 -5 3 -12 1 -16 -5 -3 -5 1 -10 9 -10 19 0 21 -16 4 -26
-7 -5 -8 -2 -3 7 5 8 4 11 -1 6 -15 -14 -10 -41 9 -55 14 -11 15 -17 7 -27 -7
-8 -8 -20 -4 -26 4 -8 3 -9 -4 -5 -7 4 -12 1 -12 -9 0 -9 5 -13 11 -9 8 5 8 1
0 -14 -13 -24 -14 -35 -3 -29 4 3 7 -5 7 -18 0 -13 -3 -21 -6 -19 -4 2 -10 -3
-13 -12 -3 -8 -2 -13 3 -10 5 3 12 -1 15 -10 3 -8 2 -12 -3 -9 -5 3 -12 1 -16
-5 -3 -5 2 -10 12 -10 15 0 16 -2 3 -10 -10 -6 -11 -10 -2 -10 6 0 12 -8 12
-17 0 -15 2 -14 16 3 8 10 13 13 9 7 -3 -7 -1 -13 5 -13 6 0 8 -6 5 -12 -4 -7
0 -5 7 4 13 15 15 15 26 0 10 -14 11 -14 6 -1 -6 19 27 19 50 0 14 -12 16 -12
11 2 -4 8 -1 18 6 23 7 4 10 3 6 -2 -3 -6 3 -16 15 -23 15 -9 18 -9 13 0 -6 9
-1 10 19 5 16 -4 26 -2 26 4 0 6 -5 8 -12 4 -7 -4 -8 -3 -4 5 6 9 11 9 22 0 7
-6 21 -9 29 -5 9 3 13 2 10 -4 -3 -6 -1 -10 4 -10 6 0 11 6 11 13 0 8 3 8 9
-2 7 -11 10 -10 14 5 4 15 5 14 7 -6 1 -23 2 -23 10 -5 6 14 9 15 10 5 1 -10
4 -9 10 5 l9 20 0 -20 c1 -17 3 -17 11 -5 9 13 10 13 11 0 0 -10 3 -8 9 5 8
18 9 18 10 -5 1 -23 2 -23 10 -5 6 14 9 15 10 5 1 -10 4 -9 10 5 8 18 9 18 9
2 1 -14 5 -16 20 -7 14 7 22 7 27 -2 5 -7 3 -8 -6 -3 -9 6 -11 4 -5 -5 6 -10
10 -10 19 2 13 17 39 12 30 -5 -3 -7 2 -3 10 7 12 15 16 16 16 5 0 -8 3 -10 8
-4 7 11 48 12 58 2 3 -3 17 -2 31 4 16 6 22 6 18 -1 -3 -6 -1 -10 4 -10 6 0
11 4 11 8 0 10 36 9 46 -1 4 -4 13 1 21 11 8 9 11 11 7 3 -5 -11 -3 -13 9 -8
10 4 17 1 18 -6 0 -7 4 -3 9 8 8 18 9 18 10 -5 1 -23 2 -23 10 -5 6 14 9 15
10 5 1 -10 4 -9 10 5 8 18 9 18 9 2 1 -14 3 -15 15 -5 7 7 13 19 12 27 -1 7 6
16 14 18 12 4 13 3 1 -5 -15 -11 -7 -32 12 -31 9 0 8 2 -1 6 -6 2 -9 10 -5 16
11 17 12 67 2 72 -4 3 -6 -6 -3 -20 2 -14 0 -25 -6 -25 -6 0 -8 5 -5 10 3 6 0
10 -7 10 -10 0 -10 2 0 9 8 4 14 12 14 16 0 4 -6 12 -14 16 -7 5 -8 9 -2 9 6
0 11 7 11 15 0 8 -5 15 -11 15 -6 0 -5 4 2 9 17 11 17 21 0 32 -7 5 -8 9 -2 9
12 0 12 29 -1 49 -5 10 -4 12 3 7 7 -4 12 -1 12 9 0 10 -5 13 -12 9 -7 -5 -8
-3 -4 5 5 7 15 10 24 6 14 -5 14 -4 1 12 -8 10 -15 25 -14 33 0 8 -4 19 -10
23 -6 5 -4 7 5 4 8 -2 14 -14 14 -26 -1 -12 1 -19 4 -16 13 12 9 55 -5 55 -7
0 -13 5 -13 11 0 5 6 7 13 3 6 -4 9 -4 5 1 -4 4 -3 13 2 20 7 8 5 12 -5 12 -8
0 -11 -5 -8 -10 4 -6 1 -7 -7 -2 -10 6 -9 11 5 21 18 13 30 58 13 48 -4 -3 -8
2 -8 11 0 12 5 15 18 11 11 -4 8 1 -8 16 -14 13 -21 20 -14 15 8 -5 10 0 6 18
-2 14 -9 22 -15 18 -6 -3 -7 -1 -3 6 4 6 11 9 15 7 4 -3 13 4 19 15 12 18 11
19 -6 10 -16 -9 -18 -6 -17 27 1 20 -4 41 -9 45 -7 5 -5 7 4 4 8 -2 14 -14 14
-26 -1 -12 1 -19 4 -16 13 12 9 55 -5 55 -7 0 -13 5 -13 11 0 6 7 9 14 6 10
-4 13 -1 10 8 -3 8 -13 11 -22 8 -14 -4 -15 -3 -2 5 10 8 19 7 29 -1 12 -10
13 -9 1 13 -7 14 -9 22 -5 18 5 -4 14 -3 22 4 7 6 16 8 20 4 3 -3 1 -6 -5 -6
-7 0 -12 -4 -12 -10 0 -5 8 -7 18 -3 9 3 14 3 10 -2 -4 -4 5 -18 21 -29 25
-18 27 -25 18 -41 -10 -19 -9 -19 9 -5 10 8 16 10 12 6 -11 -13 12 -37 26 -29
8 5 8 3 0 -8 -13 -18 -12 -44 3 -44 6 0 15 -4 20 -9 4 -5 3 -6 -3 -3 -13 7
-27 -17 -17 -27 4 -3 15 -6 26 -6 16 0 17 -3 7 -15 -8 -10 -9 -15 -2 -15 6 0
9 -7 6 -15 -4 -11 -2 -13 9 -10 15 6 31 -26 27 -54 -1 -9 4 -12 16 -7 14 5 15
4 4 -9 -10 -12 -10 -15 1 -15 11 0 11 -2 -1 -10 -13 -8 -12 -10 3 -10 14 0 17
-5 12 -20 -4 -11 -3 -20 2 -19 20 3 34 -2 28 -11 -4 -6 -11 -7 -17 -4 -7 4 -8
2 -4 -5 4 -6 11 -9 16 -6 4 3 11 -2 14 -11 3 -8 2 -13 -3 -9 -8 4 -8 -3 -2
-34 1 -2 7 2 15 8 9 8 16 8 20 2 4 -5 1 -13 -5 -17 -8 -4 -7 -9 2 -15 12 -7
12 -9 0 -9 -8 0 -2 -11 15 -25 22 -20 24 -24 9 -20 -14 5 -13 2 5 -9 14 -8 19
-15 13 -16 -7 0 -13 -5 -13 -11 0 -5 5 -7 10 -4 6 3 10 1 10 -5 0 -6 5 -8 10
-5 6 3 10 -1 10 -10 0 -9 -4 -13 -10 -10 -5 3 -10 1 -10 -4 0 -6 6 -11 14 -11
9 0 13 -7 11 -20 -4 -22 5 -26 21 -10 6 6 10 3 10 -9 0 -12 -5 -17 -16 -14 -9
4 -7 -1 5 -10 11 -8 17 -19 13 -23 -4 -4 -3 -13 3 -21 10 -11 15 -11 27 -1 13
11 14 11 7 -1 -6 -11 -3 -13 13 -9 16 4 19 2 15 -11 -4 -13 -2 -13 10 2 11 14
16 15 20 5 4 -10 6 -10 6 1 1 11 5 10 16 -5 10 -13 13 -14 10 -3 -7 19 26 19
49 0 14 -12 16 -12 11 2 -4 8 -1 18 6 23 7 4 10 3 6 -3 -4 -6 0 -13 8 -17 8
-3 17 0 21 6 5 7 2 8 -6 3 -9 -5 -11 -4 -6 4 6 9 11 9 22 0 17 -14 19 -23 2
-13 -7 5 -8 3 -3 -6 6 -10 10 -10 20 3 10 14 12 14 23 -1 8 -12 10 -13 7 -2
-4 11 3 15 29 15 19 0 32 -3 29 -7 -2 -5 7 -4 21 2 21 8 24 7 20 -8 -5 -15 -4
-15 9 1 11 14 16 15 20 5 4 -10 6 -10 6 1 1 11 5 10 16 -5 10 -13 13 -14 10
-3 -7 19 26 19 49 0 14 -12 16 -12 11 2 -4 8 -1 18 6 23 8 4 10 3 5 -4 -4 -7
-2 -13 3 -13 21 -3 26 -4 40 -13 9 -6 12 -5 7 2 -3 6 -2 13 4 17 5 3 10 0 11
-7 0 -7 4 -4 9 7 8 18 9 18 10 -5 1 -23 2 -23 10 -5 6 14 9 15 10 5 1 -10 4
-9 10 5 l9 20 0 -20 c1 -17 3 -17 11 -5 9 13 10 13 11 0 0 -10 3 -8 9 5 8 18
9 18 10 -5 1 -23 2 -23 10 -5 6 14 9 15 10 5 1 -10 4 -9 10 5 8 18 9 18 9 2 1
-14 5 -16 20 -7 14 7 22 7 27 -2 5 -7 3 -8 -6 -3 -9 6 -11 4 -5 -5 6 -10 10
-10 19 2 13 17 39 12 30 -5 -3 -7 2 -3 10 7 12 15 16 16 16 5 0 -8 3 -10 8 -4
8 11 83 14 76 3 -2 -4 0 -9 6 -13 5 -3 10 1 10 11 0 13 3 14 15 4 10 -8 15 -9
15 -2 0 6 6 9 14 6 8 -3 17 0 22 7 4 8 3 10 -5 5 -8 -5 -10 0 -7 18 3 18 1 23
-10 19 -10 -4 -14 2 -14 21 0 14 -4 26 -10 26 -5 0 -10 5 -10 11 0 7 -8 18
-17 26 -10 8 -12 12 -5 8 6 -3 12 -1 12 4 0 6 -5 11 -11 11 -6 0 -8 7 -5 16 4
12 2 15 -9 10 -18 -7 -20 10 -2 18 6 4 1 4 -13 2 -24 -5 -24 -4 -6 9 18 14 12
20 -16 16 -4 0 -5 6 -2 14 4 8 1 15 -6 15 -6 0 -9 4 -6 9 3 4 -1 16 -8 27 -8
10 -11 25 -8 33 4 10 1 12 -8 6 -10 -6 -12 -4 -6 10 5 13 -1 25 -20 42 -24 20
-23 34 2 16 5 -5 2 -1 -7 7 -9 9 -15 23 -13 31 1 9 -3 23 -8 30 -7 11 -8 9 -4
-6 5 -16 3 -16 -13 5 -13 17 -16 28 -10 36 7 8 6 15 -2 20 -8 5 -9 3 -4 -7 7
-11 6 -11 -9 1 -17 13 -17 14 0 20 16 6 15 7 -6 13 -20 5 -21 8 -10 22 11 13
10 15 -4 9 -11 -4 -16 -1 -16 11 0 10 5 13 12 9 6 -4 8 -3 4 4 -3 6 -14 9 -24
7 -15 -2 -17 2 -14 24 3 21 -2 30 -20 38 -12 7 -17 12 -10 12 8 1 3 11 -12 27
-13 15 -23 35 -21 45 2 11 0 19 -6 19 -5 0 -9 9 -9 21 0 11 -4 18 -9 15 -5 -4
-8 5 -6 19 1 14 -2 28 -7 31 -4 3 -5 11 -2 17 4 7 4 9 0 5 -5 -4 -14 -1 -21 5
-10 10 -7 17 18 40 17 15 35 27 40 27 5 0 4 6 -2 14 -9 11 -8 15 4 20 11 4 14
2 9 -6 -4 -7 -3 -8 5 -4 9 6 9 11 -1 24 -11 13 -11 14 0 8 16 -9 44 12 35 27
-4 7 0 8 13 3 15 -6 17 -5 7 5 -18 18 -16 29 5 22 9 -3 14 -3 10 2 -4 4 0 14
10 22 9 8 12 12 6 9 -6 -3 -11 1 -11 8 0 8 6 12 14 9 9 -3 11 0 7 10 -3 8 -1
18 5 22 6 3 11 1 11 -6 0 -7 3 -9 6 -6 4 4 1 13 -5 21 -8 10 -9 16 -1 21 6 3
7 12 3 18 -4 7 2 5 12 -3 11 -9 16 -10 11 -2 -12 20 -19 70 -7 52 5 -8 7 -18
5 -22 -3 -4 2 -5 11 -1 9 3 12 9 7 12 -5 3 -7 15 -5 26 3 11 5 31 6 45 1 14 7
29 12 33 6 6 6 10 -2 14 -19 7 -16 23 2 16 9 -3 15 -2 14 3 -1 5 -1 11 1 14 9
25 8 55 -2 62 -10 6 -10 8 0 8 6 0 12 5 12 11 0 5 -5 7 -11 3 -6 -3 -3 6 7 22
17 26 17 28 1 15 -21 -17 -23 2 -2 19 14 11 14 15 -2 33 -10 11 -13 17 -6 14
8 -5 11 2 11 23 -1 24 -5 30 -17 25 -9 -3 -5 4 9 15 20 16 21 19 5 13 -18 -6
-19 -5 -6 11 13 15 13 19 0 27 -10 6 -10 9 -1 9 6 0 12 5 12 11 0 5 -5 7 -12
3 -7 -5 -8 -3 -3 7 14 22 13 51 -3 70 -8 10 -16 30 -18 46 -2 20 -1 24 6 13 5
-8 10 -11 10 -6 0 5 -8 18 -17 29 -10 11 -12 17 -5 13 10 -6 11 -1 6 21 -4 15
-12 31 -18 36 -8 5 -6 10 4 17 9 6 10 10 3 10 -7 0 -17 -8 -23 -17 -10 -16
-11 -16 -5 2 15 44 15 57 -1 51 -11 -4 -12 -2 -4 13 7 15 6 18 -8 17 -10 0
-16 6 -16 17 1 9 -3 17 -8 17 -6 0 -5 6 2 15 15 18 -1 20 -18 3 -9 -9 -11 -6
-7 10 2 14 -1 22 -11 22 -13 0 -15 5 -18 40 -1 9 -9 14 -21 12 -16 -3 -17 -2
-6 12 12 14 11 16 -3 10 -11 -4 -27 3 -45 20 -15 14 -31 23 -36 19 -4 -5 -5
-2 -1 5 4 6 0 19 -8 28 -12 12 -16 12 -16 2 0 -10 -3 -10 -9 2 -6 8 -7 19 -3
25 3 5 -3 3 -13 -5 -15 -12 -17 -12 -10 -1 6 11 3 13 -14 8 -17 -4 -20 -2 -12
7 7 8 5 12 -10 13 -13 1 -17 -2 -12 -10 4 -7 0 -6 -10 2 -18 14 -23 26 -8 16
5 -3 12 -1 15 4 7 11 -13 9 -33 -3 -10 -7 -12 -5 -6 3 5 9 1 12 -11 11 -33 -4
-44 0 -44 14 0 9 -7 12 -20 9 -12 -3 -20 0 -20 6 0 7 -5 9 -12 5 -7 -5 -21 -9
-30 -9 -13 -1 -15 2 -7 11 7 8 6 14 -2 20 -7 4 -9 3 -6 -3 4 -6 0 -13 -8 -16
-10 -4 -12 -1 -9 11 5 14 3 13 -10 -2 -16 -19 -16 -19 -16 2 0 19 -3 20 -24
12 -15 -5 -27 -5 -35 3 -13 13 -43 19 -36 7 3 -4 -6 -7 -20 -6 -14 0 -25 4
-25 9 0 4 -4 7 -10 7 -5 0 -7 -8 -4 -17 5 -16 4 -16 -6 0 -9 14 -15 16 -26 6
-10 -8 -14 -8 -14 0 0 6 -5 11 -11 11 -5 0 -8 -4 -4 -9 3 -5 1 -13 -5 -16 -6
-4 -9 -1 -8 5 2 7 -5 14 -15 15 -12 2 -17 -1 -13 -10 4 -11 0 -12 -19 -5 -13
5 -33 7 -45 5 -14 -3 -18 0 -13 8 4 7 0 6 -10 -2 -16 -12 -22 -8 -18 12 1 5
-3 6 -9 2 -6 -3 -8 -10 -5 -14 2 -5 -7 -6 -20 -3 -14 2 -25 9 -25 14 0 5 -5 6
-10 3 -6 -4 -8 -10 -6 -14 3 -4 -10 -7 -28 -7 -20 1 -32 5 -28 11 3 5 -2 4
-11 -4 -16 -12 -22 -8 -18 12 1 5 -3 6 -9 2 -6 -3 -8 -10 -5 -14 2 -5 -7 -6
-20 -3 -14 2 -25 9 -25 16 0 6 -4 5 -9 -3 -10 -15 -111 -24 -111 -10 0 5 -5 9
-11 9 -5 0 -8 -4 -4 -9 3 -5 1 -13 -5 -16 -6 -4 -9 -1 -8 6 2 6 -3 14 -11 17
-8 3 -11 0 -7 -7 4 -6 2 -11 -3 -11 -6 0 -11 5 -11 10 0 6 -5 10 -11 10 -5 0
-8 -4 -4 -9 3 -5 1 -13 -5 -16 -6 -4 -9 -1 -8 5 2 7 -5 14 -15 15 -13 3 -17
-1 -13 -11 3 -9 1 -12 -4 -9 -6 4 -24 11 -41 15 -26 8 -29 7 -19 -5 21 -25 2
-16 -23 11 -17 18 -24 21 -24 10 0 -8 5 -12 11 -9 6 3 5 0 -3 -8 -10 -11 -15
-11 -18 -1 -3 6 -9 12 -14 12 -6 0 -8 -4 -4 -9 3 -5 1 -13 -5 -16 -6 -4 -9 -1
-8 6 2 6 -3 14 -11 17 -8 3 -11 0 -7 -7 4 -6 2 -11 -3 -11 -6 0 -11 5 -11 10
0 6 -5 10 -11 10 -5 0 -8 -4 -4 -9 3 -5 1 -13 -5 -16 -6 -4 -9 -1 -8 5 2 7 -5
14 -15 15 -13 3 -17 -1 -13 -11 3 -9 1 -12 -4 -9 -6 4 -24 11 -41 15 -26 8
-29 7 -19 -5 21 -25 2 -16 -23 11 -17 18 -24 21 -24 10z m-346 -406 c-1 -11
-5 -20 -9 -20 -3 0 -6 9 -5 20 1 11 5 20 9 20 3 0 6 -9 5 -20z m943 -190 c-7
-14 -7 -20 0 -20 5 0 10 5 10 10 0 6 5 10 11 10 5 0 7 -6 3 -12 -4 -7 3 -4 16
7 16 14 22 16 18 5 -4 -11 1 -15 17 -15 13 0 20 5 17 10 -3 6 2 4 11 -4 14
-11 17 -11 18 0 0 8 3 9 5 3 2 -6 19 -9 37 -7 25 4 29 2 17 -6 -9 -7 -10 -11
-3 -11 6 0 15 5 19 11 3 6 9 7 13 3 3 -5 15 -16 25 -24 19 -15 19 -15 1 15
l-19 30 25 -23 c14 -12 28 -20 31 -17 3 3 11 -3 19 -12 13 -17 13 -17 -6 -3
-19 14 -19 14 -6 -3 11 -14 16 -15 29 -5 13 10 14 10 8 1 -4 -7 -2 -13 3 -13
6 0 11 -9 11 -20 0 -11 7 -20 15 -20 8 0 15 -2 15 -4 0 -2 3 -13 6 -23 6 -16
5 -16 -10 2 -17 19 -17 19 -4 -5 7 -14 13 -36 14 -50 3 -40 3 -42 16 -34 7 4
8 3 4 -5 -4 -6 -12 -9 -17 -6 -5 4 -9 -1 -9 -10 0 -10 4 -13 13 -8 6 4 4 -6
-7 -21 -10 -16 -13 -25 -6 -21 9 6 9 2 0 -15 -6 -12 -9 -28 -6 -35 3 -9 0 -12
-10 -8 -12 5 -19 -12 -15 -39 0 -4 -7 -4 -16 -1 -10 4 -14 2 -10 -4 4 -6 -3
-13 -14 -16 -12 -3 -18 -10 -14 -16 3 -7 0 -8 -9 -5 -9 3 -16 1 -16 -5 0 -6
-5 -11 -11 -11 -5 0 -7 6 -4 13 4 6 1 5 -7 -4 -7 -9 -23 -14 -36 -12 -16 2
-21 -1 -16 -9 4 -7 4 -10 -1 -6 -4 4 -14 3 -21 -3 -8 -7 -14 -6 -20 2 -4 8 -3
9 4 5 7 -4 12 -2 12 3 0 13 -3 13 -24 5 -8 -3 -12 -13 -9 -22 3 -12 2 -13 -4
-5 -9 12 -27 12 -68 -2 -14 -4 -12 -2 5 8 14 9 29 13 34 10 5 -4 6 -1 2 5 -5
8 -16 7 -39 -3 -21 -9 -38 -10 -49 -4 -13 7 -16 6 -12 -5 3 -8 0 -17 -7 -22
-7 -4 -10 -3 -5 4 10 16 -15 27 -26 11 -6 -10 -7 -7 -3 10 5 16 4 21 -4 17 -6
-4 -11 -2 -11 3 0 6 5 11 11 11 6 0 3 7 -5 16 -9 8 -14 20 -11 25 4 5 0 9 -7
9 -10 0 -10 2 0 9 8 4 14 12 14 16 0 4 -6 12 -14 16 -7 5 -8 9 -2 9 12 0 12
29 -1 49 -5 10 -4 12 3 7 7 -4 12 -1 12 9 0 10 -5 13 -12 9 -7 -5 -8 -3 -4 5
5 7 15 10 24 6 14 -5 14 -4 1 12 -8 10 -15 25 -14 33 0 8 -4 19 -10 23 -6 5
-4 7 5 4 8 -2 14 -14 14 -26 -1 -12 1 -19 4 -16 13 12 9 55 -5 55 -7 0 -13 5
-13 11 0 5 6 7 13 3 6 -4 9 -4 5 1 -4 4 -3 13 2 20 7 8 5 12 -5 12 -8 0 -11
-5 -8 -10 4 -6 1 -7 -7 -2 -10 6 -9 11 5 21 19 14 30 58 12 47 -5 -3 -7 5 -5
18 2 16 -2 23 -10 21 -8 -1 -11 2 -7 7 3 6 13 7 22 4 11 -5 14 -3 8 6 -6 10
-3 11 15 1 20 -11 22 -10 17 4 -4 10 -3 14 2 11 5 -3 12 -1 16 5 11 19 16 10
5 -10z m-66 -88 c3 -5 -1 -9 -9 -9 -8 0 -12 4 -9 9 3 4 7 8 9 8 2 0 6 -4 9 -8z
m1243 -324 c-2 -12 -10 -24 -18 -26 -11 -3 -12 -2 -1 6 8 5 13 12 13 16 -2 15
-1 26 4 26 3 0 3 -10 2 -22z m-207 -452 c0 -2 -7 -7 -16 -10 -8 -3 -12 -2 -9
4 6 10 25 14 25 6z m-1913 -226 c-1 -11 -5 -20 -9 -20 -3 0 -6 9 -5 20 1 11 5
20 9 20 3 0 6 -9 5 -20z m973 -5 c14 -19 14 -19 -2 -6 -10 7 -18 18 -18 24 0
6 1 8 3 6 1 -2 9 -13 17 -24z m87 -161 c-3 -3 -12 -4 -19 -1 -8 3 -5 6 6 6 11
1 17 -2 13 -5z m-183 -112 c3 -5 -1 -9 -9 -9 -8 0 -12 4 -9 9 3 4 7 8 9 8 2 0
6 -4 9 -8z m453 -437 c0 -8 -4 -12 -9 -9 -5 3 -6 10 -3 15 9 13 12 11 12 -6z
m963 10 c0 -7 -30 -13 -34 -7 -3 4 4 9 15 9 10 1 19 0 19 -2z m-426 -23 c3 -5
-1 -9 -9 -9 -8 0 -12 4 -9 9 3 4 7 8 9 8 2 0 6 -4 9 -8z"/>
<path d="M5390 5159 c0 -5 5 -7 10 -4 6 3 10 8 10 11 0 2 -4 4 -10 4 -5 0 -10
-5 -10 -11z"/>
<path d="M5395 5100 c6 -30 16 -40 12 -12 -2 12 -6 24 -10 28 -3 4 -4 -4 -2
-16z"/>
<path d="M5343 6075 c0 -6 6 -12 12 -12 6 0 12 6 12 12 0 6 -6 12 -12 12 -6 0
-12 -6 -12 -12z"/>
<path d="M1592 6062 c-7 -9 -11 -12 -8 -7 2 6 -7 10 -22 9 -15 -1 -27 -3 -27
-4 0 -1 -10 -3 -22 -6 -13 -2 -23 1 -23 6 0 6 -5 10 -11 10 -5 0 -8 -4 -4 -9
3 -5 1 -13 -5 -16 -6 -4 -9 -1 -8 6 2 6 -3 14 -11 17 -8 3 -11 0 -7 -7 4 -6 2
-11 -3 -11 -6 0 -11 5 -11 10 0 6 -5 10 -11 10 -5 0 -8 -4 -4 -9 3 -5 1 -13
-5 -16 -6 -4 -9 -1 -8 5 2 7 -5 14 -15 15 -13 3 -17 -1 -13 -12 6 -14 4 -14
-10 -2 -21 17 -55 19 -61 2 -4 -10 -9 -11 -19 -2 -14 11 -20 1 -14 -26 1 -5
-7 -2 -17 6 -10 9 -24 14 -30 12 -7 -3 -13 0 -13 7 0 6 -12 -2 -26 -17 -14
-15 -23 -22 -19 -15 8 15 -11 16 -21 1 -4 -8 -9 -7 -15 2 -6 9 -9 10 -9 2 0
-6 -8 -10 -17 -8 -10 1 -29 -4 -42 -12 -13 -8 -20 -10 -17 -4 4 6 2 11 -3 11
-6 0 -11 -6 -11 -14 0 -9 -7 -12 -21 -9 -12 4 -25 0 -30 -8 -7 -12 -9 -12 -9
1 -1 9 -6 5 -16 -10 l-15 -25 7 25 7 25 -25 -26 c-18 -20 -32 -25 -51 -22 -19
4 -29 -1 -39 -16 -14 -22 -34 -30 -23 -8 4 6 0 4 -8 -5 -16 -21 -31 -24 -22
-5 4 6 -4 0 -17 -15 -26 -30 -49 -39 -27 -10 13 16 13 16 -7 -1 -11 -9 -25
-14 -29 -10 -5 5 -3 0 4 -10 12 -15 12 -17 -4 -11 -12 5 -16 4 -11 -4 3 -6 1
-14 -5 -18 -7 -4 -9 -3 -5 4 4 7 -1 10 -14 9 -21 -1 -34 -22 -24 -39 4 -5 -4
-4 -17 2 -13 7 -21 9 -17 5 4 -4 0 -14 -8 -22 -8 -8 -11 -19 -8 -25 4 -7 2 -8
-5 -4 -6 4 -8 12 -5 18 4 7 2 8 -4 4 -7 -4 -12 -14 -12 -22 0 -8 -4 -13 -9
-10 -14 9 -21 -20 -8 -35 8 -9 6 -9 -7 1 -16 13 -20 12 -32 -4 -7 -11 -11 -23
-8 -27 3 -5 -3 -6 -12 -2 -13 5 -16 3 -11 -10 4 -11 -1 -22 -13 -29 -11 -7
-20 -19 -20 -26 0 -8 -6 -12 -14 -9 -15 6 -40 -48 -30 -64 3 -5 -3 -6 -12 -2
-14 5 -16 3 -11 -12 6 -14 5 -16 -6 -6 -12 9 -13 6 -9 -15 4 -20 2 -25 -8 -19
-10 6 -12 3 -8 -13 4 -15 2 -19 -9 -15 -16 6 -14 -17 2 -29 6 -4 0 -8 -12 -8
-16 0 -21 -5 -18 -20 2 -11 0 -20 -5 -20 -4 0 -6 -10 -3 -22 4 -19 3 -20 -6
-8 -9 13 -11 13 -11 -2 0 -9 -6 -19 -12 -21 -10 -4 -9 -6 1 -6 11 -1 11 -4 0
-18 -12 -15 -12 -16 1 -8 12 7 13 6 3 -7 -7 -8 -10 -18 -6 -21 3 -4 1 -7 -7
-7 -9 0 -10 -4 -2 -13 7 -8 7 -18 2 -27 -5 -8 -6 -18 -4 -22 3 -4 -3 -5 -13
-1 -10 3 -15 3 -11 -2 4 -4 3 -14 -3 -21 -7 -8 -7 -14 1 -19 8 -5 8 -11 -1
-21 -8 -10 -8 -14 0 -14 14 0 10 -20 -7 -38 -7 -8 -9 -19 -5 -25 12 -18 11
-31 -4 -48 -15 -18 -14 -40 2 -51 6 -5 5 -8 -3 -8 -7 0 -10 -5 -7 -10 4 -6 11
-8 16 -5 15 10 10 -2 -8 -16 -14 -12 -16 -12 -8 0 5 9 4 12 -3 7 -7 -4 -8 -15
-3 -29 5 -12 5 -32 0 -45 -5 -13 -5 -21 0 -18 14 9 23 -26 11 -38 -8 -8 -9 -6
-5 7 4 9 3 17 -2 17 -17 0 -8 -48 12 -71 l20 -22 -25 13 c-19 10 -22 10 -13 0
6 -7 9 -19 6 -26 -3 -8 0 -14 7 -14 6 0 8 5 4 13 -5 8 -2 8 9 -2 19 -15 23
-26 5 -15 -8 5 -9 2 -4 -11 5 -14 4 -16 -7 -7 -10 9 -14 8 -14 -3 0 -8 6 -15
13 -15 7 0 16 -5 20 -12 4 -6 3 -8 -3 -5 -6 4 -13 0 -17 -8 -3 -8 0 -17 6 -21
7 -5 8 -2 3 6 -5 9 -4 11 4 6 9 -6 9 -11 -1 -24 -10 -12 -10 -14 0 -8 15 9 16
-6 2 -20 -7 -7 -5 -18 8 -35 25 -31 25 -30 13 -60 -8 -22 -6 -31 10 -48 13
-14 15 -21 7 -21 -9 0 -9 -3 2 -10 13 -8 13 -10 1 -10 -11 0 -9 -4 5 -14 10
-8 16 -17 12 -21 -4 -4 2 -16 12 -28 16 -17 17 -23 7 -36 -9 -12 -9 -13 1 -7
6 4 12 3 12 -3 0 -5 -6 -12 -12 -14 -7 -3 -4 -6 8 -6 21 -1 30 -30 10 -32 -6
0 3 -7 19 -14 21 -10 24 -14 11 -15 -16 0 -16 -2 5 -20 14 -11 18 -19 11 -20
-7 0 -10 -5 -7 -10 4 -6 10 -8 14 -6 4 3 13 0 21 -6 12 -8 12 -9 -2 -4 -10 3
-18 1 -18 -4 0 -6 7 -10 16 -10 10 0 14 -6 11 -14 -3 -8 1 -20 8 -26 8 -7 13
-17 12 -22 -1 -6 5 -13 13 -15 13 -4 13 -3 0 6 -8 6 -10 11 -5 11 6 0 21 -12
34 -25 20 -21 20 -24 5 -19 -18 5 -18 5 -1 -6 9 -6 23 -8 30 -4 7 5 6 0 -3
-12 -8 -10 -10 -16 -6 -12 12 10 37 -12 29 -25 -4 -7 0 -8 12 -3 15 5 16 4 6
-8 -10 -12 -8 -13 11 -9 13 3 20 2 16 -2 -5 -5 2 -13 14 -19 13 -6 28 -22 34
-35 8 -16 13 -19 17 -9 4 10 6 10 6 0 1 -7 5 -10 11 -7 6 4 7 -1 3 -11 -5 -13
-3 -16 10 -11 9 3 17 2 17 -4 0 -6 6 -7 13 -3 9 6 9 4 -1 -8 -10 -13 -10 -18
-1 -24 8 -4 9 -3 5 4 -4 7 -1 12 9 12 10 0 13 -5 9 -12 -5 -8 -2 -9 9 -5 10 4
17 1 17 -6 0 -8 4 -6 10 3 8 13 10 12 10 -2 0 -10 -5 -18 -11 -18 -5 0 -7 -5
-3 -11 4 -6 9 -7 13 -2 7 11 52 12 45 1 -3 -4 7 -8 23 -9 25 0 26 -1 8 -9 -17
-7 -15 -9 13 -9 23 -1 32 -6 33 -18 0 -15 2 -15 9 2 6 14 9 16 10 5 2 -8 2
-18 1 -22 0 -5 3 -8 9 -8 5 0 10 6 10 13 0 9 3 8 9 -2 5 -7 14 -10 20 -7 6 4
11 3 11 -3 0 -6 7 -7 17 -4 12 5 14 3 8 -8 -7 -12 -6 -12 9 0 16 13 17 13 14
-3 -2 -15 4 -19 36 -21 26 -2 34 0 25 6 -8 5 -9 9 -3 9 6 0 14 -3 18 -7 4 -5
20 -9 34 -9 50 -3 53 -4 46 -16 -4 -6 -3 -8 4 -4 5 3 13 0 16 -6 4 -7 4 -2 2
12 l-5 25 20 -25 c12 -14 19 -20 16 -15 -3 6 5 10 18 10 13 0 21 -3 18 -7 -6
-11 5 -10 27 2 14 7 20 6 24 -6 5 -13 9 -14 21 -4 12 10 15 10 15 -1 0 -10 3
-10 12 -1 16 16 31 15 22 0 -5 -9 -2 -9 9 1 14 11 17 11 17 0 0 -10 3 -10 12
-1 16 16 31 15 22 0 -6 -10 -4 -10 8 0 12 10 18 10 23 1 6 -8 10 -7 16 2 8 12
11 11 19 -1 8 -12 10 -12 10 -1 0 11 3 11 15 1 11 -9 15 -9 15 -1 0 7 5 9 12
5 16 -10 50 -10 65 -1 6 4 15 3 18 -3 5 -8 11 -8 20 0 10 8 15 8 20 0 5 -8 10
-8 20 0 10 8 15 8 20 0 5 -8 11 -8 21 1 11 9 17 9 28 0 11 -9 15 -9 18 0 3 8
9 9 18 4 19 -12 51 -14 44 -3 -3 4 -1 8 5 8 5 0 12 -4 15 -8 6 -10 36 -9 54 2
7 4 12 2 12 -6 0 -10 2 -10 9 1 6 9 10 10 16 2 5 -9 10 -9 21 0 11 9 14 8 14
-2 0 -8 6 -6 16 7 8 10 13 14 10 9 -2 -6 4 -11 14 -11 10 0 17 3 14 7 -2 4 -1
9 3 12 5 2 3 3 -2 1 -6 -1 -11 6 -11 16 0 10 3 17 7 15 3 -3 6 13 5 35 -1 22
-5 40 -11 40 -5 0 -2 5 8 11 18 11 14 29 -6 29 -7 0 -6 -4 3 -10 9 -6 10 -10
3 -10 -19 0 -26 20 -9 26 8 3 12 12 10 19 -3 7 0 16 5 20 6 3 9 11 5 16 -3 5
-10 7 -15 3 -5 -3 -6 -10 -3 -16 4 -7 2 -8 -5 -4 -9 6 -9 11 -1 21 6 8 11 22
10 32 -1 10 -1 20 0 23 7 16 3 80 -4 80 -6 0 -1 7 10 15 18 15 18 15 0 8 -13
-4 -17 -3 -13 4 4 6 2 13 -5 15 -7 3 -5 7 6 11 10 4 15 3 11 -3 -3 -6 -1 -10
4 -10 14 0 14 17 1 25 -8 5 -8 11 -1 19 7 9 6 19 -5 34 -8 12 -12 22 -8 22 3
0 0 7 -7 17 -13 15 -12 15 11 3 l25 -13 -20 23 c-19 23 -19 23 -1 16 19 -7 19
-6 1 14 -10 11 -15 20 -10 20 4 0 1 7 -6 17 -13 15 -12 15 11 3 l25 -13 -19
22 c-25 28 -30 52 -9 44 13 -5 13 -2 5 14 -6 11 -9 23 -6 26 9 8 -19 3 -35 -8
-10 -5 -16 -4 -19 3 -2 7 -8 12 -13 12 -6 0 -7 -5 -4 -11 5 -7 -5 -9 -31 -5
-21 4 -40 9 -42 11 -3 3 -11 0 -19 -6 -10 -9 -13 -8 -13 2 0 8 -6 5 -14 -7
-14 -18 -15 -18 -21 -1 -4 9 -11 17 -17 17 -5 0 -6 -5 -3 -11 5 -7 -5 -9 -31
-5 -21 4 -40 9 -42 11 -3 3 -11 0 -19 -6 -10 -9 -13 -8 -13 2 0 8 -5 6 -13 -6
-11 -14 -16 -15 -22 -5 -5 9 -4 11 3 6 7 -4 12 -2 12 3 0 14 -13 14 -28 -1 -9
-9 -12 -9 -12 3 0 12 -2 12 -10 -1 -9 -13 -13 -12 -26 5 -16 20 -16 20 -11 -4
l6 -23 -21 22 c-15 15 -23 19 -31 11 -16 -16 -27 -14 -27 5 0 10 -5 12 -12 7
-20 -12 -37 -12 -45 -1 -4 7 -1 8 7 3 8 -5 11 -4 7 2 -4 6 -18 8 -32 5 -16 -3
-25 0 -25 8 0 9 -4 9 -17 -1 -15 -13 -15 -12 -4 9 12 22 11 23 -9 12 -13 -7
-20 -8 -16 -2 3 5 -1 13 -10 16 -8 3 -12 2 -9 -4 3 -6 2 -10 -3 -10 -15 0 -22
26 -11 39 6 8 5 8 -3 1 -7 -6 -18 -5 -30 1 -13 7 -18 6 -18 -2 0 -7 -3 -9 -6
-6 -4 4 -1 13 6 22 10 12 9 15 -6 16 -11 1 -22 1 -26 0 -5 0 -7 5 -5 12 1 6
-5 11 -14 9 -9 -1 -16 4 -16 13 0 8 5 11 11 8 6 -4 5 1 -2 10 -8 9 -22 19 -33
22 -10 4 -19 11 -19 17 0 5 7 7 16 4 14 -5 15 -4 5 8 -7 8 -20 12 -29 9 -9 -3
-14 -2 -9 2 4 5 -1 18 -10 29 -17 20 -17 20 0 7 23 -18 22 1 -3 29 -16 18 -17
25 -8 32 9 5 7 8 -7 8 -17 0 -17 2 -5 10 8 5 10 10 4 10 -7 0 -12 17 -12 38 0
59 -1 64 -12 57 -5 -3 -10 -1 -10 4 0 6 4 11 10 11 5 0 8 10 6 23 -2 12 2 28
8 36 9 12 7 12 -14 1 -22 -12 -24 -11 -13 2 7 8 9 19 5 23 -4 5 -2 5 5 1 14
-8 27 10 14 19 -6 3 -7 13 -4 23 6 15 5 16 -13 2 -18 -14 -18 -14 -2 6 10 11
16 30 13 42 -2 12 1 25 7 28 7 5 8 2 3 -7 -5 -8 -4 -10 0 -6 16 14 14 39 -2
33 -12 -5 -13 -4 -5 7 7 8 10 16 7 19 -3 3 3 11 12 19 17 13 17 13 3 -6 -14
-18 -14 -19 2 -7 9 7 15 24 14 37 -2 13 3 26 10 29 8 3 14 12 14 21 0 8 5 15
11 15 6 0 8 7 5 16 -5 13 -4 14 7 5 12 -9 14 -6 12 14 -2 14 1 23 6 19 5 -3 6
-11 2 -17 -3 -7 3 -3 15 7 12 11 20 22 17 25 -4 3 -10 -1 -15 -9 -6 -8 -10
-10 -10 -4 0 15 25 36 33 28 3 -3 14 -1 24 6 17 11 17 11 0 6 -11 -4 -16 -2
-11 5 3 6 17 9 30 6 18 -3 22 -1 14 8 -13 16 0 28 16 14 8 -7 14 -6 20 2 5 8
3 9 -6 4 -9 -6 -11 -4 -6 4 5 7 14 10 22 7 8 -3 14 1 14 9 0 8 5 15 11 15 6 0
8 -8 5 -17 -6 -17 -5 -17 8 0 15 19 31 24 20 5 -4 -7 -3 -8 5 -4 6 4 9 11 6
16 -3 5 -1 11 5 15 5 3 10 2 10 -3 0 -5 7 -9 15 -9 8 0 11 5 8 10 -4 6 3 8 15
5 12 -4 22 -1 22 4 0 7 5 6 14 -1 10 -9 16 -9 21 -1 5 8 10 8 20 0 9 -7 15 -7
19 -1 4 5 15 8 26 6 12 -2 17 1 14 10 -3 7 0 16 7 21 8 4 10 3 5 -4 -4 -7 -2
-12 4 -12 6 0 8 -6 4 -12 -4 -7 3 -3 15 10 19 19 41 22 41 6 0 -3 -4 -3 -9 1
-5 3 -12 1 -15 -4 -8 -13 19 -8 37 7 12 10 17 10 23 1 4 -7 3 -9 -3 -6 -5 3
-10 -1 -10 -9 0 -10 7 -8 25 8 l24 23 -7 -23 -7 -24 22 22 c17 17 24 19 36 9
11 -9 14 -9 14 1 0 10 3 10 15 0 12 -10 15 -10 15 0 0 10 3 10 15 0 12 -10 15
-10 15 1 0 12 2 12 9 1 11 -17 21 -17 32 0 7 11 9 11 9 -1 0 -11 3 -11 15 -1
12 10 15 10 15 0 0 -9 4 -9 17 1 11 10 14 10 9 2 -4 -7 -3 -13 1 -13 5 0 15 6
22 13 11 10 13 10 7 0 -10 -18 2 -16 20 2 9 8 11 15 5 15 -6 0 -11 5 -11 11 0
5 5 7 10 4 6 -3 10 -1 10 4 0 6 -6 11 -12 12 -7 0 -4 4 7 9 15 6 16 9 4 9 -11
1 -16 11 -15 35 1 19 4 32 8 29 5 -2 8 1 8 6 0 6 -5 11 -11 11 -8 0 -8 5 1 15
9 10 9 15 1 15 -6 0 -11 5 -11 11 0 5 5 7 10 4 6 -3 10 -1 10 4 0 6 -6 11 -12
12 -7 0 -4 4 7 9 15 6 16 9 4 9 -11 1 -16 11 -15 35 1 19 4 32 8 29 5 -2 8 0
8 5 0 6 -7 12 -15 16 -8 3 -15 11 -15 18 0 9 3 8 10 -2 5 -8 10 -13 11 -10 0
3 2 15 5 28 2 13 0 21 -4 18 -5 -3 -9 1 -9 9 0 8 3 12 7 10 3 -2 6 5 6 16 0
10 -4 19 -8 19 -4 0 -8 5 -8 11 0 5 5 7 10 4 6 -3 10 -1 10 4 0 6 -6 11 -12
12 -7 0 -4 4 7 9 15 6 16 9 4 9 -11 1 -16 11 -15 35 1 19 4 32 8 29 5 -2 8 1
8 6 0 6 -6 11 -12 11 -9 0 -8 4 2 10 13 8 13 10 1 10 -11 0 -9 4 5 15 18 15
18 15 0 8 -15 -5 -17 -3 -10 8 5 8 9 26 10 41 0 25 -1 25 -23 11 -13 -9 -23
-12 -22 -7 4 21 -2 26 -16 14 -12 -10 -15 -10 -16 1 0 8 -4 5 -9 -6 -7 -16 -9
-17 -9 -3 -1 10 -9 16 -21 15 -12 -1 -18 -7 -16 -14 4 -9 -1 -10 -22 -2 -42
16 -61 19 -67 8 -4 -5 -11 -7 -16 -3 -5 3 -6 10 -3 16 4 7 2 8 -5 4 -6 -4 -9
-11 -6 -15 2 -5 -7 -6 -20 -3 -14 2 -25 9 -25 14 0 5 -5 6 -10 3 -6 -4 -7 -11
-4 -17 5 -8 1 -9 -12 -4 -33 13 -53 15 -59 5 -4 -5 -11 -7 -16 -3 -5 3 -6 10
-3 16 4 7 2 8 -5 4 -6 -4 -9 -11 -6 -16 6 -10 -38 0 -45 11 -3 5 -11 0 -18 -9z
m-267 -11 c3 -5 2 -12 -3 -15 -5 -3 -9 1 -9 9 0 17 3 19 12 6z m-92 -28 c-4
-10 -9 -10 -18 -3 -6 5 -16 6 -20 2 -5 -4 -6 -2 -2 3 8 16 46 13 40 -2z m-445
-148 c-3 -3 -9 2 -12 12 -6 14 -5 15 5 6 7 -7 10 -15 7 -18z m828 -487 c4 -7
4 -10 -1 -6 -4 4 -14 3 -22 -3 -8 -8 -13 -8 -13 -1 0 6 6 13 13 15 6 3 13 6
14 6 1 1 5 -5 9 -11z m-1308 -73 c-3 -3 -9 2 -12 12 -6 14 -5 15 5 6 7 -7 10
-15 7 -18z m-43 -135 c-3 -5 -11 -10 -16 -10 -6 0 -7 5 -4 10 3 6 11 10 16 10
6 0 7 -4 4 -10z m-23 -177 c-6 -2 -9 -10 -6 -15 4 -7 2 -8 -5 -4 -13 9 -5 26
12 25 9 0 8 -2 -1 -6z m883 -83 c3 -6 -1 -7 -9 -4 -18 7 -21 14 -7 14 6 0 13
-4 16 -10z m-8 -75 c0 -8 -4 -12 -9 -9 -5 3 -6 10 -3 15 9 13 12 11 12 -6z
m-882 -65 c3 -6 -1 -7 -9 -4 -18 7 -21 14 -7 14 6 0 13 -4 16 -10z m50 -328
c-3 -3 -11 0 -18 7 -9 10 -8 11 6 5 10 -3 15 -9 12 -12z m1769 -353 c-3 -5
-10 -7 -15 -3 -5 3 -7 10 -3 15 3 5 10 7 15 3 5 -3 7 -10 3 -15z m-1604 5 c0
-8 -19 -13 -24 -6 -3 5 1 9 9 9 8 0 15 -2 15 -3z m1597 -149 c0 -8 -4 -12 -9
-9 -4 3 -8 9 -8 15 0 5 4 9 8 9 5 0 9 -7 9 -15z m3 -229 c0 -3 -4 -8 -10 -11
-5 -3 -10 -1 -10 4 0 6 5 11 10 11 6 0 10 -2 10 -4z m-999 -33 c13 -16 12 -17
-3 -4 -10 7 -18 15 -18 17 0 8 8 3 21 -13z"/>
<path d="M3745 6040 c-3 -6 1 -7 9 -4 18 7 21 14 7 14 -6 0 -13 -4 -16 -10z"/>
<path d="M2210 6005 c-10 -12 -10 -15 2 -15 8 0 15 7 15 15 0 8 -1 15 -2 15
-2 0 -8 -7 -15 -15z"/>
<path d="M6180 6011 c0 -6 4 -13 10 -16 6 -3 7 1 4 9 -7 18 -14 21 -14 7z"/>
<path d="M4020 5939 c0 -5 5 -7 10 -4 6 3 10 8 10 11 0 2 -4 4 -10 4 -5 0 -10
-5 -10 -11z"/>
<path d="M6410 5875 c13 -14 27 -25 32 -25 5 0 -3 11 -18 25 -15 14 -29 25
-32 25 -3 0 5 -11 18 -25z"/>
<path d="M6495 5801 c-3 -5 -2 -12 3 -15 5 -3 9 1 9 9 0 17 -3 19 -12 6z"/>
<path d="M2203 5682 c13 -13 20 -13 29 -4 7 7 8 12 3 13 -6 0 -19 2 -29 4 -18
3 -18 2 -3 -13z"/>
<path d="M455 5660 c-3 -5 -2 -10 4 -10 5 0 13 5 16 10 3 6 2 10 -4 10 -5 0
-13 -4 -16 -10z"/>
<path d="M4495 5400 c4 -6 11 -8 16 -5 14 9 11 15 -7 15 -8 0 -12 -5 -9 -10z"/>
<path d="M4495 5160 c4 -6 11 -8 16 -5 14 9 11 15 -7 15 -8 0 -12 -5 -9 -10z"/>
<path d="M4355 5041 c-3 -5 -2 -12 3 -15 5 -3 9 1 9 9 0 17 -3 19 -12 6z"/>
<path d="M4495 4760 c4 -6 11 -8 16 -5 14 9 11 15 -7 15 -8 0 -12 -5 -9 -10z"/>
<path d="M2203 4562 c13 -13 20 -13 29 -4 7 7 8 12 3 13 -6 0 -19 2 -29 4 -18
3 -18 2 -3 -13z"/>
<path d="M236 4533 c6 -4 10 -16 8 -26 -1 -9 1 -15 6 -12 13 8 5 38 -11 43 -9
2 -10 1 -3 -5z"/>
<path d="M4495 4520 c4 -6 11 -8 16 -5 14 9 11 15 -7 15 -8 0 -12 -5 -9 -10z"/>
<path d="M2210 4510 c0 -13 18 -22 24 -11 3 5 -1 11 -9 15 -8 3 -15 1 -15 -4z"/>
<path d="M6456 4401 c-3 -4 4 -17 17 -27 22 -19 22 -19 4 2 -9 11 -14 24 -10
27 3 4 4 7 0 7 -3 0 -8 -4 -11 -9z"/>
<path d="M290 4336 c0 -2 8 -10 18 -17 15 -13 16 -12 3 4 -13 16 -21 21 -21
13z"/>
<path d="M2203 4322 c13 -13 20 -13 29 -4 7 7 8 12 3 13 -6 0 -19 2 -29 4 -18
3 -18 2 -3 -13z"/>
<path d="M5510 4300 c0 -5 5 -10 11 -10 5 0 7 5 4 10 -3 6 -8 10 -11 10 -2 0
-4 -4 -4 -10z"/>
<path d="M2040 4286 c0 -2 7 -7 16 -10 8 -3 12 -2 9 4 -6 10 -25 14 -25 6z"/>
<path d="M2210 4270 c0 -13 18 -22 24 -11 3 5 -1 11 -9 15 -8 3 -15 1 -15 -4z"/>
<path d="M2210 4150 c0 -13 18 -22 24 -11 3 5 -1 11 -9 15 -8 3 -15 1 -15 -4z"/>
<path d="M5590 4136 c0 -2 8 -10 18 -17 15 -13 16 -12 3 4 -13 16 -21 21 -21
13z"/>
<path d="M4495 4120 c4 -6 11 -8 16 -5 14 9 11 15 -7 15 -8 0 -12 -5 -9 -10z"/>
<path d="M6670 3966 c0 -2 7 -9 15 -16 13 -11 14 -10 9 4 -5 14 -24 23 -24 12z"/>
<path d="M599 3907 c6 -8 7 -18 3 -22 -4 -5 -1 -5 6 -1 10 6 10 11 1 22 -6 8
-14 14 -16 14 -3 0 0 -6 6 -13z"/>
<path d="M4495 3880 c4 -6 11 -8 16 -5 14 9 11 15 -7 15 -8 0 -12 -5 -9 -10z"/>
<path d="M5390 3879 c0 -5 5 -7 10 -4 6 3 10 8 10 11 0 2 -4 4 -10 4 -5 0 -10
-5 -10 -11z"/>
<path d="M5394 3815 c0 -13 3 -22 7 -19 8 4 6 30 -2 38 -3 3 -5 -5 -5 -19z"/>
<path d="M3715 3560 c-3 -5 -4 -14 -1 -18 3 -5 -1 -9 -9 -9 -8 0 -12 4 -9 9 3
4 -4 8 -15 8 -12 0 -21 -6 -21 -12 0 -10 -3 -9 -9 1 -7 11 -9 11 -14 0 -4 -11
-6 -11 -6 -1 -1 9 -6 10 -20 2 -14 -7 -21 -6 -24 3 -3 9 -8 9 -18 -2 -12 -12
-12 -13 0 -6 10 6 12 4 6 -4 -5 -8 -18 -11 -36 -7 -25 5 -27 3 -17 -8 7 -8 16
-12 20 -10 4 2 10 -1 14 -7 4 -8 3 -9 -4 -5 -6 3 -16 -3 -22 -15 -10 -17 -8
-23 7 -35 17 -14 16 -14 -4 -4 -12 5 -26 10 -30 9 -19 -3 -33 2 -33 12 0 5 5
7 10 4 6 -4 10 5 10 21 0 24 -2 25 -17 13 -11 -10 -14 -10 -9 -1 10 16 -4 15
-28 -3 -10 -8 -23 -12 -29 -8 -6 4 -7 1 -2 -7 6 -10 3 -12 -14 -7 -19 5 -21 2
-15 -16 6 -22 6 -22 -10 -2 -15 20 -15 20 -16 -5 0 -14 -4 -20 -8 -15 -10 14
-35 18 -26 4 5 -8 -1 -10 -19 -7 -15 3 -24 1 -21 -3 3 -5 0 -9 -6 -9 -6 0 -8
-5 -4 -12 5 -9 2 -8 -9 1 -16 12 -17 12 -10 -5 6 -17 5 -18 -12 -4 -10 8 -16
10 -12 4 3 -6 -5 -16 -19 -23 -31 -14 -37 -14 -29 -1 11 18 -4 11 -26 -12 -12
-13 -19 -18 -16 -12 4 7 -2 14 -13 17 -17 4 -18 2 -10 -14 8 -15 7 -17 -5 -13
-8 4 -21 1 -29 -5 -7 -6 -30 -9 -49 -7 -30 4 -35 2 -29 -12 5 -15 4 -15 -11
-3 -16 12 -17 12 -11 -5 7 -18 7 -18 -15 0 -17 16 -20 16 -16 4 4 -9 1 -19 -6
-24 -8 -5 -10 -3 -4 7 8 12 6 12 -8 0 -14 -11 -17 -11 -17 0 0 10 -3 10 -8 3
-4 -6 -15 -10 -24 -8 -10 1 -18 -2 -18 -6 0 -5 -9 -7 -20 -5 -12 2 -23 -2 -27
-10 -3 -10 -13 -13 -31 -8 -20 5 -23 3 -17 -8 7 -11 5 -11 -10 1 -19 16 -21
16 -44 -3 -9 -7 -12 -8 -8 -1 5 9 -1 10 -45 5 -4 -1 -14 -8 -22 -17 -9 -8 -16
-11 -16 -6 0 6 -7 13 -16 16 -15 6 -15 4 -3 -11 9 -11 10 -14 2 -9 -7 4 -13 2
-13 -3 0 -6 -4 -11 -10 -11 -5 0 -7 8 -3 18 5 14 3 15 -8 5 -7 -7 -31 -13 -54
-13 -23 0 -47 -6 -54 -12 -11 -11 -13 -10 -8 4 4 12 2 15 -8 11 -8 -3 -12 -9
-9 -14 3 -5 -7 -4 -23 2 -15 6 -29 10 -31 10 -1 -1 -17 -7 -35 -14 -33 -14
-61 -12 -52 4 4 5 -1 6 -9 3 -9 -3 -13 -10 -10 -15 3 -5 -2 -6 -10 -3 -9 3
-13 11 -9 18 3 6 -5 1 -19 -11 -21 -20 -27 -21 -43 -9 -18 13 -17 14 8 11 15
-2 27 1 27 5 0 9 -40 7 -56 -3 -6 -3 -25 -4 -44 -2 -30 4 -32 3 -14 -10 21
-15 0 -16 -25 -1 -10 6 -12 5 -7 -2 4 -7 3 -12 -3 -12 -5 0 -12 6 -14 13 -4 9
-8 9 -15 -2 -7 -9 -12 -10 -16 -2 -4 6 -12 11 -17 11 -6 0 -8 -4 -5 -8 3 -5
-1 -9 -9 -9 -8 0 -15 4 -15 9 0 4 -5 8 -11 8 -5 0 -8 -4 -5 -8 7 -11 -31 -8
-41 3 -5 4 -3 6 2 2 6 -3 21 1 35 10 17 9 18 12 5 8 -11 -4 -27 -8 -35 -10 -8
-2 -17 -4 -20 -5 -3 -1 -29 -2 -58 -2 -28 0 -50 -4 -47 -8 3 -5 -6 -3 -21 5
-15 7 -33 11 -42 8 -11 -5 -13 -3 -7 7 6 10 4 12 -7 7 -9 -3 -21 0 -28 6 -10
9 -11 9 -6 0 5 -10 -8 -11 -55 -7 -35 3 -66 7 -70 10 -4 2 -10 0 -14 -6 -3 -5
-11 -10 -16 -10 -6 0 -8 4 -5 8 3 5 -1 9 -9 9 -8 0 -15 -4 -15 -9 0 -5 -5 -6
-10 -3 -6 4 -8 10 -5 15 3 5 0 12 -6 16 -8 4 -9 3 -5 -5 10 -15 -22 -27 -37
-12 -16 16 -25 14 -30 -6 -4 -16 -5 -16 -6 -2 -1 16 -31 36 -31 21 0 -4 -10
-8 -21 -9 -21 -2 -21 -1 -3 12 17 13 15 14 -15 4 -26 -9 -35 -9 -41 1 -6 10
-9 9 -13 -1 -4 -11 -6 -11 -6 -1 -1 10 -6 10 -22 1 -15 -8 -19 -8 -15 0 10 15
-7 14 -23 -1 -11 -11 -12 -10 -6 1 6 11 3 13 -13 9 -15 -4 -22 -2 -22 9 0 8
-5 11 -10 8 -6 -4 -8 -11 -5 -16 8 -12 -28 2 -37 15 -11 16 -51 14 -65 -4 -10
-12 -11 -11 -7 10 3 14 2 21 -3 15 -12 -15 -33 -17 -33 -3 0 9 -3 9 -12 0 -17
-17 -31 -15 -24 4 6 14 4 15 -10 3 -21 -17 -51 -19 -51 -3 0 7 5 10 11 7 6 -4
7 -2 3 3 -5 5 -12 9 -15 9 -4 0 -13 4 -20 9 -12 7 -12 4 -1 -15 11 -21 10 -22
-3 -12 -8 7 -19 9 -23 5 -5 -4 -5 -1 0 7 6 11 1 13 -24 9 -17 -2 -31 -1 -31 4
0 5 -4 7 -9 3 -5 -3 -12 -1 -16 5 -4 7 -13 7 -26 -1 -17 -9 -20 -7 -17 8 2 14
-4 18 -27 18 -16 0 -36 4 -42 8 -9 6 -11 3 -7 -7 3 -9 1 -16 -5 -16 -6 0 -11
8 -12 18 0 11 -2 12 -6 4 -4 -10 -10 -9 -30 4 -15 9 -22 11 -18 3 5 -8 4 -10
-4 -5 -6 4 -18 2 -26 -4 -12 -10 -13 -8 -10 9 5 26 -11 37 -30 21 -12 -10 -15
-10 -15 1 0 10 -3 10 -12 1 -9 -9 -16 -8 -32 6 -19 16 -19 16 -12 -2 7 -20 7
-20 -15 0 -15 12 -20 14 -15 4 4 -8 1 -7 -7 3 -10 12 -17 14 -22 8 -3 -6 -12
-11 -18 -11 -7 0 -6 4 3 10 13 9 13 10 0 11 -8 1 -23 1 -32 0 -10 -1 -18 4
-18 11 0 9 -3 9 -10 -2 -8 -12 -10 -12 -10 -1 0 11 -3 11 -17 0 -14 -12 -16
-12 -8 0 6 11 4 13 -8 8 -17 -7 -41 15 -29 28 4 5 1 5 -7 0 -7 -4 -34 -8 -58
-8 -31 0 -41 -3 -34 -10 14 -14 14 -30 0 -21 -8 5 -8 1 0 -14 13 -25 14 -35 3
-28 -5 3 -7 -5 -6 -17 1 -12 3 -22 4 -22 1 0 3 -12 4 -27 1 -16 -3 -28 -9 -28
-5 0 -4 -4 3 -9 8 -4 14 -12 14 -16 0 -4 -6 -12 -14 -16 -7 -5 -8 -9 -2 -9 14
0 14 -30 0 -30 -6 0 -5 -4 2 -9 17 -11 17 -21 0 -32 -9 -6 -10 -9 -1 -9 7 0
10 -7 7 -15 -4 -8 0 -23 7 -32 8 -10 9 -14 2 -10 -9 6 -11 -29 -10 -143 1 -94
-2 -150 -8 -150 -5 0 -4 -4 3 -9 8 -4 14 -12 14 -16 0 -4 -6 -12 -14 -16 -7
-5 -8 -9 -2 -9 14 0 14 -30 0 -30 -6 0 -5 -4 2 -9 17 -11 17 -21 0 -32 -7 -5
-8 -9 -3 -9 6 0 11 -9 12 -20 1 -13 -2 -18 -9 -14 -7 5 -8 2 -3 -6 4 -6 8 -52
8 -101 0 -48 4 -86 9 -83 4 3 8 0 8 -6 0 -7 7 -9 16 -6 10 4 13 2 8 -6 -4 -6
-3 -8 4 -4 5 3 13 0 16 -6 3 -7 4 -4 1 8 -4 14 0 21 9 21 9 0 13 -4 11 -8 -3
-3 2 -12 9 -18 12 -10 13 -8 9 11 -5 23 -5 23 11 3 10 -11 14 -14 10 -6 -5 11
-3 13 11 7 15 -5 16 -4 5 9 -11 13 -10 14 4 9 9 -3 16 -11 16 -17 0 -6 6 -3
13 8 10 13 16 15 21 6 6 -9 11 -9 21 -1 9 8 15 8 20 0 3 -5 11 -10 16 -10 6 0
7 4 4 10 -3 6 1 7 9 4 9 -3 13 -11 9 -18 -4 -6 1 -5 10 3 9 7 26 11 37 8 11
-3 20 -1 20 4 0 5 5 9 11 9 5 0 7 -4 4 -10 -4 -6 2 -7 18 -1 16 6 28 6 36 -2
7 -7 11 -7 11 -1 0 12 29 12 49 -1 9 -5 12 -4 7 3 -3 6 -2 13 4 17 5 3 10 1
10 -5 0 -6 4 -8 10 -5 5 3 10 0 10 -7 0 -10 3 -9 9 2 6 8 7 18 4 24 -3 5 -1 6
6 2 6 -4 9 -11 7 -15 -3 -4 12 -7 32 -6 30 1 36 4 34 20 -3 16 -1 17 12 6 9
-7 13 -17 10 -22 -3 -5 0 -9 6 -9 7 0 9 8 4 22 -6 21 -6 21 10 5 21 -21 27
-22 20 -3 -4 10 0 13 13 11 10 -2 22 -4 26 -4 5 -1 5 -6 1 -13 -5 -7 -3 -8 5
-4 7 5 10 15 7 23 -4 9 -2 11 7 6 22 -14 49 -14 41 -1 -5 8 0 7 11 -2 14 -12
19 -12 23 -2 3 10 7 10 18 1 11 -9 14 -8 14 5 0 10 5 14 10 11 6 -4 8 -10 6
-14 -3 -4 4 -8 15 -8 11 -1 23 5 26 13 3 7 9 11 14 8 5 -3 6 -11 2 -17 -4 -7
0 -6 10 2 18 15 23 26 7 16 -6 -3 -7 1 -4 9 5 13 9 12 25 -7 17 -20 18 -20 12
-2 -6 20 -6 20 15 2 20 -19 21 -18 15 5 -5 23 -5 23 11 3 10 -11 15 -15 12 -8
-4 6 -2 14 4 18 5 3 10 1 10 -6 0 -8 4 -8 13 -1 7 6 18 7 26 2 8 -4 20 -6 28
-3 11 4 11 8 1 21 -7 9 2 5 21 -8 19 -13 31 -18 26 -10 -6 10 -3 12 14 7 19
-5 20 -3 9 10 -12 14 -11 15 9 5 30 -17 41 -15 17 3 -18 13 -17 14 10 9 16 -3
33 -7 38 -10 4 -3 8 3 8 13 0 10 3 14 8 8 9 -13 72 -16 72 -3 0 5 -5 6 -12 2
-7 -4 -8 -3 -4 4 4 6 14 8 23 5 11 -4 14 -3 9 5 -5 8 -1 10 10 5 11 -4 13 -8
6 -11 -7 -2 -9 -8 -6 -14 3 -5 13 0 21 12 11 16 18 19 26 11 16 -16 31 -13 18
3 -9 11 -4 12 29 6 22 -4 37 -4 35 1 -3 4 -1 10 5 14 5 3 10 1 10 -4 0 -6 5
-11 11 -11 5 0 7 5 4 10 -3 6 0 10 9 10 8 0 16 3 19 8 2 4 3 2 1 -4 -1 -7 8
-11 20 -10 13 0 22 6 19 12 -2 6 3 11 11 11 8 0 12 -5 9 -10 -4 -6 -1 -7 8 -1
14 9 29 12 66 16 12 1 19 6 17 10 -3 5 -10 5 -16 2 -7 -4 -8 -2 -4 4 4 6 13 9
21 5 8 -3 15 0 15 7 0 6 5 8 11 4 8 -4 7 -9 -2 -15 -7 -4 -10 -11 -5 -16 4 -4
12 0 17 9 6 11 16 15 26 11 12 -5 14 -3 8 8 -7 11 -6 12 6 2 10 -8 19 -9 29
-1 12 8 11 8 -5 3 -17 -5 -18 -4 -7 7 11 11 16 10 26 -5 12 -16 14 -16 20 -2
4 11 2 14 -6 9 -6 -4 -8 -3 -5 3 4 6 16 13 27 16 11 3 18 1 14 -4 -3 -5 0 -9
5 -9 6 0 11 5 11 10 0 6 5 10 11 10 5 0 7 -4 4 -10 -3 -5 -1 -10 4 -10 6 0 11
7 11 15 0 8 5 15 11 15 5 0 7 -6 3 -12 -6 -10 -4 -10 8 0 22 17 49 24 132 31
4 1 6 7 3 15 -4 10 0 14 14 11 10 -2 19 2 19 8 0 8 3 8 9 -2 6 -9 10 -10 16
-2 4 8 11 9 18 2 16 -13 52 13 41 30 -4 8 -3 10 4 5 7 -4 12 -2 12 5 0 7 7 4
15 -7 9 -10 14 -13 13 -5 -2 7 3 16 11 19 9 3 11 0 6 -9 -5 -8 1 -5 12 6 11
11 18 24 16 28 -3 5 4 4 16 -2 14 -8 21 -8 21 -1 0 5 5 10 11 10 5 0 7 -5 3
-12 -5 -7 -3 -8 5 -4 7 5 10 14 8 20 -3 7 0 13 6 13 7 0 21 4 32 7 15 5 15 4
-2 -5 -13 -7 -23 -16 -23 -21 0 -13 50 22 50 36 0 6 7 2 15 -8 13 -17 15 -18
15 -3 0 9 7 17 15 17 8 0 15 8 15 18 0 13 2 14 9 3 6 -9 11 -10 15 -2 4 6 12
8 18 5 8 -5 9 -1 4 11 -6 16 -4 16 11 4 15 -12 16 -12 11 2 -4 11 0 15 15 14
12 -1 24 2 27 6 3 5 17 10 30 12 13 2 26 9 28 15 2 7 8 10 13 6 5 -3 9 0 9 5
0 6 5 11 11 11 6 0 24 11 40 24 19 16 36 22 50 19 18 -5 21 -3 16 11 -4 11 -3
15 4 11 6 -4 17 1 25 11 9 11 12 13 8 5 -4 -9 -2 -12 7 -9 8 3 13 14 11 24 -3
19 -3 19 11 0 13 -17 14 -17 20 -2 5 11 3 15 -5 10 -7 -4 -8 -3 -4 4 4 6 14 8
23 5 11 -4 14 -3 9 5 -9 15 6 16 21 1 8 -8 11 -6 10 7 -1 12 5 19 15 19 9 0
20 4 25 9 5 5 2 6 -6 1 -9 -5 -12 -4 -7 3 4 7 14 12 22 12 8 0 14 8 14 17 0
15 2 14 15 -3 11 -13 14 -14 13 -4 -2 8 3 14 10 12 8 -1 11 2 7 8 -3 6 -11 8
-16 5 -5 -4 -9 -1 -9 5 0 7 6 10 13 7 17 -6 49 12 42 23 -3 6 1 7 9 4 9 -4 18
1 22 10 3 9 10 13 15 10 5 -3 9 2 9 10 0 8 5 18 12 22 7 4 8 3 4 -4 -4 -7 -2
-12 3 -12 6 0 11 10 11 23 0 18 2 19 10 7 8 -13 10 -12 10 3 0 9 5 17 11 17 5
0 7 -6 3 -12 -5 -9 -2 -9 9 1 19 15 23 26 6 15 -8 -4 -8 0 0 15 7 11 14 21 17
21 3 0 3 -4 -1 -9 -3 -5 -1 -12 5 -16 5 -3 10 1 10 10 0 10 5 14 13 9 10 -6
10 -4 0 7 -7 7 -13 18 -13 23 0 6 5 4 11 -4 7 -10 12 -11 15 -4 3 6 11 20 19
30 15 18 15 18 8 -1 -6 -18 -5 -18 10 -7 14 12 15 11 11 -13 -3 -19 -1 -24 7
-19 7 4 9 3 5 -4 -3 -6 -15 -9 -26 -7 -11 2 -23 -1 -26 -7 -4 -6 -2 -8 4 -4 6
3 13 2 17 -4 3 -5 -1 -10 -9 -10 -9 0 -15 -5 -13 -12 1 -7 -5 -12 -13 -13 -8
0 -15 -4 -15 -10 0 -5 -4 -16 -9 -24 -6 -10 -5 -12 2 -7 7 4 12 3 12 -2 0 -6
-7 -13 -16 -16 -8 -3 -12 -10 -9 -16 3 -5 0 -7 -8 -4 -11 4 -14 -2 -12 -20 2
-15 -1 -24 -6 -20 -5 3 -7 10 -4 15 4 5 2 9 -4 9 -5 0 -10 -8 -10 -17 -1 -42
-5 -51 -18 -46 -8 3 -13 0 -11 -8 2 -8 -3 -13 -11 -11 -12 3 -12 0 -1 -13 11
-13 10 -15 -4 -9 -11 4 -16 1 -16 -11 0 -10 -4 -13 -12 -9 -9 6 -9 3 0 -9 12
-14 11 -16 -6 -12 -11 2 -23 -3 -26 -10 -3 -10 0 -12 12 -8 12 4 11 0 -6 -16
-12 -12 -19 -27 -16 -33 4 -7 2 -8 -5 -4 -6 4 -14 0 -17 -9 -5 -12 -9 -13 -20
-4 -12 10 -13 8 -8 -6 6 -14 4 -16 -7 -10 -12 8 -12 6 0 -8 12 -15 12 -17 -3
-11 -11 4 -16 2 -14 -7 2 -8 -2 -13 -8 -12 -6 1 -24 -12 -40 -30 -24 -27 -25
-28 -3 -9 14 12 29 22 33 22 5 0 -3 -9 -18 -21 -14 -11 -24 -24 -21 -28 2 -5
-6 -7 -19 -6 -13 2 -23 -3 -24 -11 -1 -8 -3 -21 -4 -29 -1 -8 -5 -12 -10 -9
-5 3 -5 11 -2 17 5 8 4 9 -4 2 -6 -6 -13 -20 -15 -32 -2 -13 -7 -26 -12 -30
-4 -5 -5 -3 -1 4 3 6 2 14 -4 18 -5 3 -10 -1 -10 -9 0 -8 -5 -18 -12 -22 -7
-5 -8 -2 -3 7 6 11 5 12 -5 2 -11 -10 -11 -15 1 -29 12 -16 12 -17 -1 -9 -23
14 -39 15 -34 1 2 -6 -3 -20 -12 -31 -8 -11 -13 -15 -10 -8 4 7 -1 9 -16 5
-12 -3 -17 -7 -10 -10 7 -2 9 -8 6 -13 -4 -6 -11 -6 -19 1 -11 9 -12 7 -8 -8
3 -15 -2 -22 -19 -28 -12 -4 -26 -7 -29 -6 -4 1 -6 -6 -5 -16 1 -11 -6 -17
-21 -16 -21 0 -27 -15 -10 -27 5 -3 1 -9 -8 -12 -9 -4 -13 -3 -10 3 9 15 -12
12 -28 -5 -8 -8 -18 -11 -23 -7 -5 4 -3 0 4 -9 10 -14 10 -18 -3 -23 -8 -3
-15 0 -15 6 0 6 -3 8 -7 4 -5 -4 -8 -13 -8 -19 0 -6 -15 -15 -32 -19 -18 -5
-33 -11 -33 -14 0 -3 10 -2 21 1 19 6 20 5 8 -8 -8 -8 -24 -14 -36 -12 -12 1
-22 -1 -21 -4 2 -20 -3 -31 -12 -26 -5 3 -10 1 -10 -5 0 -6 -4 -8 -10 -5 -5 3
-10 -1 -10 -9 0 -8 -4 -18 -10 -21 -6 -4 -7 1 -3 11 4 12 3 15 -5 10 -7 -4
-12 -13 -12 -20 0 -15 -60 -47 -72 -40 -4 3 -8 -4 -8 -15 0 -12 -5 -21 -11
-21 -5 0 -7 5 -3 12 4 7 3 8 -4 4 -7 -4 -12 -14 -12 -22 0 -8 -5 -12 -10 -9
-6 4 -8 11 -5 16 4 5 4 9 1 9 -3 0 -10 -10 -17 -21 -9 -17 -8 -20 2 -14 7 5
10 4 6 -2 -4 -6 -17 -9 -30 -8 -17 2 -24 -2 -23 -14 1 -10 -7 -16 -19 -16 -20
-1 -68 -39 -59 -48 2 -2 -2 -4 -8 -5 -13 -1 -48 -9 -58 -12 -3 -1 -9 -2 -13
-1 -4 1 -2 -9 4 -21 11 -21 11 -22 -4 -9 -12 9 -17 10 -17 2 0 -7 -5 -9 -12
-5 -8 5 -9 2 -5 -10 6 -14 4 -15 -15 -5 -18 10 -20 9 -14 -6 5 -15 4 -16 -8
-6 -11 9 -18 7 -34 -14 -23 -29 -34 -32 -25 -7 3 11 0 9 -11 -6 -10 -12 -22
-20 -27 -17 -5 3 -6 -2 -2 -11 4 -11 3 -15 -4 -11 -6 4 -13 4 -15 0 -1 -5 -17
-18 -34 -30 -23 -16 -34 -19 -42 -11 -8 8 -13 7 -18 -6 -5 -14 -9 -15 -15 -4
-7 10 -9 11 -9 0 0 -7 -6 -10 -12 -7 -7 4 -4 -1 7 -10 20 -17 20 -17 -4 -10
-17 5 -21 4 -16 -5 6 -9 3 -9 -15 0 -20 11 -21 10 -9 -12 12 -22 11 -22 -6 -8
-17 13 -18 13 -13 -1 4 -9 1 -16 -8 -16 -7 0 -10 5 -7 11 4 6 -1 5 -10 -2 -9
-8 -22 -10 -29 -6 -9 6 -9 3 1 -9 12 -15 12 -17 -4 -11 -13 5 -16 4 -11 -4 5
-8 1 -10 -10 -5 -12 4 -15 3 -10 -5 4 -7 2 -12 -3 -12 -6 0 -11 6 -11 13 -1 6
-7 1 -14 -12 -8 -15 -16 -20 -20 -12 -4 6 -2 11 4 11 6 0 8 5 4 11 -8 14 -24
-9 -17 -26 3 -9 -6 -11 -27 -9 -22 3 -29 0 -24 -8 5 -8 2 -9 -10 -5 -9 4 -15
3 -12 -2 3 -5 -2 -15 -11 -22 -9 -8 -14 -9 -10 -3 4 7 0 15 -9 18 -8 3 -12 2
-9 -3 3 -5 -3 -12 -14 -16 -11 -3 -22 -13 -26 -23 -5 -14 -7 -14 -15 -2 -7 11
-10 12 -10 2 0 -8 -5 -10 -12 -6 -7 5 -9 2 -5 -9 4 -12 2 -14 -10 -10 -10 4
-14 2 -10 -4 5 -7 -1 -9 -14 -6 -14 4 -25 0 -31 -11 -8 -14 -12 -15 -26 -4
-12 10 -14 10 -8 1 4 -8 2 -13 -4 -13 -6 0 -8 -4 -5 -10 8 -13 -1 -13 -25 0
-15 8 -21 6 -30 -10 -7 -12 -16 -17 -27 -13 -10 4 -14 2 -10 -4 4 -6 0 -14 -9
-17 -8 -3 -13 -2 -9 3 4 8 -16 8 -35 1 -3 -1 -9 -2 -14 -1 -5 1 -3 -5 4 -14 7
-8 10 -18 6 -22 -3 -3 -6 -2 -6 4 0 6 -7 13 -14 16 -11 4 -13 1 -9 -11 6 -15
5 -16 -12 -2 -15 12 -17 12 -10 1 6 -11 4 -13 -8 -8 -17 6 -41 -15 -30 -27 4
-4 -1 -4 -11 0 -11 4 -21 2 -27 -7 -7 -12 -9 -12 -9 0 0 8 -8 4 -21 -10 -11
-13 -18 -18 -14 -11 3 6 1 12 -5 12 -6 0 -8 6 -4 13 4 7 3 8 -2 4 -5 -5 -9
-16 -9 -25 0 -13 -7 -16 -29 -14 -23 3 -28 1 -23 -12 4 -9 3 -15 -1 -15 -4 1
-9 0 -12 -1 -21 -8 -40 -6 -40 3 0 6 -7 1 -16 -11 -12 -18 -19 -20 -35 -11
-17 9 -21 7 -26 -11 -4 -16 -8 -18 -14 -8 -7 11 -10 10 -21 -1 -11 -11 -11
-13 1 -6 10 6 12 4 7 -4 -6 -9 -13 -8 -29 6 -20 17 -20 17 -14 -1 6 -15 4 -17
-15 -13 -21 6 -21 5 -5 -7 16 -12 15 -13 -8 -13 -13 -1 -23 3 -20 7 2 3 -2 7
-9 7 -8 0 -12 -7 -8 -15 3 -9 1 -13 -5 -9 -6 4 -16 0 -23 -8 -10 -12 -16 -12
-26 -4 -11 9 -15 7 -20 -5 -5 -14 -9 -14 -22 -4 -13 11 -15 10 -9 -5 5 -13 3
-16 -6 -10 -18 11 -38 13 -31 2 3 -5 10 -6 16 -3 6 4 8 2 4 -4 -3 -6 -16 -9
-27 -7 -26 5 -51 -4 -43 -17 4 -6 -4 -4 -17 3 -22 11 -23 11 -11 -4 11 -13 10
-15 -9 -10 -13 4 -20 2 -16 -4 3 -5 0 -10 -8 -10 -8 0 -11 5 -8 11 4 6 0 5 -9
-1 -8 -7 -19 -9 -23 -5 -5 4 -6 0 -2 -9 4 -14 -1 -16 -29 -14 -31 2 -45 -7
-26 -18 4 -2 2 -3 -4 -1 -6 1 -17 -3 -24 -9 -10 -9 -11 -9 -6 1 10 17 -24 11
-57 -11 -15 -9 -34 -17 -43 -17 -10 0 -14 -5 -10 -15 3 -8 0 -15 -7 -15 -9 0
-8 -3 1 -9 8 -4 14 -12 14 -16 0 -4 -6 -12 -14 -16 -9 -6 -10 -9 -1 -9 7 0 10
-7 7 -15 -4 -8 0 -23 7 -32 8 -10 9 -14 2 -10 -9 6 -11 -29 -10 -143 1 -94 -2
-150 -8 -150 -5 0 -4 -4 3 -9 17 -11 17 -21 0 -32 -7 -5 -8 -9 -2 -9 6 0 11
-7 11 -15 0 -8 -5 -15 -11 -15 -6 0 -5 -4 2 -9 17 -11 17 -21 0 -32 -7 -5 -8
-9 -3 -9 6 0 11 -9 12 -20 1 -11 -2 -18 -7 -15 -6 3 -7 -1 -4 -10 11 -28 10
-305 -1 -305 -5 0 -4 -4 3 -9 17 -11 17 -21 0 -32 -7 -5 -8 -9 -2 -9 14 0 14
-30 0 -30 -6 0 -5 -4 2 -9 17 -11 17 -21 0 -32 -7 -5 -8 -9 -3 -9 6 0 10 -20
9 -45 -1 -25 3 -45 7 -45 5 0 9 -6 9 -14 0 -8 5 -18 12 -22 7 -5 9 -2 5 9 -3
8 0 18 8 21 9 3 12 0 9 -8 -3 -8 0 -17 7 -22 8 -4 10 -3 5 4 -4 7 -2 12 4 12
6 0 8 5 4 12 -5 7 -3 8 5 4 7 -5 10 -15 6 -23 -4 -13 -3 -14 10 -3 8 7 12 17
8 23 -3 6 -1 7 6 3 6 -4 9 -11 6 -16 -3 -5 0 -12 6 -16 8 -4 9 -3 5 4 -4 7 -2
12 4 12 6 0 8 5 4 11 -4 7 1 7 16 -1 20 -11 22 -10 17 3 -5 14 -2 15 21 5 15
-7 33 -16 40 -21 9 -7 11 -6 6 6 -4 12 -1 15 15 12 11 -2 23 1 26 6 4 5 11 7
16 3 6 -4 6 -10 0 -18 -8 -9 -7 -13 4 -13 8 0 12 4 9 8 -2 4 0 10 6 14 5 3 10
0 10 -7 0 -8 4 -6 11 4 8 14 13 16 29 6 14 -9 22 -9 33 1 10 8 17 9 22 2 7
-12 32 -10 55 3 12 7 13 6 3 -5 -19 -19 -16 -33 3 -15 17 18 39 12 27 -7 -4
-7 0 -6 10 2 19 15 23 26 5 15 -7 -4 -8 -3 -4 4 5 9 13 9 27 2 18 -10 23 -6
20 14 -1 5 6 6 15 2 15 -6 15 -4 3 10 -13 16 -12 16 8 6 20 -11 21 -10 18 16
-2 15 -2 21 1 15 7 -16 34 -17 34 -2 0 5 4 7 10 4 6 -3 7 1 4 10 -4 10 -2 15
7 13 8 -2 13 3 11 11 -2 11 0 12 10 4 10 -8 22 -5 45 11 18 13 30 26 26 29 -3
4 1 7 9 7 9 0 18 7 21 15 4 8 15 12 27 10 11 -2 18 0 15 4 -7 12 22 34 33 27
6 -3 9 2 8 12 0 10 5 16 15 14 9 -1 23 6 30 15 12 16 12 17 -2 6 -13 -10 -16
-10 -16 2 0 7 3 14 6 13 3 0 19 0 35 1 21 1 27 5 22 17 -4 10 -2 13 6 8 8 -5
9 -2 4 11 -5 15 -4 16 9 5 12 -10 15 -9 15 6 0 16 2 17 10 4 7 -11 10 -11 10
-2 0 8 5 10 13 6 9 -6 9 -4 -1 8 -11 14 -10 16 13 14 22 -3 23 -1 13 12 -11
13 -10 15 4 9 10 -3 17 -3 17 1 -3 19 2 25 11 12 7 -11 10 -11 10 -2 0 8 5 10
13 6 8 -5 7 -2 -2 9 -12 15 -12 17 4 11 13 -5 16 -4 11 4 -5 8 -1 10 10 5 11
-4 15 -2 11 4 -7 11 20 28 37 24 5 -1 6 7 3 19 -3 11 -1 18 3 15 5 -3 11 1 14
7 3 7 3 2 0 -12 -6 -24 -6 -24 9 -5 8 11 14 23 11 26 -2 3 8 5 22 3 16 -1 24
2 21 9 -3 7 -10 11 -16 9 -7 -1 -10 2 -6 8 3 6 10 8 15 5 13 -8 40 6 40 21 0
12 4 13 23 3 20 -11 21 -11 8 5 -12 15 -12 17 0 14 8 -2 13 4 12 15 0 10 2 16
5 13 3 -4 15 3 27 14 11 11 31 21 43 23 25 4 37 13 37 30 1 7 6 11 13 10 7 -2
12 4 12 12 0 8 5 15 11 15 5 0 7 -6 3 -12 -6 -10 -5 -10 8 -1 8 7 18 9 22 5 4
-4 7 -2 6 3 -5 23 1 37 14 32 9 -4 13 0 11 11 -4 26 5 34 23 20 13 -11 15 -9
9 17 -3 17 -4 24 -1 18 11 -26 55 -1 46 26 -3 10 0 11 15 3 15 -9 20 -8 20 3
0 8 -5 11 -10 8 -6 -4 -7 -1 -2 6 4 7 16 11 26 8 10 -3 18 -2 17 2 -3 22 4 41
12 36 6 -4 7 -11 4 -17 -4 -7 -2 -8 4 -4 6 4 8 14 5 23 -4 11 -3 14 5 9 7 -4
12 -2 12 4 0 6 4 8 10 5 6 -4 7 1 3 12 -6 15 -5 16 9 5 14 -12 16 -10 11 10
-5 23 -5 23 11 3 13 -16 15 -17 10 -2 -4 10 -1 17 6 17 6 0 9 4 6 9 -3 5 4 11
15 14 12 3 18 10 15 16 -4 5 -2 12 4 16 5 3 10 1 10 -4 0 -6 4 -11 10 -11 5 0
6 7 3 17 -5 12 -3 14 7 8 10 -6 12 -4 7 8 -3 9 -1 19 5 23 7 5 8 2 3 -6 -5 -8
-3 -11 6 -8 8 3 13 11 11 17 -1 6 3 11 9 11 5 0 7 6 3 12 -5 9 -2 9 9 -1 15
-12 17 -11 18 5 1 11 1 23 0 27 -1 4 7 3 18 -2 17 -9 18 -8 14 12 -4 18 -3 19
6 7 9 -13 11 -12 11 3 0 11 4 15 12 11 7 -5 9 0 6 14 -4 16 -2 19 10 15 11 -5
13 -3 7 8 -7 12 -6 12 7 1 10 -8 19 -9 22 -3 4 5 2 12 -4 16 -15 9 -2 25 14
19 8 -3 17 0 22 7 4 8 3 10 -4 5 -8 -5 -10 -2 -6 9 5 12 10 13 20 4 10 -9 12
-6 9 13 -4 22 -4 22 10 4 15 -19 20 -12 16 20 -2 17 27 37 44 30 10 -3 13 -2
10 5 -9 13 14 41 28 32 6 -4 7 -1 2 7 -6 10 -4 12 10 6 18 -6 18 -6 -1 15 -11
13 -13 19 -4 14 29 -18 41 -15 29 7 -8 15 -8 19 0 14 6 -4 11 -2 11 3 0 6 6
10 13 9 6 -2 11 3 9 10 -2 11 11 17 32 13 5 -1 4 4 -2 12 -14 17 -6 28 16 20
11 -5 13 -3 7 7 -6 10 -4 12 10 6 15 -5 16 -4 5 9 -11 13 -10 14 6 8 16 -6 17
-4 6 9 -10 13 -9 15 12 13 19 -3 23 1 18 18 -4 16 -2 19 13 14 14 -6 16 -3 12
13 -3 11 0 23 5 27 7 3 8 1 4 -5 -4 -7 -2 -12 3 -12 10 0 16 22 12 43 -1 5 3
6 9 2 6 -3 8 -12 4 -18 -3 -7 1 -4 9 5 8 10 18 14 23 10 4 -4 3 0 -4 10 -10
12 -10 18 -1 24 8 5 10 3 4 -7 -5 -8 2 -5 16 6 13 11 26 22 29 24 3 2 -6 1
-20 -2 -22 -6 -22 -5 3 5 15 7 30 22 33 35 4 13 10 23 16 23 5 0 6 -5 2 -12
-4 -6 -3 -8 4 -4 6 3 9 15 7 25 -3 15 1 19 16 16 10 -2 19 0 19 6 0 5 -4 9
-10 9 -5 0 -10 5 -10 11 0 6 7 9 15 5 8 -3 15 -1 15 5 0 6 6 7 13 3 8 -6 8 -3
-2 9 -11 15 -10 18 10 26 32 12 57 42 54 63 -2 10 5 20 16 23 10 4 19 11 19
16 0 6 6 7 13 3 7 -5 6 0 -3 11 -12 15 -12 17 -1 10 11 -6 13 -4 8 8 -4 11 -2
14 9 10 11 -4 15 0 12 13 -2 12 2 18 11 16 9 -2 12 4 8 18 -4 17 -3 19 8 10
15 -13 22 -4 20 27 -2 15 2 20 13 15 11 -4 14 -1 9 10 -8 22 3 30 20 16 11 -9
12 -7 7 7 -5 12 -4 16 3 12 6 -4 9 3 8 17 -2 17 3 26 17 29 12 4 18 12 16 24
-2 10 2 17 10 16 6 -2 12 1 12 5 0 4 -6 14 -12 21 -11 10 -10 11 5 6 9 -4 17
-12 17 -18 0 -6 3 -7 6 -4 4 4 2 13 -4 20 -9 11 -6 16 14 26 20 9 24 16 18 33
-5 17 -3 20 11 14 16 -6 16 -4 4 11 -8 9 -9 14 -3 10 16 -9 31 13 28 41 -1 17
2 20 9 13 6 -6 16 -11 21 -11 6 0 4 5 -4 10 -13 9 -13 12 3 21 9 5 17 15 17
22 0 8 -4 6 -11 -3 -9 -12 -10 -12 -5 3 3 10 6 21 6 23 0 3 5 2 10 -1 6 -3 10
1 10 10 0 9 5 13 11 9 7 -4 7 1 -1 16 -8 15 -8 20 -1 16 6 -4 11 -1 11 6 0 7
12 24 25 37 14 12 23 27 20 31 -3 5 1 11 7 13 9 4 8 6 -2 7 -10 0 -6 6 10 16
23 14 23 14 3 9 -32 -9 -29 -1 10 25 17 12 25 20 16 17 -9 -3 -16 1 -16 8 0 8
5 13 11 12 6 -1 10 8 10 21 -1 14 5 22 15 23 10 0 11 2 4 6 -7 2 -13 9 -13 15
0 6 7 7 16 4 8 -3 12 -2 9 3 -3 5 -1 13 5 16 8 5 7 12 -2 23 -11 13 -10 15 4
9 13 -4 15 -2 11 10 -4 11 -2 14 5 9 7 -4 12 -2 12 3 0 6 -4 11 -10 11 -5 0
-10 5 -10 10 0 6 8 10 18 10 14 0 15 2 2 10 -8 5 -10 10 -5 10 6 0 16 9 23 21
12 19 12 19 -10 8 -22 -12 -23 -11 -5 8 20 23 23 37 5 27 -8 -4 -10 -3 -5 2 5
5 14 9 20 9 7 0 12 9 13 20 1 12 7 32 14 45 13 24 12 24 -6 10 -17 -14 -18
-13 -7 1 7 9 10 19 6 23 -4 4 1 4 12 0 17 -7 18 -6 7 8 -10 13 -10 18 -1 24 8
5 10 3 4 -7 -5 -8 -4 -10 0 -6 12 10 15 38 4 31 -5 -3 -9 -1 -9 5 0 5 5 13 10
16 8 5 8 11 0 20 -10 12 10 14 63 6 4 -1 7 -13 7 -28 0 -22 -2 -25 -10 -13 -6
9 -10 10 -10 3 0 -6 7 -19 16 -27 8 -9 12 -16 7 -16 -12 0 -10 -184 2 -192 7
-5 7 -8 0 -8 -11 0 -12 -126 -1 -137 3 -3 0 -13 -6 -21 -18 -21 -19 -45 -3
-38 9 3 12 0 8 -9 -3 -8 -9 -12 -14 -9 -5 3 -9 0 -9 -5 0 -6 5 -11 10 -11 6 0
10 -5 10 -11 0 -5 -4 -7 -10 -4 -6 4 -10 -12 -10 -39 0 -30 -4 -46 -12 -46 -9
0 -8 -4 2 -10 10 -6 11 -10 3 -10 -7 0 -13 -5 -13 -11 0 -5 4 -8 9 -5 10 7 9
-20 -2 -30 -4 -4 -7 -24 -7 -43 0 -20 -8 -47 -17 -60 -9 -14 -11 -21 -5 -17
19 11 14 -5 -5 -21 -10 -8 -13 -12 -7 -9 8 4 11 -7 10 -33 0 -22 -3 -39 -6
-39 -20 1 -21 -4 -4 -17 12 -9 14 -14 5 -15 -8 0 -11 -6 -7 -16 3 -9 2 -12 -5
-9 -6 4 -8 14 -5 22 3 8 1 11 -5 8 -5 -4 -7 -16 -3 -27 4 -15 3 -18 -6 -13 -9
6 -9 3 -1 -14 8 -14 8 -21 1 -21 -5 0 -10 -5 -10 -11 0 -5 6 -7 13 -4 6 4 3
-1 -7 -9 -11 -9 -14 -16 -7 -16 7 0 9 -5 6 -10 -4 -6 -11 -8 -16 -5 -5 4 -9 1
-9 -4 0 -6 8 -11 18 -12 11 -1 9 -4 -8 -9 -14 -4 -19 -8 -11 -9 11 -1 11 -4 1
-16 -10 -12 -10 -15 1 -15 10 -1 8 -4 -4 -11 -13 -8 -15 -14 -7 -29 7 -13 7
-21 0 -25 -6 -4 -8 -10 -5 -15 3 -5 0 -12 -6 -16 -7 -4 -9 -3 -6 3 3 5 1 10
-6 10 -7 0 -13 -8 -13 -18 0 -10 3 -16 7 -13 13 8 3 -26 -11 -39 -12 -10 -12
-9 0 8 12 17 12 18 0 8 -15 -14 -23 -46 -9 -37 5 3 9 1 9 -4 0 -6 -7 -13 -15
-16 -13 -4 -14 -10 -5 -26 8 -16 8 -18 -4 -14 -11 4 -14 0 -11 -15 2 -12 7
-26 11 -33 4 -7 3 -8 -4 -4 -7 4 -12 2 -12 -4 0 -6 -4 -8 -10 -5 -6 4 -10 -7
-10 -25 0 -22 -4 -29 -12 -24 -10 5 -10 4 -1 -6 12 -14 -3 -64 -17 -55 -5 3
-10 -2 -14 -10 -3 -8 -1 -17 4 -20 5 -3 7 -12 3 -21 -3 -10 -9 -11 -17 -5 -8
7 -11 2 -10 -17 1 -15 -7 -39 -17 -53 -10 -14 -16 -29 -12 -33 3 -3 1 -6 -6
-6 -9 0 -9 -5 0 -22 11 -21 11 -22 -4 -10 -14 12 -16 10 -14 -10 0 -13 6 -26
12 -31 5 -4 -3 -5 -20 -3 -28 5 -29 4 -11 -9 17 -13 17 -15 3 -15 -9 0 -14 -6
-11 -13 3 -8 -5 -19 -18 -25 l-23 -12 24 6 c21 5 22 4 10 -9 -8 -8 -17 -13
-20 -11 -4 2 -9 -5 -12 -17 -5 -17 -3 -18 10 -7 14 11 15 11 5 -8 -6 -12 -9
-24 -6 -26 2 -3 -6 -4 -20 -3 -18 2 -23 -1 -19 -11 3 -8 10 -11 16 -7 6 4 7 1
3 -6 -5 -7 -13 -10 -20 -8 -7 3 -11 -9 -10 -34 0 -33 -2 -37 -15 -26 -12 9
-13 9 -7 0 4 -8 2 -13 -6 -13 -10 0 -9 -3 1 -9 12 -7 12 -13 3 -24 -7 -7 -8
-17 -4 -22 4 -4 -3 -2 -16 4 -21 11 -23 11 -13 -6 5 -11 6 -25 1 -33 -5 -8 -6
-18 -4 -22 3 -4 -1 -6 -8 -3 -7 3 -19 -5 -27 -17 -13 -22 -13 -22 4 -8 17 14
18 13 11 -5 -5 -11 -9 -25 -9 -32 0 -7 -4 -10 -9 -7 -5 3 -6 9 -3 14 7 11 -22
7 -32 -5 -5 -4 -2 -5 6 0 11 6 13 4 8 -9 -5 -12 -3 -15 6 -11 6 4 4 0 -6 -8
-14 -11 -15 -16 -5 -20 8 -3 6 -6 -6 -6 -13 -1 -16 -6 -12 -17 5 -13 3 -14 -7
-6 -10 8 -13 6 -13 -8 0 -10 5 -16 11 -12 5 3 4 -1 -2 -10 -7 -8 -9 -19 -5
-24 4 -4 0 -3 -10 4 -12 10 -18 10 -24 1 -4 -8 -3 -9 4 -5 7 4 12 1 12 -8 0
-8 -5 -18 -12 -22 -7 -4 -8 -3 -4 4 5 8 1 10 -10 5 -15 -5 -15 -7 1 -16 16 -8
15 -12 -10 -33 -17 -14 -25 -29 -22 -39 6 -14 -5 -20 -27 -16 -5 1 -6 -5 -3
-14 4 -8 1 -15 -6 -16 -7 0 -3 -4 8 -9 11 -5 14 -9 7 -9 -7 -1 -11 -5 -8 -10
4 -5 -4 -7 -16 -4 -19 4 -20 3 -8 -6 8 -6 12 -11 8 -12 -5 -1 -12 -3 -18 -4
-5 -1 -13 -3 -17 -4 -4 0 2 -8 13 -16 18 -14 18 -14 -5 -10 -18 3 -22 2 -13
-7 15 -15 -6 -48 -27 -40 -14 5 -14 3 -2 -11 11 -14 11 -18 -3 -23 -10 -4 -15
-12 -12 -19 6 -16 -40 -68 -53 -61 -5 4 -7 -4 -3 -16 3 -14 1 -19 -6 -14 -6 3
-14 1 -18 -5 -4 -8 -3 -9 4 -5 17 10 15 -10 -3 -27 -8 -8 -11 -18 -7 -23 4 -5
-1 -2 -11 6 -10 7 -17 9 -16 4 1 -5 0 -11 -1 -14 -8 -21 -7 -39 2 -34 7 4 8 2
4 -4 -4 -7 -17 -12 -29 -12 -16 0 -18 -3 -8 -9 9 -6 10 -11 2 -15 -6 -4 -9
-12 -6 -17 3 -5 -1 -6 -9 -3 -9 3 -16 1 -16 -5 0 -6 5 -11 12 -11 6 0 1 -8
-10 -19 -12 -10 -18 -22 -14 -26 4 -5 -1 -5 -10 -2 -10 3 -20 1 -24 -5 -4 -6
-3 -8 3 -5 15 10 24 -18 10 -32 -6 -6 -17 -11 -24 -11 -7 0 -12 -3 -12 -7 3
-19 -2 -33 -12 -33 -5 0 -7 5 -3 12 4 7 3 8 -5 4 -9 -6 -9 -11 1 -24 10 -12
10 -14 1 -8 -8 4 -13 1 -13 -9 0 -10 -5 -13 -12 -9 -10 6 -10 4 0 -8 10 -13
10 -18 1 -24 -8 -4 -9 -3 -5 4 5 8 1 10 -10 5 -15 -6 -15 -7 0 -15 12 -7 22
-5 33 4 15 11 16 11 10 -4 -3 -10 -2 -18 3 -18 6 0 10 4 10 9 0 5 10 7 22 3
16 -4 19 -2 13 8 -5 9 -4 11 4 6 9 -6 9 -12 -1 -24 -12 -16 -11 -16 7 0 15 13
24 14 39 6 16 -9 18 -8 13 6 -5 13 -3 15 12 7 10 -6 33 -9 50 -6 17 2 29 0 26
-5 -3 -5 0 -12 7 -16 7 -4 10 -4 6 1 -10 11 11 37 24 29 5 -4 5 -11 -1 -18 -8
-9 -7 -13 4 -13 8 0 12 4 9 8 -2 4 0 10 6 14 5 3 10 0 10 -7 0 -8 5 -6 11 5 8
14 14 16 25 6 7 -6 21 -8 30 -5 14 5 15 4 5 -8 -9 -11 -9 -16 0 -22 7 -4 10
-3 6 2 -3 5 1 18 9 29 8 10 14 14 14 8 0 -7 20 -10 54 -9 30 1 53 -1 51 -4 -2
-4 2 -7 9 -7 9 0 12 7 8 16 -3 9 4 5 16 -9 18 -22 21 -23 27 -8 6 14 11 15 26
7 10 -5 19 -6 19 -2 0 5 13 8 29 8 16 1 28 -2 25 -6 -2 -4 11 -5 29 -3 91 11
107 11 102 4 -3 -5 0 -12 7 -16 7 -4 10 -4 6 1 -11 12 12 36 26 28 12 -8 18
-10 42 -12 9 -1 12 -6 8 -14 -4 -6 2 -4 13 6 11 9 23 14 27 10 4 -4 12 -1 17
7 9 12 10 12 5 -3 -3 -10 -2 -16 2 -13 5 3 23 8 40 11 26 4 32 2 33 -12 0 -16
2 -15 9 2 5 11 9 15 9 9 1 -6 7 -11 15 -11 8 0 12 7 9 16 -3 11 0 10 11 -3 15
-19 16 -19 16 -1 0 18 0 18 13 0 12 -16 14 -14 13 23 -1 33 1 39 12 30 10 -9
12 -8 10 3 -2 8 -10 20 -18 26 -13 11 -13 12 2 7 13 -4 16 0 15 15 -1 12 -6
21 -11 21 -6 0 0 7 12 16 12 8 22 21 22 27 0 7 -4 6 -10 -3 -6 -9 -10 -10 -10
-3 0 6 6 18 14 26 11 11 12 17 3 27 -10 10 -8 12 5 7 10 -3 20 -2 23 4 4 5 3
8 -2 7 -4 -2 -8 2 -8 7 0 6 3 9 7 8 4 -2 4 9 2 23 -3 14 1 33 7 41 10 12 10
16 -2 24 -11 8 -10 13 11 31 l25 21 -25 -7 c-14 -3 -19 -3 -12 0 6 3 10 10 7
15 -4 5 1 6 9 3 9 -3 16 -1 16 5 0 6 -4 11 -10 11 -5 0 -10 5 -10 11 0 6 7 9
15 6 11 -5 12 -1 5 19 -6 14 -6 23 -1 20 5 -3 12 1 15 10 3 8 2 12 -4 9 -6 -3
-10 1 -10 9 0 9 3 16 8 16 4 0 13 9 20 20 8 14 9 19 1 18 -6 -2 -14 3 -16 10
-3 7 1 10 10 6 11 -4 15 0 13 13 -2 10 0 25 5 34 5 9 5 19 2 23 -13 13 -11 36
3 36 9 0 12 5 9 10 -4 6 -12 7 -18 3 -9 -5 -9 -3 0 8 10 12 10 18 0 29 -10 12
-9 12 5 1 10 -7 15 -17 12 -22 -3 -5 3 -6 12 -2 12 4 14 8 6 11 -10 3 -10 7
-2 17 8 10 8 15 -1 21 -8 5 -9 3 -4 -6 6 -9 4 -11 -4 -6 -9 6 -9 12 3 25 13
14 13 20 3 31 -10 10 -9 11 2 5 11 -6 13 -4 8 8 -4 10 1 21 11 27 14 9 13 10
-8 5 -23 -6 -24 -5 -7 9 12 9 14 16 8 21 -6 3 -11 12 -11 18 0 7 4 6 10 -3 8
-13 11 -13 22 -1 7 8 8 11 2 8 -7 -4 -15 0 -18 9 -3 8 -2 12 4 9 10 -6 11 -2
14 50 1 17 6 37 11 44 5 8 4 12 -1 8 -5 -3 -9 14 -9 38 0 26 4 41 11 38 6 -2
11 3 11 12 0 8 -5 15 -11 15 -6 0 -3 5 7 11 14 8 15 14 7 24 -8 10 -8 15 1 21
8 5 9 3 4 -6 -6 -9 -4 -11 4 -6 9 6 8 13 -5 27 -17 18 -17 19 -1 13 15 -5 16
-3 8 19 -7 17 -5 32 4 51 10 18 10 28 3 32 -7 5 -8 2 -3 -6 5 -8 4 -11 -3 -6
-6 4 -9 13 -6 21 4 8 11 12 18 8 6 -4 5 0 -2 9 -10 12 -11 22 -3 36 6 11 7 23
3 27 -4 5 -1 5 6 1 8 -5 9 -13 2 -26 -5 -10 -10 -22 -10 -27 1 -4 7 3 15 17 9
17 10 29 3 37 -5 7 -6 18 -2 25 12 18 14 59 3 53 -10 -7 -12 8 -2 19 11 10 12
37 2 30 -13 -8 -11 10 3 24 9 9 9 12 -2 12 -9 0 -8 5 6 16 10 8 14 13 8 10 -7
-3 -15 1 -18 10 -3 9 -2 12 5 9 12 -8 8 33 -5 54 -6 10 -5 12 2 7 8 -5 12 1
12 18 0 13 -6 27 -12 29 -8 3 -5 6 5 6 10 1 15 6 12 11 -4 6 -12 7 -18 3 -7
-4 -6 0 2 10 7 9 10 24 7 33 -4 11 -2 15 8 11 21 -8 13 23 -10 41 -18 14 -18
14 4 9 17 -4 21 -2 13 7 -19 23 -21 64 -3 71 15 6 14 9 -7 26 l-23 19 23 0
c15 0 19 3 12 8 -18 11 -26 65 -8 59 20 -8 12 23 -11 41 -18 14 -18 14 4 9 17
-4 21 -2 14 6 -16 21 -23 49 -10 41 7 -5 8 -3 2 7 -14 24 -16 51 -2 43 7 -4 5
2 -4 13 -10 11 -18 24 -18 29 0 5 5 2 11 -6 7 -11 9 -7 5 17 -2 17 -7 37 -12
44 -5 9 -2 10 9 6 11 -4 14 -2 10 8 -3 8 -10 12 -17 8 -6 -4 -4 2 4 12 9 11
10 16 3 11 -7 -4 -13 -3 -13 3 0 5 6 12 13 14 10 4 10 6 0 6 -7 1 -13 6 -13
12 0 5 5 7 11 3 8 -5 8 -1 0 13 -6 11 -7 24 -3 28 4 5 1 4 -7 0 -11 -6 -13 -4
-8 8 4 10 1 17 -6 17 -8 0 -6 4 3 10 13 9 13 10 0 10 -13 0 -13 1 0 10 13 9 8
14 -12 11 -6 0 -2 41 7 67 2 6 0 12 -6 12 -6 0 -6 7 1 20 11 20 5 25 -29 21
-11 -2 -11 0 0 12 8 8 16 13 19 12 3 -2 7 5 7 16 2 17 -1 18 -13 8 -8 -6 -17
-9 -21 -5 -3 3 -1 6 6 6 9 0 9 5 0 23 -11 20 -11 21 5 8 14 -12 16 -12 10 3
-3 9 -10 16 -15 16 -5 0 -9 5 -9 11 0 5 5 7 12 3 6 -4 4 3 -5 16 -11 16 -13
28 -7 40 10 18 4 30 -14 30 -6 0 -4 -5 4 -11 12 -9 12 -10 -3 -5 -10 3 -22 6
-25 6 -4 1 4 7 18 15 19 11 21 14 8 15 -10 0 -18 5 -18 11 0 5 4 7 10 4 6 -3
7 1 4 9 -3 9 -11 13 -17 9 -6 -4 -7 -1 -1 8 12 20 14 40 2 33 -5 -3 -8 2 -7
12 2 11 0 25 -4 32 -5 6 -5 12 -1 12 4 0 -1 7 -12 16 -10 8 -13 12 -6 9 11 -6
12 -3 3 12 -6 11 -7 24 -3 29 4 5 0 3 -9 -4 -13 -10 -15 -7 -11 20 3 22 1 29
-7 24 -8 -5 -10 0 -7 18 5 26 -18 61 -33 52 -4 -3 -8 1 -8 9 0 8 4 12 9 9 13
-9 9 4 -9 25 -9 11 -20 18 -25 15 -4 -3 -4 6 2 20 6 17 6 27 -2 32 -7 5 -8 3
-3 -6 6 -9 4 -11 -4 -6 -7 5 -10 10 -7 13 3 3 -3 18 -14 33 -11 16 -20 32 -20
37 0 4 5 0 11 -10 6 -9 14 -15 18 -13 4 3 17 -3 28 -14 12 -10 24 -17 27 -14
3 2 2 -2 -4 -8 -15 -18 -12 -28 9 -28 21 0 35 -25 24 -43 -4 -7 0 -6 10 1 14
12 16 11 12 -6 -3 -18 21 -52 32 -44 8 6 23 1 23 -9 0 -5 -4 -8 -8 -5 -5 3 -9
-1 -9 -8 0 -8 10 -12 24 -10 13 1 21 -2 17 -7 -3 -5 0 -9 5 -9 6 0 11 -5 11
-11 0 -5 -5 -7 -12 -3 -6 4 -8 3 -4 -4 3 -6 15 -9 25 -7 15 3 17 -2 13 -23 -5
-24 -4 -26 12 -13 9 8 19 11 23 7 3 -3 2 -6 -4 -6 -16 0 -24 -28 -11 -36 7 -4
8 -3 4 4 -4 7 -2 12 5 12 7 0 9 -8 6 -21 -5 -17 -3 -18 11 -7 9 7 13 8 9 2 -3
-6 0 -19 7 -30 8 -10 13 -23 12 -29 -2 -5 -1 -7 1 -2 3 4 9 7 14 7 6 0 7 -4 4
-10 -3 -5 -2 -10 3 -10 6 0 8 -9 5 -19 -3 -13 2 -21 16 -26 12 -3 21 -13 21
-21 0 -10 5 -12 13 -8 7 5 6 0 -3 -11 -14 -17 -13 -18 6 -13 18 4 20 1 19 -23
-1 -21 5 -33 22 -45 21 -13 22 -18 11 -32 -9 -11 -10 -14 0 -8 6 4 12 2 12 -3
0 -6 9 -20 20 -31 18 -18 18 -20 3 -21 -11 0 -13 -3 -5 -6 6 -2 9 -10 5 -16
-3 -7 3 -4 14 6 16 14 20 14 20 2 0 -8 -4 -12 -9 -9 -4 3 -8 0 -8 -5 0 -6 5
-11 11 -11 5 0 7 -4 4 -10 -3 -5 2 -10 12 -11 10 0 13 -3 6 -6 -7 -2 -13 -10
-13 -16 0 -5 3 -7 7 -4 13 14 31 -27 22 -52 -8 -20 -7 -22 5 -12 9 8 16 8 20
2 4 -5 -2 -15 -11 -21 -17 -10 -17 -10 1 -8 10 2 21 -3 24 -11 3 -9 0 -11 -8
-6 -9 6 -9 3 -1 -12 6 -11 7 -24 3 -29 -4 -5 0 -3 10 4 12 10 18 10 24 1 4 -7
3 -9 -3 -6 -6 4 -14 0 -17 -9 -4 -10 -2 -13 6 -8 8 5 9 2 4 -11 -6 -16 -4 -16
11 -4 12 10 15 10 9 1 -4 -7 -2 -20 5 -28 10 -12 9 -13 -7 -8 -18 5 -18 5 -1
-9 9 -8 17 -19 17 -26 0 -6 6 -11 13 -11 7 0 8 -3 2 -8 -13 -9 -19 -35 -6 -28
5 3 11 -1 14 -8 3 -8 1 -17 -6 -20 -9 -3 -8 -5 1 -5 8 -1 10 -6 6 -13 -6 -10
-4 -10 8 0 14 11 16 11 14 0 -1 -7 -5 -18 -9 -25 -5 -8 3 -18 20 -28 27 -15
27 -15 3 -9 l-25 6 23 -19 c12 -11 22 -31 22 -45 0 -13 6 -30 13 -37 6 -8 7
-11 1 -8 -9 5 -11 -14 -5 -42 1 -2 7 2 15 9 12 9 15 8 13 -9 0 -11 -4 -18 -8
-15 -4 2 -6 -3 -5 -12 1 -8 8 -19 15 -24 10 -6 11 -8 1 -12 -9 -3 -8 -8 4 -21
9 -9 19 -26 21 -37 2 -11 7 -25 11 -32 4 -6 3 -8 -2 -5 -5 3 -10 -3 -10 -14 0
-11 5 -18 11 -15 15 5 17 -36 2 -47 -8 -6 -5 -7 9 -4 13 3 21 -1 21 -9 0 -8
-5 -14 -10 -14 -5 0 -4 -7 3 -15 7 -8 9 -15 5 -15 -4 0 -1 -8 6 -17 12 -14 12
-15 1 -9 -12 7 -12 4 -1 -15 7 -13 12 -25 11 -26 -7 -10 0 -23 8 -18 6 3 10 1
10 -4 0 -6 -6 -11 -12 -11 -8 0 -6 -5 4 -10 13 -8 15 -17 8 -40 -5 -17 -5 -28
0 -25 5 3 7 -11 6 -30 -3 -27 0 -33 9 -25 10 8 15 7 21 -1 4 -8 3 -9 -4 -5 -7
4 -12 1 -12 -9 0 -9 4 -14 8 -11 5 3 9 -1 9 -9 0 -8 -5 -11 -11 -8 -7 5 -7 2
0 -8 15 -19 16 -80 1 -99 -11 -13 -10 -13 6 -1 16 13 18 12 13 -12 -2 -15 -1
-29 4 -32 5 -3 7 3 5 13 -2 10 1 25 7 33 8 11 9 10 4 -3 -3 -11 0 -18 7 -18 8
0 6 -4 -3 -10 -8 -5 -11 -10 -5 -10 5 0 4 -5 -3 -12 -8 -8 -8 -17 -1 -30 5
-10 7 -22 4 -27 -3 -5 0 -11 7 -13 6 -2 12 -12 14 -21 1 -9 -2 -15 -6 -12 -5
3 -11 1 -15 -5 -3 -5 -2 -10 4 -10 6 0 9 -17 7 -42 -4 -40 -4 -41 8 -19 9 15
16 20 20 12 4 -6 2 -11 -3 -11 -6 0 -11 -5 -11 -11 0 -5 6 -7 13 -3 6 4 4 -1
-5 -12 -14 -16 -14 -22 -4 -37 7 -9 11 -29 8 -43 -4 -21 -2 -25 9 -19 12 7 11
6 0 -9 -13 -15 -13 -19 0 -27 12 -7 12 -9 -1 -9 -11 0 -12 -2 -2 -8 7 -5 14
-18 17 -31 2 -14 0 -19 -7 -15 -7 5 -8 2 -3 -6 4 -7 2 -16 -6 -22 -10 -6 -6
-7 11 -3 24 6 24 5 6 -9 -11 -9 -14 -16 -7 -16 7 0 9 -5 5 -13 -6 -8 -3 -8 9
1 15 12 15 11 7 -17 -10 -35 -10 -33 1 -78 5 -22 3 -33 -5 -33 -6 0 -4 -5 4
-10 10 -6 11 -10 3 -10 -7 0 -13 -5 -13 -11 0 -5 5 -7 12 -3 8 5 9 2 5 -9 -7
-19 1 -49 12 -42 4 2 8 -2 8 -9 0 -8 -6 -12 -14 -9 -7 3 -13 0 -13 -6 0 -10
14 -15 33 -12 5 1 5 -4 0 -11 -10 -17 -13 -69 -3 -63 5 3 7 -2 6 -11 -1 -8 -9
-20 -17 -25 -11 -7 -10 -9 6 -9 15 0 17 -2 6 -9 -11 -7 -11 -9 0 -14 9 -4 10
-8 4 -14 -12 -10 -16 -45 -4 -37 5 3 9 -2 9 -11 0 -10 -5 -14 -12 -9 -10 5
-10 4 -1 -6 8 -9 9 -19 3 -31 -7 -12 -6 -20 2 -25 7 -4 8 -3 4 4 -11 18 0 14
15 -5 11 -14 12 -15 1 -9 -11 7 -13 1 -9 -28 3 -20 1 -33 -4 -30 -5 3 -9 0 -9
-5 0 -6 4 -11 10 -11 5 0 7 -7 4 -15 -4 -8 -11 -12 -17 -8 -6 3 -3 -4 6 -16 8
-13 13 -31 9 -40 -5 -14 -4 -15 14 -1 17 14 18 13 7 -1 -7 -9 -9 -20 -5 -24 4
-5 1 -5 -5 -1 -7 4 -13 2 -13 -3 0 -6 4 -11 9 -11 5 0 11 -7 14 -14 4 -11 1
-13 -11 -10 -15 5 -15 4 1 -6 9 -6 15 -15 12 -21 -3 -5 1 -6 10 -3 9 4 25 -2
36 -12 15 -13 20 -14 17 -4 -2 10 6 14 25 13 53 -1 58 -3 51 -15 -4 -7 1 -5
12 4 15 13 23 14 38 6 16 -9 18 -8 13 6 -5 13 -3 15 12 7 10 -6 33 -9 50 -6
17 2 29 0 26 -5 -3 -5 0 -12 7 -16 7 -4 10 -4 6 1 -10 11 11 37 24 29 5 -4 5
-11 -1 -18 -8 -9 -7 -13 4 -13 8 0 12 4 9 8 -2 4 0 10 6 14 5 3 10 0 10 -7 0
-8 5 -6 11 5 8 14 14 16 25 6 7 -6 21 -8 30 -5 14 5 15 4 5 -8 -9 -11 -9 -16
0 -22 7 -4 10 -3 6 2 -3 5 1 18 9 29 8 10 14 14 14 7 0 -7 12 -10 30 -8 17 2
30 -1 30 -8 0 -6 5 -3 11 7 8 14 14 16 25 6 7 -6 21 -8 30 -5 14 5 15 4 5 -8
-9 -11 -9 -16 0 -22 7 -4 10 -3 6 2 -3 5 1 18 9 29 8 10 14 14 14 7 0 -7 15
-10 40 -8 22 2 37 0 35 -5 -3 -4 0 -11 7 -15 7 -4 10 -4 6 1 -11 12 12 36 26
28 12 -8 18 -10 42 -12 9 -1 12 -6 8 -13 -4 -7 1 -5 12 4 15 13 23 14 38 6 16
-9 18 -8 13 6 -5 13 -3 15 12 7 10 -6 33 -9 50 -6 17 2 29 0 26 -5 -3 -5 0
-12 7 -16 7 -4 10 -4 6 1 -10 11 11 37 24 29 5 -4 5 -11 -1 -18 -8 -9 -7 -13
4 -13 8 0 12 4 9 8 -2 4 0 10 6 14 5 3 10 0 10 -7 0 -8 5 -6 11 5 8 14 14 16
25 6 7 -6 21 -8 30 -5 15 6 15 4 3 -11 -13 -17 -12 -17 6 -2 11 9 26 14 33 12
6 -3 12 0 12 6 0 6 -4 11 -10 11 -5 0 -10 5 -10 11 0 5 5 7 10 4 6 -3 10 1 10
9 0 9 -4 16 -10 16 -5 0 -10 5 -10 11 0 5 4 8 8 5 4 -2 8 4 8 14 0 10 -4 16
-9 13 -5 -3 -6 5 -3 18 l7 24 -16 -25 c-14 -22 -15 -22 -10 -3 3 12 1 24 -5
28 -6 3 -7 11 -4 17 4 6 0 14 -7 19 -11 7 -11 9 -1 9 8 0 6 8 -7 21 -15 17
-18 26 -10 40 7 13 6 19 -1 19 -6 0 -10 6 -9 12 3 26 -1 39 -11 33 -6 -4 -10
5 -10 19 0 14 -4 26 -9 26 -5 0 -12 7 -15 16 -3 8 -2 13 3 10 5 -3 12 1 15 10
3 8 2 12 -4 9 -6 -3 -10 1 -10 10 0 11 -5 15 -14 12 -11 -4 -13 1 -11 24 2 16
1 29 -3 29 -4 0 -8 9 -9 20 -1 11 3 20 8 20 6 0 7 5 3 11 -4 8 -12 3 -21 -12
-8 -13 -12 -16 -9 -6 3 9 0 17 -6 17 -7 0 -3 7 8 15 13 11 14 14 4 13 -11 -2
-15 6 -13 30 1 33 1 33 -20 15 -19 -16 -20 -16 -8 0 11 14 11 17 0 17 -11 0
-11 2 1 10 13 8 13 11 1 22 -11 11 -13 11 -6 -1 5 -8 4 -12 -1 -8 -11 7 -11
48 0 66 7 10 4 11 -14 1 -12 -6 -24 -9 -28 -6 -3 3 0 6 6 6 14 0 12 20 -5 37
-6 7 -9 23 -5 35 5 21 4 22 -13 8 -12 -10 -16 -10 -11 -2 4 7 2 20 -6 30 -12
16 -11 16 6 2 18 -14 19 -14 9 5 -11 20 -13 27 -13 45 0 5 -7 7 -16 3 -14 -5
-15 -3 -4 17 11 21 10 22 -6 16 -10 -4 -15 -4 -11 0 4 4 1 14 -6 22 -9 13 -9
14 1 8 7 -4 12 -1 12 9 0 9 -4 13 -10 10 -5 -3 -10 1 -10 9 0 9 -5 16 -11 16
-8 0 -7 6 2 17 8 9 9 14 3 10 -7 -4 -15 0 -18 9 -3 8 -2 13 3 10 5 -4 7 3 4
14 -5 18 -6 19 -22 2 -9 -10 -13 -13 -8 -8 11 16 8 28 -5 21 -7 -4 -4 1 6 9
18 15 18 16 2 16 -13 0 -16 5 -11 20 4 11 3 20 -2 19 -20 -3 -34 2 -28 11 4 6
11 7 17 4 7 -4 8 -2 4 5 -4 6 -11 9 -16 6 -4 -3 -10 2 -13 10 -4 10 -1 12 11
8 14 -5 15 -4 4 8 -7 8 -18 14 -24 14 -6 0 -13 11 -15 25 -2 19 -1 22 7 10 5
-8 10 -10 10 -5 -1 6 -7 19 -15 29 -8 10 -12 24 -8 30 3 6 3 8 -2 4 -4 -4 -14
4 -22 18 -16 32 -16 37 0 28 7 -5 7 -1 -3 12 -22 29 -24 30 -17 12 3 -10 3
-19 -1 -22 -7 -4 -12 18 -15 61 0 9 -4 10 -12 3 -9 -8 -11 -3 -7 17 4 20 1 25
-9 21 -11 -4 -14 3 -13 29 1 19 0 32 -3 29 -11 -10 -42 35 -36 51 4 10 2 14
-4 10 -6 -4 -14 0 -17 9 -9 25 -7 27 11 13 15 -13 15 -12 0 12 -10 14 -15 28
-12 31 3 2 -2 5 -10 5 -8 0 -15 -5 -15 -10 0 -6 -3 -7 -6 -4 -4 4 -1 14 7 24
8 9 9 14 4 11 -6 -4 -17 -3 -25 3 -8 5 -10 9 -4 9 6 0 11 7 11 15 0 9 -6 14
-13 11 -8 -3 -16 0 -20 6 -4 7 -3 8 4 4 17 -10 14 15 -3 38 -8 10 -12 23 -8
29 3 6 1 7 -6 3 -9 -6 -8 -14 4 -32 23 -35 10 -29 -16 8 -13 17 -18 28 -11 24
7 -4 12 -3 12 2 0 6 -7 12 -15 16 -8 3 -14 9 -13 13 5 18 -14 53 -25 46 -7 -4
-6 1 2 10 7 9 11 18 7 18 -3 1 -10 2 -15 3 -6 0 -16 7 -23 15 -9 9 -9 12 -1 7
9 -5 10 0 2 24 -6 16 -18 30 -26 30 -8 0 -11 5 -8 10 3 6 2 10 -4 10 -5 0 -8
9 -6 20 2 13 -2 20 -11 20 -8 0 -12 -4 -9 -10 3 -5 1 -10 -4 -10 -14 0 -14 6
0 32 10 18 9 20 -5 15 -14 -6 -15 -3 -5 16 11 19 10 20 -2 10 -12 -10 -17 -8
-28 9 -7 11 -9 18 -4 15 5 -3 9 3 9 13 0 12 -7 17 -22 15 -16 -1 -20 2 -17 16
3 11 -2 19 -17 24 -17 5 -19 10 -9 21 7 9 8 14 1 14 -6 0 -14 9 -17 20 -3 11
-11 20 -16 20 -6 0 -7 -6 -3 -12 4 -7 3 -10 -1 -5 -5 4 -10 17 -12 29 -2 12
-9 26 -16 30 -9 6 -9 10 1 17 11 7 11 9 -1 14 -8 3 -20 0 -27 -6 -10 -9 -9 -6
0 13 13 24 12 24 -5 10 -10 -8 -16 -10 -13 -5 11 19 -11 58 -28 51 -13 -5 -14
-3 -6 6 11 14 -10 43 -22 31 -3 -4 -6 1 -6 10 0 10 -5 17 -11 17 -8 0 -7 6 2
17 10 11 10 14 2 9 -8 -4 -13 -2 -13 5 0 7 -3 10 -6 6 -4 -3 -13 0 -20 8 -18
18 -18 26 1 19 8 -4 15 -2 15 3 0 5 -7 10 -15 11 -8 1 -21 3 -29 4 -8 1 -12 8
-8 16 3 10 1 13 -6 8 -7 -4 -12 -1 -12 9 0 10 5 13 12 9 7 -4 8 -3 4 5 -6 9
-12 9 -24 -1 -10 -7 -14 -8 -9 -3 4 4 0 19 -8 32 -9 13 -13 29 -8 36 4 7 0 6
-11 -2 -9 -8 -16 -9 -14 -3 2 6 -6 18 -17 27 -11 9 -13 13 -5 10 8 -4 2 4 -14
19 -16 14 -33 26 -38 26 -4 0 -8 7 -8 15 0 8 -5 15 -11 15 -8 0 -8 4 0 14 9
11 7 12 -12 9 -17 -3 -26 1 -31 13 -6 15 -4 15 11 3 16 -13 17 -12 4 4 -8 10
-20 16 -27 13 -8 -3 -11 0 -7 10 4 10 0 12 -12 8 -15 -6 -16 -4 -7 13 9 15 8
20 -3 20 -8 0 -11 -5 -8 -10 4 -6 1 -7 -6 -3 -7 5 -10 14 -7 22 3 8 0 11 -10
7 -11 -4 -15 0 -12 13 2 10 -3 19 -9 20 -7 1 -17 2 -22 3 -5 0 -11 10 -14 21
-3 13 -10 18 -21 14 -12 -4 -15 -2 -11 9 4 8 -1 17 -10 21 -10 4 -14 2 -9 -6
5 -7 3 -8 -5 -4 -7 5 -10 15 -7 23 3 8 1 11 -4 8 -6 -4 -23 5 -39 18 -23 19
-27 27 -18 37 9 10 6 9 -13 0 -24 -13 -24 -12 -10 5 14 17 13 18 -7 13 -21 -6
-28 2 -24 25 1 5 -3 6 -9 2 -5 -3 -10 -1 -10 5 0 6 -6 10 -12 9 -19 -3 -48 11
-48 23 0 7 5 6 13 -1 10 -8 14 -7 14 4 0 8 -4 12 -8 9 -5 -3 -16 4 -25 15 -13
15 -22 17 -36 10 -14 -8 -16 -6 -11 8 5 13 3 15 -12 10 -16 -7 -16 -5 -4 10 8
9 9 14 3 10 -6 -4 -19 2 -29 13 -9 10 -23 16 -31 13 -8 -3 -14 0 -14 6 0 6 -3
10 -7 10 -5 -1 -14 -1 -22 0 -11 1 -11 4 0 18 13 15 12 15 -8 4 -20 -10 -23
-9 -24 6 0 16 -1 16 -9 -2 -8 -19 -9 -19 -9 -1 -1 16 -3 17 -18 5 -15 -11 -16
-11 -5 1 17 19 15 31 -3 23 -10 -3 -15 -1 -13 7 2 7 -3 15 -10 17 -6 3 -10 -1
-9 -9 2 -7 2 -10 0 -5 -3 4 -9 5 -13 2 -5 -3 -12 -1 -15 5 -4 6 -1 9 7 8 7 -2
12 3 11 10 -3 14 18 12 30 -3 6 -6 10 -6 14 3 6 16 26 16 20 -1 -3 -8 -1 -20
5 -28 8 -11 9 -10 4 4 -6 19 10 24 17 5 4 -10 6 -10 6 0 1 6 6 12 12 12 5 0 7
-6 3 -12 -5 -9 -2 -8 9 1 15 12 17 12 11 -4 -6 -15 -4 -16 13 -7 14 8 23 8 31
0 14 -14 44 -20 36 -7 -3 5 -10 6 -16 3 -7 -4 -8 -2 -4 5 6 9 11 9 22 0 8 -6
14 -8 14 -4 0 5 8 1 18 -8 10 -10 22 -14 25 -10 4 3 7 -2 8 -13 0 -11 3 -14 6
-6 4 10 9 9 24 -4 10 -9 19 -13 19 -8 0 5 5 2 11 -6 9 -13 10 -12 5 3 -7 23 1
22 40 -8 25 -19 32 -21 27 -9 -4 12 -3 15 5 10 7 -4 12 -14 12 -22 0 -8 8 -14
18 -14 14 0 15 2 2 10 -8 5 -10 10 -5 10 6 -1 18 -7 28 -15 11 -7 28 -12 40
-9 16 3 18 1 9 -8 -7 -7 -12 -17 -12 -22 0 -6 5 -5 12 2 15 15 31 16 22 1 -4
-7 -1 -10 7 -7 8 3 20 -2 27 -11 8 -9 11 -10 7 -3 -4 7 0 12 10 12 9 0 14 -4
11 -9 -3 -5 2 -15 11 -22 9 -8 14 -9 10 -2 -10 17 20 10 44 -10 11 -10 17 -22
14 -26 -3 -5 3 -8 12 -6 10 2 18 4 18 5 0 1 8 3 18 5 9 2 15 -1 11 -6 -3 -5
-10 -7 -15 -4 -5 3 -6 -1 -3 -10 5 -13 9 -13 22 -3 13 11 15 10 9 -4 -4 -12
-2 -15 8 -12 7 3 19 -4 25 -16 6 -11 15 -18 19 -16 13 8 81 -14 81 -26 0 -9
-3 -9 -12 0 -7 7 -16 12 -22 12 -5 0 -1 -6 10 -14 13 -10 23 -11 31 -4 10 8
13 6 13 -6 0 -11 5 -14 12 -10 7 5 9 2 6 -8 -4 -8 0 -15 8 -15 7 0 11 4 7 9
-6 11 43 -15 70 -35 9 -8 17 -20 17 -26 0 -7 5 -9 10 -6 6 3 10 1 10 -4 0 -6
9 -11 20 -11 11 0 20 -5 20 -11 0 -5 5 -7 10 -4 6 3 10 1 10 -5 0 -6 5 -8 12
-4 8 5 9 2 5 -9 -3 -9 -1 -19 5 -23 7 -4 8 -3 4 4 -4 7 -3 12 3 12 5 0 13 -9
16 -20 5 -16 10 -18 25 -10 16 8 18 6 15 -15 -1 -14 2 -25 6 -25 5 0 9 8 9 18
0 14 2 15 9 2 6 -8 8 -17 5 -21 -2 -4 7 -6 21 -4 22 2 23 0 13 -13 -11 -13
-10 -15 10 -10 19 5 21 4 11 -8 -12 -15 -8 -17 34 -17 20 0 22 -8 5 -26 -11
-11 -9 -11 9 -2 18 9 23 8 28 -9 3 -11 13 -20 21 -20 8 0 12 -4 9 -10 -8 -14
8 -13 22 1 9 9 10 6 6 -11 -4 -16 -3 -21 5 -16 8 4 12 0 12 -11 0 -14 2 -15 9
-4 7 11 10 9 13 -10 2 -16 9 -24 23 -24 22 0 55 -24 55 -40 0 -5 14 -16 30
-23 17 -8 30 -20 30 -27 0 -17 34 -37 45 -27 5 4 5 1 1 -5 -7 -12 5 -18 27
-14 5 1 6 -3 2 -9 -3 -6 -11 -8 -16 -5 -22 14 -6 -3 24 -25 l32 -23 -20 24
-20 24 23 -19 c12 -11 22 -25 22 -33 0 -7 5 -13 11 -13 5 0 7 4 4 10 -4 6 1 7
11 3 11 -4 13 -8 6 -11 -22 -7 -12 -19 20 -26 26 -5 29 -8 17 -19 -8 -6 -12
-11 -10 -9 2 1 14 -6 25 -15 20 -18 20 -17 6 2 -14 18 -13 19 1 8 9 -7 19 -9
24 -5 4 4 3 -2 -3 -14 -10 -18 -7 -23 13 -34 14 -7 25 -17 25 -22 0 -4 5 -8
11 -8 5 0 7 5 4 10 -3 6 -1 10 4 10 15 0 14 -13 -1 -29 -11 -11 -10 -13 0 -7
7 4 15 0 18 -9 6 -14 9 -14 16 -3 7 9 8 7 5 -10 -3 -14 -1 -20 6 -15 6 4 8 0
5 -9 -4 -9 0 -15 8 -15 9 0 13 6 10 14 -3 8 -1 11 4 8 6 -3 10 -15 10 -27 0
-16 5 -19 23 -15 21 6 21 6 3 -8 -18 -14 -18 -15 -2 -15 22 0 49 -26 41 -40
-4 -6 1 -7 11 -3 13 5 15 3 9 -7 -6 -10 -4 -12 8 -7 10 4 14 2 11 -6 -2 -7 7
-23 21 -35 27 -23 40 -29 30 -12 -3 6 -1 10 4 10 15 0 14 -13 -1 -29 -11 -11
-10 -12 1 -6 11 6 13 4 7 -10 -5 -15 -4 -16 9 -5 9 7 15 9 14 4 -5 -26 1 -36
15 -25 11 9 13 6 9 -16 -3 -24 -2 -25 6 -8 9 19 10 19 10 -4 1 -16 5 -21 15
-18 10 4 13 1 9 -9 -3 -8 1 -14 10 -14 9 0 19 -5 23 -12 4 -7 3 -8 -4 -4 -8 5
-10 2 -6 -8 3 -9 12 -16 19 -16 8 0 17 -9 20 -21 5 -15 13 -19 28 -15 21 5 21
5 3 -9 -19 -15 -19 -15 1 -15 26 0 38 -14 42 -52 1 -9 4 -8 11 2 8 12 10 11
10 -7 0 -13 5 -23 10 -23 6 0 10 -7 10 -16 0 -8 4 -13 9 -9 5 3 12 -4 16 -15
3 -11 13 -20 22 -20 10 0 14 -6 10 -19 -3 -14 -1 -18 9 -14 8 3 14 0 14 -7 0
-6 5 -8 13 -4 8 5 7 2 -2 -9 -12 -15 -12 -17 3 -11 12 5 15 2 9 -12 -3 -9 -2
-15 3 -12 5 3 19 -5 31 -18 15 -15 18 -24 10 -27 -7 -3 -4 -6 6 -6 12 -1 16
-5 11 -13 -5 -9 -2 -8 9 1 15 12 17 12 11 -3 -3 -9 -1 -16 5 -16 7 0 17 -13
22 -30 6 -16 15 -27 20 -24 8 5 13 -9 10 -28 0 -5 5 -8 12 -8 8 0 21 -8 30
-18 13 -14 14 -21 5 -30 -9 -9 -6 -10 11 -7 20 4 21 2 9 -12 -11 -14 -10 -15
11 -8 15 4 21 4 17 -3 -8 -14 4 -43 15 -36 8 5 14 -18 10 -40 -1 -5 5 -3 14 4
13 11 14 10 9 -5 -5 -12 -4 -16 4 -11 6 3 13 -3 17 -14 3 -11 9 -19 13 -19 20
3 23 -3 11 -18 -10 -11 -10 -14 -1 -9 7 4 12 2 12 -4 0 -6 4 -8 10 -5 6 3 7
-1 4 -9 -4 -11 0 -16 10 -16 9 0 16 -5 16 -11 0 -5 -5 -7 -12 -3 -7 4 -8 3 -4
-4 4 -7 14 -12 22 -12 8 0 13 -6 11 -12 -1 -7 3 -12 10 -11 12 2 12 -14 1 -33
-4 -6 -1 -11 7 -11 8 0 12 4 9 9 -3 4 0 8 5 8 6 0 11 -12 11 -27 0 -22 2 -25
10 -13 8 12 10 11 10 -7 0 -13 4 -23 10 -23 5 0 7 -7 4 -15 -5 -11 -2 -13 10
-9 11 4 16 1 16 -10 0 -9 5 -16 11 -16 5 0 7 -5 3 -12 -5 -7 -2 -9 9 -5 11 4
15 1 12 -12 -3 -18 29 -54 39 -44 3 3 4 -4 1 -15 -3 -16 0 -19 12 -15 10 4 14
2 10 -4 -4 -6 -1 -18 7 -26 8 -8 12 -17 9 -21 -4 -3 2 -6 13 -6 16 0 17 -2 4
-10 -12 -8 -11 -10 8 -10 12 0 22 -4 22 -10 0 -5 -8 -7 -17 -4 -10 4 -4 -3 12
-15 17 -11 26 -21 21 -21 -6 0 -1 -6 10 -14 14 -11 21 -11 27 -3 5 7 6 3 2 -9
-4 -14 0 -24 9 -27 10 -4 13 -1 9 10 -3 8 0 18 6 23 9 5 8 11 -4 24 -15 15
-15 16 2 16 15 0 16 2 3 10 -9 6 -10 10 -3 10 6 0 11 9 10 19 0 11 -5 17 -9
15 -5 -3 -5 -10 -2 -16 4 -7 2 -8 -4 -4 -15 9 -3 36 17 36 11 1 8 5 -9 15 -19
11 -21 14 -8 15 11 0 15 5 12 14 -3 8 0 17 5 21 8 4 5 16 -9 35 l-20 28 22 -5
c20 -4 21 -3 5 7 -10 7 -14 16 -10 23 12 18 11 61 -1 69 -7 5 -7 8 2 8 6 0 12
5 12 11 0 5 -5 7 -12 3 -7 -5 -8 -3 -2 7 13 21 14 42 2 56 -6 7 -7 13 -2 13 5
0 7 23 5 51 -2 40 0 50 9 44 9 -5 11 -4 6 4 -4 6 -11 9 -16 6 -5 -3 -11 -1
-15 5 -3 5 1 10 10 10 13 0 14 4 5 20 -9 17 -8 20 7 20 14 1 13 4 -7 15 -19
11 -21 14 -8 15 11 0 15 5 12 14 -3 8 0 17 5 21 8 4 5 16 -9 35 l-20 28 22 -5
c20 -4 21 -3 6 7 -10 6 -18 16 -18 21 0 6 4 8 9 5 5 -4 8 2 7 11 -2 10 2 22 8
26 7 6 5 7 -5 4 -9 -3 -16 1 -16 9 0 7 5 10 11 7 6 -4 5 1 -3 10 -7 9 -10 17
-5 17 5 0 9 20 9 44 0 25 -4 42 -9 39 -5 -4 -6 0 0 8 13 21 14 42 2 56 -6 8
-6 13 -1 13 6 0 7 18 3 45 -4 24 -3 42 1 40 11 -7 6 49 -6 57 -6 5 -5 8 3 8 6
0 12 5 12 11 0 5 -5 7 -12 3 -7 -5 -8 -3 -2 7 13 21 14 42 2 56 -6 7 -7 13 -2
13 5 0 7 23 5 51 -2 40 0 50 9 44 9 -5 11 -4 6 4 -4 6 -11 9 -16 6 -5 -3 -11
-1 -15 5 -3 5 1 10 9 10 12 0 14 5 6 26 -6 14 -6 23 -1 20 12 -8 9 47 -4 56
-6 5 -5 8 3 8 6 0 12 5 12 11 0 5 -6 7 -12 3 -10 -6 -10 -4 -2 7 7 8 10 27 8
44 -2 16 2 36 9 45 6 8 1 6 -12 -5 -14 -11 -21 -14 -16 -6 4 8 9 24 11 37 2
18 -2 22 -18 19 -17 -4 -18 -2 -6 12 11 14 10 15 -12 8 -23 -7 -24 -7 -10 10
8 11 10 16 3 12 -6 -4 -15 -2 -18 4 -4 5 -13 8 -21 5 -8 -3 -14 1 -14 10 0 11
-6 13 -20 9 -16 -5 -19 -3 -13 12 6 16 5 16 -10 5 -14 -12 -16 -11 -12 8 3 18
2 20 -10 10 -12 -10 -15 -8 -15 10 0 13 -3 20 -7 17 -3 -4 -13 -1 -21 6 -13
10 -14 9 -7 -3 6 -12 5 -12 -5 -3 -7 6 -20 9 -29 6 -12 -4 -11 -2 3 9 15 12
16 17 6 23 -9 5 -11 4 -6 -3 4 -7 2 -12 -3 -12 -6 0 -11 6 -11 13 0 8 -4 7
-10 -3 -8 -13 -10 -13 -10 2 0 12 -6 16 -22 13 -23 -4 -23 -4 -3 11 19 15 19
15 -7 9 -19 -5 -28 -3 -28 5 0 7 -7 10 -14 7 -11 -4 -13 -1 -9 10 5 12 3 14
-7 8 -10 -6 -12 -4 -6 10 5 15 4 16 -9 5 -12 -10 -15 -10 -15 0 0 10 -3 10
-15 0 -21 -17 -19 -5 3 16 16 17 16 17 0 11 -10 -3 -20 -1 -24 4 -3 6 -14 9
-24 6 -14 -4 -17 0 -15 14 2 11 0 17 -6 13 -5 -3 -17 0 -26 8 -9 7 -14 8 -11
3 4 -6 -2 -11 -12 -11 -11 0 -17 2 -15 5 3 2 -1 11 -8 20 -11 14 -10 15 8 1
17 -12 18 -12 7 0 -7 8 -20 15 -30 15 -9 0 -16 6 -14 14 2 11 0 12 -11 3 -11
-9 -19 -7 -36 9 -12 11 -28 18 -36 15 -10 -3 -12 0 -8 11 5 13 2 15 -15 11
-12 -3 -20 -2 -19 4 1 5 -8 17 -20 25 -15 10 -23 12 -23 4 0 -8 -4 -8 -14 1
-8 7 -11 18 -8 23 3 6 -3 3 -13 -5 -15 -12 -17 -12 -10 -1 6 11 4 13 -9 8 -14
-5 -17 -3 -12 8 3 8 0 14 -7 12 -7 -1 -11 4 -9 11 1 8 -2 11 -8 7 -5 -3 -10 0
-10 7 0 10 -2 10 -8 1 -11 -17 -55 13 -45 30 4 8 1 7 -9 -1 -12 -9 -18 -10
-23 -2 -4 7 -16 10 -26 7 -20 -5 -43 15 -31 28 4 4 -3 4 -15 1 -12 -4 -24 -2
-29 5 -5 8 -3 9 6 4 9 -5 11 -4 6 4 -6 9 -14 8 -34 -5 -15 -9 -21 -11 -14 -3
15 16 16 39 1 39 -5 0 -7 -6 -3 -12 5 -9 2 -9 -9 1 -9 7 -17 10 -17 7 0 -4
-12 6 -26 21 -14 15 -23 23 -20 17 3 -7 -1 -14 -9 -17 -9 -4 -12 -1 -8 9 4 10
0 12 -13 7 -12 -4 -15 -3 -10 5 5 8 1 10 -10 5 -12 -4 -15 -3 -10 5 5 8 1 10
-10 5 -13 -5 -15 -3 -9 8 7 11 5 11 -10 -1 -11 -9 -16 -10 -11 -2 4 8 1 12
-10 12 -9 0 -25 10 -35 22 -18 20 -28 13 -11 -8 4 -5 0 -1 -10 8 -9 10 -18 14
-20 8 -2 -6 -13 -2 -24 9 -17 15 -24 17 -33 8 -10 -9 -12 -9 -9 3 2 8 -3 14
-9 12 -7 -1 -13 4 -13 10 0 9 -4 8 -10 -2 -8 -13 -10 -13 -10 1 0 24 -26 44
-36 28 -5 -8 -3 -9 6 -4 8 5 11 4 7 -3 -9 -13 -57 8 -50 23 2 5 -2 2 -9 -7
-13 -15 -15 -15 -28 5 -12 21 -12 21 6 7 18 -14 18 -14 5 2 -10 14 -18 15 -32
7 -14 -7 -19 -6 -19 2 0 6 -7 9 -15 5 -10 -4 -15 1 -15 15 0 17 -3 18 -21 8
-12 -6 -19 -7 -15 -1 8 13 -17 22 -35 12 -15 -10 -42 7 -33 21 3 5 -2 9 -10 9
-10 0 -14 -6 -10 -17 2 -10 -1 -8 -7 5 -7 12 -16 22 -21 22 -5 0 -6 -6 -2 -12
4 -7 -3 -3 -15 9 -20 21 -51 22 -51 2 0 -5 -5 -9 -12 -9 -6 0 -4 7 5 18 15 16
15 19 2 19 -8 0 -15 -5 -15 -11 0 -6 -7 -2 -15 8 -8 11 -15 14 -15 8 0 -7 -4
-12 -10 -12 -5 0 -6 8 -3 18 6 15 5 15 -10 3 -10 -7 -17 -9 -17 -3 0 6 -11 9
-25 8 -13 -2 -22 0 -20 5 3 4 1 10 -4 13 -5 4 -13 1 -16 -5 -4 -5 -14 -7 -24
-4 -9 4 -24 8 -34 10 -9 2 -24 11 -33 19 -17 17 -28 21 -20 7 3 -4 -6 -6 -19
-3 -14 2 -22 8 -20 12 3 5 1 11 -4 14 -5 4 -13 1 -17 -5 -5 -8 -3 -9 7 -4 8 5
10 4 6 0 -14 -16 -36 -13 -32 4 2 10 -3 18 -10 18 -7 0 -11 -6 -8 -14 3 -7 0
-13 -6 -13 -10 0 -15 12 -13 31 1 7 -62 4 -76 -5 -6 -3 -13 -2 -17 3 -3 5 -14
8 -25 6 -12 -2 -20 2 -20 10 0 18 -25 26 -39 12 -7 -7 -11 -7 -11 -1 0 12 -29
12 -49 -1 -11 -6 -13 -4 -8 8 4 12 2 14 -11 10 -9 -3 -23 -11 -31 -17 -8 -6
-12 -7 -10 -1 3 6 -2 18 -13 28 -10 9 -18 12 -18 6 0 -7 -5 -8 -12 -3 -16 11
-39 11 -57 0 -9 -6 -12 -5 -8 1 7 11 -22 28 -31 18 -3 -3 0 -5 6 -5 7 0 12 -5
12 -11 0 -7 -9 -5 -24 4 -17 12 -26 13 -35 4 -8 -8 -11 -8 -11 1 0 9 -5 10
-17 3 -13 -7 -23 -5 -37 7 -11 9 -16 12 -13 5 4 -6 3 -14 -3 -18 -5 -3 -10 -2
-10 4 0 6 -7 7 -17 4 -12 -5 -14 -3 -8 8 5 8 0 6 -12 -4 -16 -14 -23 -15 -29
-6 -5 8 -3 10 6 4 9 -6 11 -4 5 5 -6 10 -10 10 -20 -3 -10 -14 -12 -14 -23 1
-7 9 -10 12 -7 6 2 -7 -2 -15 -11 -18 -9 -3 -12 -2 -9 4 7 12 -36 7 -57 -6
-10 -6 -10 -4 0 8 10 13 10 18 1 24 -8 4 -9 3 -5 -4 4 -7 2 -13 -3 -13 -21 -3
-26 -4 -40 -13 -9 -6 -12 -5 -8 1 4 6 0 14 -9 17 -10 4 -13 2 -8 -6 5 -8 2 -9
-9 -5 -9 3 -19 2 -22 -3 -8 -13 -25 -13 -25 1 0 5 5 7 12 3 7 -4 8 -3 4 5 -6
9 -11 9 -22 0 -13 -10 -18 -6 -15 14 2 10 -7 9 -14 -3z m595 -50 c0 -5 -5 -10
-11 -10 -5 0 -7 5 -4 10 3 6 8 10 11 10 2 0 4 -4 4 -10z m-850 -46 c0 -8 -19
-13 -24 -6 -3 5 1 9 9 9 8 0 15 -2 15 -3z m1140 0 c0 -8 -19 -13 -24 -6 -3 5
1 9 9 9 8 0 15 -2 15 -3z m-656 -30 c3 -8 2 -12 -4 -9 -6 3 -10 10 -10 16 0
14 7 11 14 -7z m-439 -19 c-2 -11 -4 -20 -5 -20 -1 0 -3 -8 -5 -18 -3 -14 0
-16 9 -8 7 6 16 8 20 4 4 -4 11 -1 16 7 7 12 9 11 8 -5 -2 -15 -9 -20 -32 -20
-27 0 -31 4 -30 25 1 14 -3 28 -10 32 -7 5 -6 8 4 8 13 0 13 1 0 10 -12 7 -10
9 7 7 17 -1 21 -6 18 -22z m23 -8 c1 -15 -4 -24 -13 -24 -8 0 -11 5 -7 11 4 6
7 14 8 19 5 25 9 23 12 -6z m-2958 -11 c0 -3 -4 -8 -10 -11 -5 -3 -10 -1 -10
4 0 6 5 11 10 11 6 0 10 -2 10 -4z m3250 -38 c0 -5 -7 -3 -15 6 -8 8 -15 18
-15 22 0 3 7 1 15 -6 8 -7 15 -17 15 -22z m-3066 -7 c-3 -4 -9 -6 -12 -6 -4 0
-12 -3 -18 -7 -6 -4 -11 -1 -11 5 0 7 11 13 23 13 13 0 21 -2 18 -5z m4291
-11 c3 -5 1 -10 -4 -10 -6 0 -11 5 -11 10 0 6 2 10 4 10 3 0 8 -4 11 -10z
m-1335 -16 c0 -8 -19 -13 -24 -6 -3 5 1 9 9 9 8 0 15 -2 15 -3z m183 -8 c4
-10 1 -13 -8 -9 -8 3 -12 9 -9 14 7 12 11 11 17 -5z m-2763 -38 c0 -4 -4 -8
-9 -8 -6 0 -12 4 -15 8 -3 5 1 9 9 9 8 0 15 -4 15 -9z m2515 -8 c3 -6 -1 -7
-9 -4 -18 7 -21 14 -7 14 6 0 13 -4 16 -10z m782 -52 c2 -17 0 -19 -7 -8 -5 8
-6 18 -4 22 8 12 10 10 11 -14z m-2050 -14 c-3 -3 -12 -4 -19 -1 -8 3 -5 6 6
6 11 1 17 -2 13 -5z m1323 -99 c7 -9 8 -15 2 -15 -5 0 -12 7 -16 15 -3 8 -4
15 -2 15 2 0 9 -7 16 -15z m2025 -34 c3 -5 2 -12 -3 -15 -5 -3 -9 1 -9 9 0 17
3 19 12 6z m-1800 -39 c-3 -3 -11 0 -18 7 -9 10 -8 11 6 5 10 -3 15 -9 12 -12z
m2020 -72 c3 -5 1 -10 -4 -10 -6 0 -11 5 -11 10 0 6 2 10 4 10 3 0 8 -4 11
-10z m60 -30 c3 -5 1 -10 -4 -10 -6 0 -11 5 -11 10 0 6 2 10 4 10 3 0 8 -4 11
-10z m-3675 -131 c0 -15 -18 -19 -23 -6 -3 8 1 14 9 14 8 0 14 -4 14 -8z m954
-28 c3 -5 -2 -15 -12 -22 -15 -12 -16 -12 -5 2 7 9 10 19 6 22 -3 4 -4 7 0 7
3 0 8 -4 11 -9z m-1074 -11 c0 -5 -2 -10 -4 -10 -3 0 -8 5 -11 10 -3 6 -1 10
4 10 6 0 11 -4 11 -10z m2890 6 c0 -3 -4 -8 -10 -11 -5 -3 -10 -1 -10 4 0 6 5
11 10 11 6 0 10 -2 10 -4z m1315 -66 c3 -6 -1 -7 -9 -4 -18 7 -21 14 -7 14 6
0 13 -4 16 -10z m-1171 -48 c3 -5 -1 -9 -9 -9 -8 0 -12 4 -9 9 3 4 7 8 9 8 2
0 6 -4 9 -8z m-3939 -81 c3 -5 2 -12 -3 -15 -5 -3 -9 1 -9 9 0 17 3 19 12 6z
m2505 -11 c0 -5 -5 -10 -11 -10 -5 0 -7 5 -4 10 3 6 8 10 11 10 2 0 4 -4 4
-10z m-2760 -40 c0 -5 -4 -10 -10 -10 -5 0 -10 5 -10 10 0 6 5 10 10 10 6 0
10 -4 10 -10z m-307 -23 c3 -8 -1 -14 -8 -14 -7 0 -11 6 -8 14 3 7 6 13 8 13
2 0 5 -6 8 -13z m2387 -17 c0 -5 -5 -10 -11 -10 -5 0 -7 5 -4 10 3 6 8 10 11
10 2 0 4 -4 4 -10z m2335 -40 c-3 -5 -1 -10 6 -10 7 0 10 -3 6 -6 -9 -9 -28 6
-22 17 4 5 8 9 11 9 3 0 2 -4 -1 -10z m250 -258 c-3 -3 -11 0 -18 7 -9 10 -8
11 6 5 10 -3 15 -9 12 -12z m-3645 -51 c0 -5 -7 -12 -16 -15 -14 -5 -15 -4 -4
9 14 17 20 19 20 6z m-56 -39 c3 -5 -1 -9 -9 -9 -8 0 -12 4 -9 9 3 4 7 8 9 8
2 0 6 -4 9 -8z m824 -26 c-7 -8 -15 -12 -17 -11 -5 6 10 25 20 25 5 0 4 -6 -3
-14z m-143 -166 c-3 -5 -12 -10 -18 -10 -7 0 -6 4 3 10 19 12 23 12 15 0z
m1749 -218 c3 -5 -1 -9 -9 -9 -8 0 -12 4 -9 9 3 4 7 8 9 8 2 0 6 -4 9 -8z
m-635 -41 c8 -14 6 -23 -12 -37 -12 -11 -17 -12 -11 -4 6 8 10 25 9 38 -2 27
1 28 14 3z m-2984 -90 c3 -5 2 -12 -3 -15 -5 -3 -9 1 -9 9 0 17 3 19 12 6z
m6029 -60 c3 -5 -2 -15 -12 -22 -15 -13 -16 -12 -4 3 10 13 10 17 0 21 -9 4
-9 6 -1 6 6 1 14 -3 17 -8z m0 -480 c3 -5 -2 -15 -12 -22 -15 -13 -16 -12 -4
3 10 13 10 17 0 21 -9 4 -9 6 -1 6 6 1 14 -3 17 -8z m-5180 -102 c-3 -5 -10
-7 -15 -3 -5 3 -7 10 -3 15 3 5 10 7 15 3 5 -3 7 -10 3 -15z m-64 -53 c0 -3
-4 -8 -10 -11 -5 -3 -10 -1 -10 4 0 6 5 11 10 11 6 0 10 -2 10 -4z m-620 -456
c0 -5 -5 -10 -11 -10 -5 0 -7 5 -4 10 3 6 8 10 11 10 2 0 4 -4 4 -10z m-80
-59 c0 -5 -7 -12 -16 -15 -14 -5 -15 -4 -4 9 14 17 20 19 20 6z m3710 -23 c0
-6 -6 -5 -15 2 -8 7 -15 14 -15 16 0 2 7 1 15 -2 8 -4 15 -11 15 -16z"/>
<path d="M3509 3508 c-3 -11 -5 -48 -3 -48 11 0 23 40 14 45 -5 3 -10 5 -11 3z"/>
<path d="M4506 3488 c3 -5 10 -6 15 -3 13 9 11 12 -6 12 -8 0 -12 -4 -9 -9z"/>
<path d="M3850 3444 c0 -8 5 -12 10 -9 6 4 8 11 5 16 -9 14 -15 11 -15 -7z"/>
<path d="M3570 3442 c0 -4 10 -13 23 -21 22 -14 22 -14 3 8 -20 22 -26 25 -26
13z"/>
<path d="M4786 3427 c3 -8 11 -14 19 -14 20 0 19 4 -5 17 -15 8 -18 8 -14 -3z"/>
<path d="M3410 3398 c0 -4 4 -8 9 -8 6 0 12 4 15 8 3 5 -1 9 -9 9 -8 0 -15 -4
-15 -9z"/>
<path d="M3987 3399 c7 -7 15 -10 18 -7 3 3 -2 9 -12 12 -14 6 -15 5 -6 -5z"/>
<path d="M3606 3371 c-3 -5 2 -15 12 -22 15 -12 16 -12 5 2 -7 9 -10 19 -6 22
3 4 4 7 0 7 -3 0 -8 -4 -11 -9z"/>
<path d="M3518 3323 c7 -3 16 -2 19 1 4 3 -2 6 -13 5 -11 0 -14 -3 -6 -6z"/>
<path d="M1795 3231 c-3 -5 -2 -12 3 -15 5 -3 9 1 9 9 0 17 -3 19 -12 6z"/>
<path d="M1890 3226 c0 -2 7 -7 16 -10 8 -3 12 -2 9 4 -6 10 -25 14 -25 6z"/>
<path d="M5495 3180 c3 -5 8 -10 11 -10 2 0 4 5 4 10 0 6 -5 10 -11 10 -5 0
-7 -4 -4 -10z"/>
<path d="M4075 3170 c3 -5 8 -10 11 -10 2 0 4 5 4 10 0 6 -5 10 -11 10 -5 0
-7 -4 -4 -10z"/>
<path d="M4583 3107 c0 -7 9 -13 19 -13 10 0 18 1 18 3 0 1 -8 7 -18 12 -13 7
-19 6 -19 -2z"/>
<path d="M3171 3027 c-13 -21 -12 -21 5 -5 10 10 16 20 13 22 -3 3 -11 -5 -18
-17z"/>
<path d="M2865 3030 c-3 -5 -1 -10 4 -10 6 0 11 5 11 10 0 6 -2 10 -4 10 -3 0
-8 -4 -11 -10z"/>
<path d="M6220 2826 c0 -2 8 -10 18 -17 15 -13 16 -12 3 4 -13 16 -21 21 -21
13z"/>
<path d="M5170 2676 c0 -2 8 -10 18 -17 15 -13 16 -12 3 4 -13 16 -21 21 -21
13z"/>
<path d="M350 2461 c0 -6 4 -13 10 -16 6 -3 7 1 4 9 -7 18 -14 21 -14 7z"/>
<path d="M2456 2393 c-6 -14 -5 -15 5 -6 7 7 10 15 7 18 -3 3 -9 -2 -12 -12z"/>
<path d="M3385 2160 c-3 -6 1 -7 9 -4 18 7 21 14 7 14 -6 0 -13 -4 -16 -10z"/>
<path d="M4310 2060 c0 -5 5 -10 11 -10 5 0 7 5 4 10 -3 6 -8 10 -11 10 -2 0
-4 -4 -4 -10z"/>
<path d="M1890 2039 c0 -5 5 -7 10 -4 6 3 10 8 10 11 0 2 -4 4 -10 4 -5 0 -10
-5 -10 -11z"/>
<path d="M5930 1916 c0 -2 7 -7 16 -10 8 -3 12 -2 9 4 -6 10 -25 14 -25 6z"/>
<path d="M5135 1721 c-3 -5 -2 -12 3 -15 5 -3 9 1 9 9 0 17 -3 19 -12 6z"/>
<path d="M6195 1600 c3 -5 8 -10 11 -10 2 0 4 5 4 10 0 6 -5 10 -11 10 -5 0
-7 -4 -4 -10z"/>
<path d="M896 1588 c3 -5 10 -6 15 -3 13 9 11 12 -6 12 -8 0 -12 -4 -9 -9z"/>
<path d="M835 1570 c3 -5 8 -10 11 -10 2 0 4 5 4 10 0 6 -5 10 -11 10 -5 0 -7
-4 -4 -10z"/>
<path d="M6270 1516 c0 -2 8 -10 18 -17 15 -13 16 -12 3 4 -13 16 -21 21 -21
13z"/>
<path d="M626 1493 c-6 -14 -5 -15 5 -6 7 7 10 15 7 18 -3 3 -9 -2 -12 -12z"/>
<path d="M2305 1480 c-3 -5 -2 -10 4 -10 5 0 13 5 16 10 3 6 2 10 -4 10 -5 0
-13 -4 -16 -10z"/>
<path d="M3765 1260 c-3 -5 -2 -10 4 -10 5 0 13 5 16 10 3 6 2 10 -4 10 -5 0
-13 -4 -16 -10z"/>
<path d="M3010 1240 c-9 -6 -10 -10 -3 -10 6 0 15 5 18 10 8 12 4 12 -15 0z"/>
<path d="M5475 961 c-3 -5 -2 -12 3 -15 5 -3 9 1 9 9 0 17 -3 19 -12 6z"/>
<path d="M1541 806 c-9 -11 -9 -16 1 -22 7 -4 10 -4 6 1 -4 4 -3 14 3 22 6 7
9 13 6 13 -2 0 -10 -6 -16 -14z"/>
<path d="M2695 662 c3 -3 0 -11 -6 -19 -6 -7 -7 -13 -3 -13 5 0 14 8 21 18 9
15 8 19 -3 19 -8 0 -12 -3 -9 -5z"/>
<path d="M5660 425 c0 -2 6 -8 13 -14 10 -8 14 -7 14 2 0 8 -6 14 -14 14 -7 0
-13 -1 -13 -2z"/>
<path d="M2500 329 c0 -5 5 -7 10 -4 6 3 10 8 10 11 0 2 -4 4 -10 4 -5 0 -10
-5 -10 -11z"/>
<path d="M3573 315 c0 -8 4 -12 9 -9 4 3 8 9 8 15 0 5 -4 9 -8 9 -5 0 -9 -7
-9 -15z"/>
<path d="M513 185 c0 -8 4 -15 9 -15 4 0 8 4 8 9 0 6 -4 12 -8 15 -5 3 -9 -1
-9 -9z"/>
<path d="M561 186 c-10 -11 -9 -14 1 -12 14 2 23 15 15 22 -2 2 -10 -2 -16
-10z"/>
<path d="M2753 185 c0 -8 4 -15 9 -15 4 0 8 4 8 9 0 6 -4 12 -8 15 -5 3 -9 -1
-9 -9z"/>
<path d="M3253 185 c0 -8 3 -13 5 -10 3 3 12 -1 21 -7 10 -8 9 -4 -3 10 -23
26 -23 26 -23 7z"/>
<path d="M4993 185 c0 -8 4 -15 9 -15 4 0 8 4 8 9 0 6 -4 12 -8 15 -5 3 -9 -1
-9 -9z"/>
<path d="M5153 185 c0 -8 4 -15 9 -15 4 0 8 4 8 9 0 6 -4 12 -8 15 -5 3 -9 -1
-9 -9z"/>
<path d="M5333 185 c0 -8 3 -13 5 -10 3 3 12 -1 21 -7 10 -8 9 -4 -3 10 -23
26 -23 26 -23 7z"/>
<path d="M5633 185 c0 -8 4 -15 9 -15 4 0 8 4 8 9 0 6 -4 12 -8 15 -5 3 -9 -1
-9 -9z"/>
<path d="M3174 182 c4 -3 14 -7 22 -8 9 -1 13 0 10 4 -4 3 -14 7 -22 8 -9 1
-13 0 -10 -4z"/>
<path d="M3416 178 c3 -5 10 -6 15 -3 13 9 11 12 -6 12 -8 0 -12 -4 -9 -9z"/>
<path d="M4694 178 c-4 -7 -4 -10 1 -6 4 4 15 2 24 -5 14 -11 14 -10 2 6 -16
20 -18 21 -27 5z"/>
</g>
</svg>
