<svg width="139" height="182" viewBox="0 0 139 182" fill="none" xmlns="http://www.w3.org/2000/svg">
<g clip-path="url(#clip0_137_429)">
<rect x="1" y="1" width="137" height="180" fill="white"/>
<circle opacity="0.3" cx="19.5" cy="55" r="12" fill="#6393F2"/>
<g filter="url(#filter0_d_137_429)">
<circle cx="19" cy="55" r="5" fill="#6393F2"/>
<circle cx="19" cy="55" r="6" stroke="white" stroke-width="2"/>
</g>
<rect x="8" y="87.5" width="23" height="23" fill="#95B8FD" fill-opacity="0.2" stroke="black" stroke-linejoin="round"/>
<g filter="url(#filter1_b_137_429)">
<path d="M33.5 145C33.5 152.732 27.232 159 19.5 159C11.768 159 5.5 152.732 5.5 145C5.5 137.268 11.768 131 19.5 131C27.232 131 33.5 137.268 33.5 145Z" fill="#F80203" fill-opacity="0.1"/>
</g>
<path d="M31.0417 145C31.0417 151.374 25.8743 156.542 19.5 156.542C13.1258 156.542 7.95837 151.374 7.95837 145C7.95837 138.626 13.1258 133.458 19.5 133.458C25.8743 133.458 31.0417 138.626 31.0417 145Z" fill="#F80203" fill-opacity="0.3" stroke="white" stroke-width="0.25"/>
<path d="M28.6833 145C28.6833 150.072 24.5718 154.183 19.5 154.183C14.4281 154.183 10.3166 150.072 10.3166 145C10.3166 139.928 14.4281 135.817 19.5 135.817C24.5718 135.817 28.6833 139.928 28.6833 145Z" fill="#F80203" fill-opacity="0.5" stroke="white" stroke-width="0.3"/>
<circle cx="19.5" cy="145" r="6.75" fill="#F80203" stroke="white" stroke-width="0.5"/>
<path d="M54.7727 45H53.3636C53.2803 44.5947 53.1345 44.2386 52.9261 43.9318C52.7216 43.625 52.4716 43.3674 52.1761 43.1591C51.8845 42.947 51.5606 42.7879 51.2045 42.6818C50.8485 42.5758 50.4773 42.5227 50.0909 42.5227C49.3864 42.5227 48.7481 42.7008 48.1761 43.0568C47.608 43.4129 47.1553 43.9375 46.8182 44.6307C46.4848 45.3239 46.3182 46.1742 46.3182 47.1818C46.3182 48.1894 46.4848 49.0398 46.8182 49.733C47.1553 50.4261 47.608 50.9508 48.1761 51.3068C48.7481 51.6629 49.3864 51.8409 50.0909 51.8409C50.4773 51.8409 50.8485 51.7879 51.2045 51.6818C51.5606 51.5758 51.8845 51.4186 52.1761 51.2102C52.4716 50.9981 52.7216 50.7386 52.9261 50.4318C53.1345 50.1212 53.2803 49.7652 53.3636 49.3636H54.7727C54.6667 49.9583 54.4735 50.4905 54.1932 50.9602C53.9129 51.4299 53.5644 51.8295 53.1477 52.1591C52.7311 52.4848 52.2633 52.733 51.7443 52.9034C51.2292 53.0739 50.678 53.1591 50.0909 53.1591C49.0985 53.1591 48.2159 52.9167 47.4432 52.4318C46.6705 51.947 46.0625 51.2576 45.6193 50.3636C45.1761 49.4697 44.9545 48.4091 44.9545 47.1818C44.9545 45.9545 45.1761 44.8939 45.6193 44C46.0625 43.1061 46.6705 42.4167 47.4432 41.9318C48.2159 41.447 49.0985 41.2045 50.0909 41.2045C50.678 41.2045 51.2292 41.2898 51.7443 41.4602C52.2633 41.6307 52.7311 41.8807 53.1477 42.2102C53.5644 42.536 53.9129 42.9337 54.1932 43.4034C54.4735 43.8693 54.6667 44.4015 54.7727 45ZM62.3679 49.4318V44.2727H63.7088V53H62.3679V51.5227H62.277C62.0724 51.9659 61.7543 52.3428 61.3224 52.6534C60.8906 52.9602 60.3452 53.1136 59.6861 53.1136C59.1406 53.1136 58.6558 52.9943 58.2315 52.7557C57.8073 52.5133 57.474 52.1496 57.2315 51.6648C56.9891 51.1761 56.8679 50.5606 56.8679 49.8182V44.2727H58.2088V49.7273C58.2088 50.3636 58.3868 50.8712 58.7429 51.25C59.1027 51.6288 59.5611 51.8182 60.1179 51.8182C60.4512 51.8182 60.7902 51.733 61.1349 51.5625C61.4834 51.392 61.7751 51.1307 62.0099 50.7784C62.2486 50.4261 62.3679 49.9773 62.3679 49.4318ZM66.1648 53V44.2727H67.4602V45.5909H67.5511C67.7102 45.1591 67.9981 44.8087 68.4148 44.5398C68.8314 44.2708 69.3011 44.1364 69.8239 44.1364C69.9223 44.1364 70.0455 44.1383 70.1932 44.142C70.3409 44.1458 70.4527 44.1515 70.5284 44.1591V45.5227C70.483 45.5114 70.3788 45.4943 70.2159 45.4716C70.0568 45.4451 69.8883 45.4318 69.7102 45.4318C69.286 45.4318 68.9072 45.5208 68.5739 45.6989C68.2443 45.8731 67.983 46.1155 67.7898 46.4261C67.6004 46.733 67.5057 47.0833 67.5057 47.4773V53H66.1648ZM72.1179 53V44.2727H73.4134V45.5909H73.5043C73.6634 45.1591 73.9512 44.8087 74.3679 44.5398C74.7846 44.2708 75.2543 44.1364 75.777 44.1364C75.8755 44.1364 75.9986 44.1383 76.1463 44.142C76.294 44.1458 76.4058 44.1515 76.4815 44.1591V45.5227C76.4361 45.5114 76.3319 45.4943 76.169 45.4716C76.0099 45.4451 75.8414 45.4318 75.6634 45.4318C75.2391 45.4318 74.8603 45.5208 74.527 45.6989C74.1974 45.8731 73.9361 46.1155 73.7429 46.4261C73.5535 46.733 73.4588 47.0833 73.4588 47.4773V53H72.1179ZM81.4645 53.1818C80.6236 53.1818 79.8982 52.9962 79.2884 52.625C78.6823 52.25 78.2145 51.7273 77.8849 51.0568C77.5592 50.3826 77.3963 49.5985 77.3963 48.7045C77.3963 47.8106 77.5592 47.0227 77.8849 46.3409C78.2145 45.6553 78.6728 45.1212 79.2599 44.7386C79.8509 44.3523 80.5402 44.1591 81.3281 44.1591C81.7827 44.1591 82.2315 44.2348 82.6747 44.3864C83.1179 44.5379 83.5213 44.7841 83.8849 45.125C84.2486 45.4621 84.5384 45.9091 84.7543 46.4659C84.9702 47.0227 85.0781 47.7083 85.0781 48.5227V49.0909H78.3509V47.9318H83.7145C83.7145 47.4394 83.616 47 83.419 46.6136C83.2259 46.2273 82.9493 45.9223 82.5895 45.6989C82.2334 45.4754 81.813 45.3636 81.3281 45.3636C80.794 45.3636 80.3319 45.4962 79.9418 45.7614C79.5554 46.0227 79.258 46.3636 79.0497 46.7841C78.8414 47.2045 78.7372 47.6553 78.7372 48.1364V48.9091C78.7372 49.5682 78.8509 50.1269 79.0781 50.5852C79.3092 51.0398 79.6293 51.3864 80.0384 51.625C80.4474 51.8598 80.9228 51.9773 81.4645 51.9773C81.8168 51.9773 82.1349 51.928 82.419 51.8295C82.7069 51.7273 82.955 51.5758 83.1634 51.375C83.3717 51.1705 83.5327 50.9167 83.6463 50.6136L84.9418 50.9773C84.8054 51.4167 84.5762 51.803 84.2543 52.1364C83.9323 52.4659 83.5346 52.7235 83.0611 52.9091C82.5876 53.0909 82.0554 53.1818 81.4645 53.1818ZM88.4588 47.75V53H87.1179V44.2727H88.4134V45.6364H88.527C88.7315 45.1932 89.0421 44.8371 89.4588 44.5682C89.8755 44.2955 90.4134 44.1591 91.0724 44.1591C91.6634 44.1591 92.1804 44.2803 92.6236 44.5227C93.0668 44.7614 93.4115 45.125 93.6577 45.6136C93.9039 46.0985 94.027 46.7121 94.027 47.4545V53H92.6861V47.5455C92.6861 46.8598 92.508 46.3258 92.152 45.9432C91.7959 45.5568 91.3073 45.3636 90.6861 45.3636C90.258 45.3636 89.8755 45.4564 89.5384 45.642C89.205 45.8277 88.9418 46.0985 88.7486 46.4545C88.5554 46.8106 88.4588 47.2424 88.4588 47.75ZM100.273 44.2727V45.4091H95.75V44.2727H100.273ZM97.0682 42.1818H98.4091V50.5C98.4091 50.8788 98.464 51.1629 98.5739 51.3523C98.6875 51.5379 98.8314 51.6629 99.0057 51.7273C99.1837 51.7879 99.3712 51.8182 99.5682 51.8182C99.7159 51.8182 99.8371 51.8106 99.9318 51.7955C100.027 51.7765 100.102 51.7614 100.159 51.75L100.432 52.9545C100.341 52.9886 100.214 53.0227 100.051 53.0568C99.8883 53.0947 99.6818 53.1136 99.4318 53.1136C99.053 53.1136 98.6818 53.0322 98.3182 52.8693C97.9583 52.7064 97.6591 52.4583 97.4205 52.125C97.1856 51.7917 97.0682 51.3712 97.0682 50.8636V42.1818ZM45.4091 72V60.3636H46.8182V70.75H52.2273V72H45.4091ZM57.7727 72.1818C56.9848 72.1818 56.2936 71.9943 55.6989 71.6193C55.108 71.2443 54.6458 70.7197 54.3125 70.0455C53.983 69.3712 53.8182 68.5833 53.8182 67.6818C53.8182 66.7727 53.983 65.9792 54.3125 65.3011C54.6458 64.6231 55.108 64.0966 55.6989 63.7216C56.2936 63.3466 56.9848 63.1591 57.7727 63.1591C58.5606 63.1591 59.25 63.3466 59.8409 63.7216C60.4356 64.0966 60.8977 64.6231 61.2273 65.3011C61.5606 65.9792 61.7273 66.7727 61.7273 67.6818C61.7273 68.5833 61.5606 69.3712 61.2273 70.0455C60.8977 70.7197 60.4356 71.2443 59.8409 71.6193C59.25 71.9943 58.5606 72.1818 57.7727 72.1818ZM57.7727 70.9773C58.3712 70.9773 58.8636 70.8239 59.25 70.517C59.6364 70.2102 59.9223 69.8068 60.108 69.3068C60.2936 68.8068 60.3864 68.2652 60.3864 67.6818C60.3864 67.0985 60.2936 66.5549 60.108 66.0511C59.9223 65.5473 59.6364 65.1402 59.25 64.8295C58.8636 64.5189 58.3712 64.3636 57.7727 64.3636C57.1742 64.3636 56.6818 64.5189 56.2955 64.8295C55.9091 65.1402 55.6231 65.5473 55.4375 66.0511C55.2519 66.5549 55.1591 67.0985 55.1591 67.6818C55.1591 68.2652 55.2519 68.8068 55.4375 69.3068C55.6231 69.8068 55.9091 70.2102 56.2955 70.517C56.6818 70.8239 57.1742 70.9773 57.7727 70.9773ZM67.3196 72.1818C66.5014 72.1818 65.7969 71.9886 65.206 71.6023C64.6151 71.2159 64.1605 70.6837 63.8423 70.0057C63.5241 69.3277 63.3651 68.553 63.3651 67.6818C63.3651 66.7955 63.5279 66.0133 63.8537 65.3352C64.1832 64.6534 64.6416 64.1212 65.2287 63.7386C65.8196 63.3523 66.509 63.1591 67.2969 63.1591C67.9105 63.1591 68.4635 63.2727 68.956 63.5C69.4484 63.7273 69.8518 64.0455 70.1662 64.4545C70.4806 64.8636 70.6757 65.3409 70.7514 65.8864H69.4105C69.3082 65.4886 69.081 65.1364 68.7287 64.8295C68.3802 64.5189 67.9105 64.3636 67.3196 64.3636C66.7969 64.3636 66.3385 64.5 65.9446 64.7727C65.5545 65.0417 65.2495 65.4223 65.0298 65.9148C64.8139 66.4034 64.706 66.9773 64.706 67.6364C64.706 68.3106 64.812 68.8977 65.0241 69.3977C65.2401 69.8977 65.5431 70.286 65.9332 70.5625C66.3272 70.839 66.7893 70.9773 67.3196 70.9773C67.6681 70.9773 67.9844 70.9167 68.2685 70.7955C68.5526 70.6742 68.7931 70.5 68.9901 70.2727C69.187 70.0455 69.3272 69.7727 69.4105 69.4545H70.7514C70.6757 69.9697 70.4882 70.4337 70.1889 70.8466C69.8935 71.2557 69.5014 71.5814 69.0128 71.8239C68.5279 72.0625 67.9635 72.1818 67.3196 72.1818ZM75.2798 72.2045C74.7268 72.2045 74.2249 72.1004 73.7741 71.892C73.3234 71.6799 72.9654 71.375 72.7003 70.9773C72.4351 70.5758 72.3026 70.0909 72.3026 69.5227C72.3026 69.0227 72.401 68.6174 72.598 68.3068C72.795 67.9924 73.0582 67.7462 73.3878 67.5682C73.7173 67.3902 74.081 67.2576 74.4787 67.1705C74.8802 67.0795 75.2836 67.0076 75.6889 66.9545C76.2192 66.8864 76.6491 66.8352 76.9787 66.8011C77.312 66.7633 77.5545 66.7008 77.706 66.6136C77.8613 66.5265 77.9389 66.375 77.9389 66.1591V66.1136C77.9389 65.553 77.7855 65.1174 77.4787 64.8068C77.1757 64.4962 76.7154 64.3409 76.098 64.3409C75.4579 64.3409 74.956 64.4811 74.5923 64.7614C74.2287 65.0417 73.973 65.3409 73.8253 65.6591L72.5526 65.2045C72.7798 64.6742 73.0829 64.2614 73.4616 63.9659C73.8442 63.6667 74.2609 63.4583 74.7116 63.3409C75.1662 63.2197 75.6132 63.1591 76.0526 63.1591C76.3329 63.1591 76.6548 63.1932 77.0185 63.2614C77.3859 63.3258 77.7401 63.4602 78.081 63.6648C78.4257 63.8693 78.7116 64.178 78.9389 64.5909C79.1662 65.0038 79.2798 65.5568 79.2798 66.25V72H77.9389V70.8182H77.8707C77.7798 71.0076 77.6283 71.2102 77.4162 71.4261C77.2041 71.642 76.9219 71.8258 76.5696 71.9773C76.2173 72.1288 75.7874 72.2045 75.2798 72.2045ZM75.4844 71C76.0147 71 76.4616 70.8958 76.8253 70.6875C77.1927 70.4792 77.4692 70.2102 77.6548 69.8807C77.8442 69.5511 77.9389 69.2045 77.9389 68.8409V67.6136C77.8821 67.6818 77.7571 67.7443 77.5639 67.8011C77.3745 67.8542 77.1548 67.9015 76.9048 67.9432C76.6586 67.9811 76.4181 68.0152 76.1832 68.0455C75.9522 68.072 75.7647 68.0947 75.6207 68.1136C75.2723 68.1591 74.9465 68.233 74.6435 68.3352C74.3442 68.4337 74.1018 68.5833 73.9162 68.7841C73.7344 68.9811 73.6435 69.25 73.6435 69.5909C73.6435 70.0568 73.8158 70.4091 74.1605 70.6477C74.509 70.8826 74.9503 71 75.4844 71ZM85.5227 63.2727V64.4091H81V63.2727H85.5227ZM82.3182 61.1818H83.6591V69.5C83.6591 69.8788 83.714 70.1629 83.8239 70.3523C83.9375 70.5379 84.0814 70.6629 84.2557 70.7273C84.4337 70.7879 84.6212 70.8182 84.8182 70.8182C84.9659 70.8182 85.0871 70.8106 85.1818 70.7955C85.2765 70.7765 85.3523 70.7614 85.4091 70.75L85.6818 71.9545C85.5909 71.9886 85.464 72.0227 85.3011 72.0568C85.1383 72.0947 84.9318 72.1136 84.6818 72.1136C84.303 72.1136 83.9318 72.0322 83.5682 71.8693C83.2083 71.7064 82.9091 71.4583 82.6705 71.125C82.4356 70.7917 82.3182 70.3712 82.3182 69.8636V61.1818ZM87.5398 72V63.2727H88.8807V72H87.5398ZM88.2216 61.8182C87.9602 61.8182 87.7348 61.7292 87.5455 61.5511C87.3598 61.3731 87.267 61.1591 87.267 60.9091C87.267 60.6591 87.3598 60.4451 87.5455 60.267C87.7348 60.089 87.9602 60 88.2216 60C88.483 60 88.7064 60.089 88.892 60.267C89.0814 60.4451 89.1761 60.6591 89.1761 60.9091C89.1761 61.1591 89.0814 61.3731 88.892 61.5511C88.7064 61.7292 88.483 61.8182 88.2216 61.8182ZM94.8821 72.1818C94.0942 72.1818 93.4029 71.9943 92.8082 71.6193C92.2173 71.2443 91.7552 70.7197 91.4219 70.0455C91.0923 69.3712 90.9276 68.5833 90.9276 67.6818C90.9276 66.7727 91.0923 65.9792 91.4219 65.3011C91.7552 64.6231 92.2173 64.0966 92.8082 63.7216C93.4029 63.3466 94.0942 63.1591 94.8821 63.1591C95.67 63.1591 96.3594 63.3466 96.9503 63.7216C97.545 64.0966 98.0071 64.6231 98.3366 65.3011C98.67 65.9792 98.8366 66.7727 98.8366 67.6818C98.8366 68.5833 98.67 69.3712 98.3366 70.0455C98.0071 70.7197 97.545 71.2443 96.9503 71.6193C96.3594 71.9943 95.67 72.1818 94.8821 72.1818ZM94.8821 70.9773C95.4806 70.9773 95.973 70.8239 96.3594 70.517C96.7457 70.2102 97.0317 69.8068 97.2173 69.3068C97.4029 68.8068 97.4957 68.2652 97.4957 67.6818C97.4957 67.0985 97.4029 66.5549 97.2173 66.0511C97.0317 65.5473 96.7457 65.1402 96.3594 64.8295C95.973 64.5189 95.4806 64.3636 94.8821 64.3636C94.2836 64.3636 93.7912 64.5189 93.4048 64.8295C93.0185 65.1402 92.7325 65.5473 92.5469 66.0511C92.3613 66.5549 92.2685 67.0985 92.2685 67.6818C92.2685 68.2652 92.3613 68.8068 92.5469 69.3068C92.7325 69.8068 93.0185 70.2102 93.4048 70.517C93.7912 70.8239 94.2836 70.9773 94.8821 70.9773ZM102.224 66.75V72H100.884V63.2727H102.179V64.6364H102.293C102.497 64.1932 102.808 63.8371 103.224 63.5682C103.641 63.2955 104.179 63.1591 104.838 63.1591C105.429 63.1591 105.946 63.2803 106.389 63.5227C106.832 63.7614 107.177 64.125 107.423 64.6136C107.67 65.0985 107.793 65.7121 107.793 66.4545V72H106.452V66.5455C106.452 65.8598 106.274 65.3258 105.918 64.9432C105.562 64.5568 105.073 64.3636 104.452 64.3636C104.024 64.3636 103.641 64.4564 103.304 64.642C102.971 64.8277 102.707 65.0985 102.514 65.4545C102.321 65.8106 102.224 66.2424 102.224 66.75Z" fill="black"/>
<path d="M45.4091 102V90.3636H49.3409C50.25 90.3636 50.9962 90.5189 51.5795 90.8295C52.1629 91.1364 52.5947 91.5587 52.875 92.0966C53.1553 92.6345 53.2955 93.2462 53.2955 93.9318C53.2955 94.6174 53.1553 95.2254 52.875 95.7557C52.5947 96.286 52.1648 96.7027 51.5852 97.0057C51.0057 97.3049 50.2652 97.4545 49.3636 97.4545H46.1818V96.1818H49.3182C49.9394 96.1818 50.4394 96.0909 50.8182 95.9091C51.2008 95.7273 51.4773 95.4697 51.6477 95.1364C51.822 94.7992 51.9091 94.3977 51.9091 93.9318C51.9091 93.4659 51.822 93.0587 51.6477 92.7102C51.4735 92.3617 51.1951 92.0928 50.8125 91.9034C50.4299 91.7102 49.9242 91.6136 49.2955 91.6136H46.8182V102H45.4091ZM50.8864 96.7727L53.75 102H52.1136L49.2955 96.7727H50.8864ZM58.0298 102.205C57.4768 102.205 56.9749 102.1 56.5241 101.892C56.0734 101.68 55.7154 101.375 55.4503 100.977C55.1851 100.576 55.0526 100.091 55.0526 99.5227C55.0526 99.0227 55.151 98.6174 55.348 98.3068C55.545 97.9924 55.8082 97.7462 56.1378 97.5682C56.4673 97.3902 56.831 97.2576 57.2287 97.1705C57.6302 97.0795 58.0336 97.0076 58.4389 96.9545C58.9692 96.8864 59.3991 96.8352 59.7287 96.8011C60.062 96.7633 60.3045 96.7008 60.456 96.6136C60.6113 96.5265 60.6889 96.375 60.6889 96.1591V96.1136C60.6889 95.553 60.5355 95.1174 60.2287 94.8068C59.9257 94.4962 59.4654 94.3409 58.848 94.3409C58.2079 94.3409 57.706 94.4811 57.3423 94.7614C56.9787 95.0417 56.723 95.3409 56.5753 95.6591L55.3026 95.2045C55.5298 94.6742 55.8329 94.2614 56.2116 93.9659C56.5942 93.6667 57.0109 93.4583 57.4616 93.3409C57.9162 93.2197 58.3632 93.1591 58.8026 93.1591C59.0829 93.1591 59.4048 93.1932 59.7685 93.2614C60.1359 93.3258 60.4901 93.4602 60.831 93.6648C61.1757 93.8693 61.4616 94.178 61.6889 94.5909C61.9162 95.0038 62.0298 95.5568 62.0298 96.25V102H60.6889V100.818H60.6207C60.5298 101.008 60.3783 101.21 60.1662 101.426C59.9541 101.642 59.6719 101.826 59.3196 101.977C58.9673 102.129 58.5374 102.205 58.0298 102.205ZM58.2344 101C58.7647 101 59.2116 100.896 59.5753 100.688C59.9427 100.479 60.2192 100.21 60.4048 99.8807C60.5942 99.5511 60.6889 99.2045 60.6889 98.8409V97.6136C60.6321 97.6818 60.5071 97.7443 60.3139 97.8011C60.1245 97.8542 59.9048 97.9015 59.6548 97.9432C59.4086 97.9811 59.1681 98.0152 58.9332 98.0455C58.7022 98.072 58.5147 98.0947 58.3707 98.1136C58.0223 98.1591 57.6965 98.233 57.3935 98.3352C57.0942 98.4337 56.8518 98.5833 56.6662 98.7841C56.4844 98.9811 56.3935 99.25 56.3935 99.5909C56.3935 100.057 56.5658 100.409 56.9105 100.648C57.259 100.883 57.7003 101 58.2344 101ZM67.7727 102.182C67.0455 102.182 66.4034 101.998 65.8466 101.631C65.2898 101.259 64.8542 100.737 64.5398 100.062C64.2254 99.3845 64.0682 98.5833 64.0682 97.6591C64.0682 96.7424 64.2254 95.947 64.5398 95.2727C64.8542 94.5985 65.2917 94.0777 65.8523 93.7102C66.4129 93.3428 67.0606 93.1591 67.7955 93.1591C68.3636 93.1591 68.8125 93.2538 69.142 93.4432C69.4754 93.6288 69.7292 93.8409 69.9034 94.0795C70.0814 94.3144 70.2197 94.5076 70.3182 94.6591H70.4318V90.3636H71.7727V102H70.4773V100.659H70.3182C70.2197 100.818 70.0795 101.019 69.8977 101.261C69.7159 101.5 69.4564 101.714 69.1193 101.903C68.7822 102.089 68.3333 102.182 67.7727 102.182ZM67.9545 100.977C68.4924 100.977 68.947 100.837 69.3182 100.557C69.6894 100.273 69.9716 99.8807 70.1648 99.3807C70.358 98.8769 70.4545 98.2955 70.4545 97.6364C70.4545 96.9848 70.3598 96.4148 70.1705 95.9261C69.9811 95.4337 69.7008 95.0511 69.3295 94.7784C68.9583 94.5019 68.5 94.3636 67.9545 94.3636C67.3864 94.3636 66.9129 94.5095 66.5341 94.8011C66.1591 95.089 65.8769 95.4811 65.6875 95.9773C65.5019 96.4697 65.4091 97.0227 65.4091 97.6364C65.4091 98.2576 65.5038 98.822 65.6932 99.3295C65.8864 99.8333 66.1705 100.235 66.5455 100.534C66.9242 100.83 67.3939 100.977 67.9545 100.977ZM74.4148 102V93.2727H75.7557V102H74.4148ZM75.0966 91.8182C74.8352 91.8182 74.6098 91.7292 74.4205 91.5511C74.2348 91.3731 74.142 91.1591 74.142 90.9091C74.142 90.6591 74.2348 90.4451 74.4205 90.267C74.6098 90.089 74.8352 90 75.0966 90C75.358 90 75.5814 90.089 75.767 90.267C75.9564 90.4451 76.0511 90.6591 76.0511 90.9091C76.0511 91.1591 75.9564 91.3731 75.767 91.5511C75.5814 91.7292 75.358 91.8182 75.0966 91.8182ZM83.7116 98.4318V93.2727H85.0526V102H83.7116V100.523H83.6207C83.4162 100.966 83.098 101.343 82.6662 101.653C82.2344 101.96 81.6889 102.114 81.0298 102.114C80.4844 102.114 79.9995 101.994 79.5753 101.756C79.151 101.513 78.8177 101.15 78.5753 100.665C78.3329 100.176 78.2116 99.5606 78.2116 98.8182V93.2727H79.5526V98.7273C79.5526 99.3636 79.7306 99.8712 80.0866 100.25C80.4465 100.629 80.9048 100.818 81.4616 100.818C81.795 100.818 82.134 100.733 82.4787 100.562C82.8272 100.392 83.1188 100.131 83.3537 99.7784C83.5923 99.4261 83.7116 98.9773 83.7116 98.4318ZM93.6903 95.2273L92.4858 95.5682C92.41 95.3674 92.2983 95.1723 92.1506 94.983C92.0066 94.7898 91.8097 94.6307 91.5597 94.5057C91.3097 94.3807 90.9896 94.3182 90.5994 94.3182C90.0653 94.3182 89.6203 94.4413 89.2642 94.6875C88.9119 94.9299 88.7358 95.2386 88.7358 95.6136C88.7358 95.947 88.857 96.2102 89.0994 96.4034C89.3419 96.5966 89.7206 96.7576 90.2358 96.8864L91.5312 97.2045C92.3116 97.3939 92.893 97.6837 93.2756 98.0739C93.6581 98.4602 93.8494 98.9583 93.8494 99.5682C93.8494 100.068 93.7055 100.515 93.4176 100.909C93.1335 101.303 92.7358 101.614 92.2244 101.841C91.7131 102.068 91.1184 102.182 90.4403 102.182C89.5502 102.182 88.8134 101.989 88.2301 101.602C87.6468 101.216 87.2775 100.652 87.1222 99.9091L88.3949 99.5909C88.5161 100.061 88.7453 100.413 89.0824 100.648C89.4233 100.883 89.8684 101 90.4176 101C91.0426 101 91.5388 100.867 91.9062 100.602C92.2775 100.333 92.4631 100.011 92.4631 99.6364C92.4631 99.3333 92.357 99.0795 92.1449 98.875C91.9328 98.6667 91.607 98.5114 91.1676 98.4091L89.7131 98.0682C88.9138 97.8788 88.3267 97.5852 87.9517 97.1875C87.5805 96.786 87.3949 96.2841 87.3949 95.6818C87.3949 95.1894 87.5331 94.7538 87.8097 94.375C88.09 93.9962 88.4706 93.6989 88.9517 93.483C89.4366 93.267 89.9858 93.1591 90.5994 93.1591C91.4631 93.1591 92.1411 93.3485 92.6335 93.7273C93.1297 94.1061 93.482 94.6061 93.6903 95.2273Z" fill="black"/>
<path d="M45.4091 138V126.364H49.3409C50.2538 126.364 51 126.528 51.5795 126.858C52.1629 127.184 52.5947 127.625 52.875 128.182C53.1553 128.739 53.2955 129.36 53.2955 130.045C53.2955 130.731 53.1553 131.354 52.875 131.915C52.5985 132.475 52.1705 132.922 51.5909 133.256C51.0114 133.585 50.2689 133.75 49.3636 133.75H46.5455V132.5H49.3182C49.9432 132.5 50.4451 132.392 50.8239 132.176C51.2027 131.96 51.4773 131.669 51.6477 131.301C51.822 130.93 51.9091 130.511 51.9091 130.045C51.9091 129.58 51.822 129.163 51.6477 128.795C51.4773 128.428 51.2008 128.14 50.8182 127.932C50.4356 127.72 49.928 127.614 49.2955 127.614H46.8182V138H45.4091ZM58.9489 138.182C58.108 138.182 57.3826 137.996 56.7727 137.625C56.1667 137.25 55.6989 136.727 55.3693 136.057C55.0436 135.383 54.8807 134.598 54.8807 133.705C54.8807 132.811 55.0436 132.023 55.3693 131.341C55.6989 130.655 56.1572 130.121 56.7443 129.739C57.3352 129.352 58.0246 129.159 58.8125 129.159C59.267 129.159 59.7159 129.235 60.1591 129.386C60.6023 129.538 61.0057 129.784 61.3693 130.125C61.733 130.462 62.0227 130.909 62.2386 131.466C62.4545 132.023 62.5625 132.708 62.5625 133.523V134.091H55.8352V132.932H61.1989C61.1989 132.439 61.1004 132 60.9034 131.614C60.7102 131.227 60.4337 130.922 60.0739 130.699C59.7178 130.475 59.2973 130.364 58.8125 130.364C58.2784 130.364 57.8163 130.496 57.4261 130.761C57.0398 131.023 56.7424 131.364 56.5341 131.784C56.3258 132.205 56.2216 132.655 56.2216 133.136V133.909C56.2216 134.568 56.3352 135.127 56.5625 135.585C56.7936 136.04 57.1136 136.386 57.5227 136.625C57.9318 136.86 58.4072 136.977 58.9489 136.977C59.3011 136.977 59.6193 136.928 59.9034 136.83C60.1913 136.727 60.4394 136.576 60.6477 136.375C60.8561 136.17 61.017 135.917 61.1307 135.614L62.4261 135.977C62.2898 136.417 62.0606 136.803 61.7386 137.136C61.4167 137.466 61.0189 137.723 60.5455 137.909C60.072 138.091 59.5398 138.182 58.9489 138.182ZM70.7841 131.227L69.5795 131.568C69.5038 131.367 69.392 131.172 69.2443 130.983C69.1004 130.79 68.9034 130.631 68.6534 130.506C68.4034 130.381 68.0833 130.318 67.6932 130.318C67.1591 130.318 66.714 130.441 66.358 130.688C66.0057 130.93 65.8295 131.239 65.8295 131.614C65.8295 131.947 65.9508 132.21 66.1932 132.403C66.4356 132.597 66.8144 132.758 67.3295 132.886L68.625 133.205C69.4053 133.394 69.9867 133.684 70.3693 134.074C70.7519 134.46 70.9432 134.958 70.9432 135.568C70.9432 136.068 70.7992 136.515 70.5114 136.909C70.2273 137.303 69.8295 137.614 69.3182 137.841C68.8068 138.068 68.2121 138.182 67.5341 138.182C66.6439 138.182 65.9072 137.989 65.3239 137.602C64.7405 137.216 64.3712 136.652 64.2159 135.909L65.4886 135.591C65.6098 136.061 65.839 136.413 66.1761 136.648C66.517 136.883 66.9621 137 67.5114 137C68.1364 137 68.6326 136.867 69 136.602C69.3712 136.333 69.5568 136.011 69.5568 135.636C69.5568 135.333 69.4508 135.08 69.2386 134.875C69.0265 134.667 68.7008 134.511 68.2614 134.409L66.8068 134.068C66.0076 133.879 65.4205 133.585 65.0455 133.188C64.6742 132.786 64.4886 132.284 64.4886 131.682C64.4886 131.189 64.6269 130.754 64.9034 130.375C65.1837 129.996 65.5644 129.699 66.0455 129.483C66.5303 129.267 67.0795 129.159 67.6932 129.159C68.5568 129.159 69.2348 129.348 69.7273 129.727C70.2235 130.106 70.5758 130.606 70.7841 131.227ZM76.7571 129.273V130.409H72.2344V129.273H76.7571ZM73.5526 127.182H74.8935V135.5C74.8935 135.879 74.9484 136.163 75.0582 136.352C75.1719 136.538 75.3158 136.663 75.4901 136.727C75.6681 136.788 75.8556 136.818 76.0526 136.818C76.2003 136.818 76.3215 136.811 76.4162 136.795C76.5109 136.777 76.5866 136.761 76.6435 136.75L76.9162 137.955C76.8253 137.989 76.6984 138.023 76.5355 138.057C76.3726 138.095 76.1662 138.114 75.9162 138.114C75.5374 138.114 75.1662 138.032 74.8026 137.869C74.4427 137.706 74.1435 137.458 73.9048 137.125C73.67 136.792 73.5526 136.371 73.5526 135.864V127.182ZM78.7741 138V129.273H80.1151V138H78.7741ZM79.456 127.818C79.1946 127.818 78.9692 127.729 78.7798 127.551C78.5942 127.373 78.5014 127.159 78.5014 126.909C78.5014 126.659 78.5942 126.445 78.7798 126.267C78.9692 126.089 79.1946 126 79.456 126C79.7173 126 79.9408 126.089 80.1264 126.267C80.3158 126.445 80.4105 126.659 80.4105 126.909C80.4105 127.159 80.3158 127.373 80.1264 127.551C79.9408 127.729 79.7173 127.818 79.456 127.818ZM86.1165 138.182C85.2983 138.182 84.5938 137.989 84.0028 137.602C83.4119 137.216 82.9574 136.684 82.6392 136.006C82.321 135.328 82.1619 134.553 82.1619 133.682C82.1619 132.795 82.3248 132.013 82.6506 131.335C82.9801 130.653 83.4384 130.121 84.0256 129.739C84.6165 129.352 85.3059 129.159 86.0938 129.159C86.7074 129.159 87.2604 129.273 87.7528 129.5C88.2453 129.727 88.6487 130.045 88.9631 130.455C89.2775 130.864 89.4725 131.341 89.5483 131.886H88.2074C88.1051 131.489 87.8778 131.136 87.5256 130.83C87.1771 130.519 86.7074 130.364 86.1165 130.364C85.5938 130.364 85.1354 130.5 84.7415 130.773C84.3513 131.042 84.0464 131.422 83.8267 131.915C83.6108 132.403 83.5028 132.977 83.5028 133.636C83.5028 134.311 83.6089 134.898 83.821 135.398C84.0369 135.898 84.34 136.286 84.7301 136.562C85.1241 136.839 85.5862 136.977 86.1165 136.977C86.465 136.977 86.7812 136.917 87.0653 136.795C87.3494 136.674 87.59 136.5 87.7869 136.273C87.9839 136.045 88.1241 135.773 88.2074 135.455H89.5483C89.4725 135.97 89.285 136.434 88.9858 136.847C88.6903 137.256 88.2983 137.581 87.8097 137.824C87.3248 138.062 86.7604 138.182 86.1165 138.182ZM91.5085 138V129.273H92.8494V138H91.5085ZM92.1903 127.818C91.929 127.818 91.7036 127.729 91.5142 127.551C91.3286 127.373 91.2358 127.159 91.2358 126.909C91.2358 126.659 91.3286 126.445 91.5142 126.267C91.7036 126.089 91.929 126 92.1903 126C92.4517 126 92.6752 126.089 92.8608 126.267C93.0502 126.445 93.1449 126.659 93.1449 126.909C93.1449 127.159 93.0502 127.373 92.8608 127.551C92.6752 127.729 92.4517 127.818 92.1903 127.818ZM98.6009 138.182C97.8736 138.182 97.2315 137.998 96.6747 137.631C96.1179 137.259 95.6823 136.737 95.3679 136.062C95.0535 135.384 94.8963 134.583 94.8963 133.659C94.8963 132.742 95.0535 131.947 95.3679 131.273C95.6823 130.598 96.1198 130.078 96.6804 129.71C97.241 129.343 97.8887 129.159 98.6236 129.159C99.1918 129.159 99.6406 129.254 99.9702 129.443C100.304 129.629 100.557 129.841 100.732 130.08C100.91 130.314 101.048 130.508 101.146 130.659H101.26V126.364H102.601V138H101.305V136.659H101.146C101.048 136.818 100.908 137.019 100.726 137.261C100.544 137.5 100.285 137.714 99.9474 137.903C99.6103 138.089 99.1615 138.182 98.6009 138.182ZM98.7827 136.977C99.3205 136.977 99.7751 136.837 100.146 136.557C100.518 136.273 100.8 135.881 100.993 135.381C101.186 134.877 101.283 134.295 101.283 133.636C101.283 132.985 101.188 132.415 100.999 131.926C100.809 131.434 100.529 131.051 100.158 130.778C99.7865 130.502 99.3281 130.364 98.7827 130.364C98.2145 130.364 97.741 130.509 97.3622 130.801C96.9872 131.089 96.705 131.481 96.5156 131.977C96.33 132.47 96.2372 133.023 96.2372 133.636C96.2372 134.258 96.3319 134.822 96.5213 135.33C96.7145 135.833 96.9986 136.235 97.3736 136.534C97.7524 136.83 98.2221 136.977 98.7827 136.977ZM108.902 138.182C108.061 138.182 107.336 137.996 106.726 137.625C106.12 137.25 105.652 136.727 105.322 136.057C104.997 135.383 104.834 134.598 104.834 133.705C104.834 132.811 104.997 132.023 105.322 131.341C105.652 130.655 106.11 130.121 106.697 129.739C107.288 129.352 107.978 129.159 108.766 129.159C109.22 129.159 109.669 129.235 110.112 129.386C110.555 129.538 110.959 129.784 111.322 130.125C111.686 130.462 111.976 130.909 112.192 131.466C112.408 132.023 112.516 132.708 112.516 133.523V134.091H105.788V132.932H111.152C111.152 132.439 111.054 132 110.857 131.614C110.663 131.227 110.387 130.922 110.027 130.699C109.671 130.475 109.25 130.364 108.766 130.364C108.232 130.364 107.769 130.496 107.379 130.761C106.993 131.023 106.696 131.364 106.487 131.784C106.279 132.205 106.175 132.655 106.175 133.136V133.909C106.175 134.568 106.288 135.127 106.516 135.585C106.747 136.04 107.067 136.386 107.476 136.625C107.885 136.86 108.36 136.977 108.902 136.977C109.254 136.977 109.572 136.928 109.857 136.83C110.144 136.727 110.393 136.576 110.601 136.375C110.809 136.17 110.97 135.917 111.084 135.614L112.379 135.977C112.243 136.417 112.014 136.803 111.692 137.136C111.37 137.466 110.972 137.723 110.499 137.909C110.025 138.091 109.493 138.182 108.902 138.182ZM120.737 131.227L119.533 131.568C119.457 131.367 119.345 131.172 119.197 130.983C119.054 130.79 118.857 130.631 118.607 130.506C118.357 130.381 118.036 130.318 117.646 130.318C117.112 130.318 116.667 130.441 116.311 130.688C115.959 130.93 115.783 131.239 115.783 131.614C115.783 131.947 115.904 132.21 116.146 132.403C116.389 132.597 116.768 132.758 117.283 132.886L118.578 133.205C119.358 133.394 119.94 133.684 120.322 134.074C120.705 134.46 120.896 134.958 120.896 135.568C120.896 136.068 120.752 136.515 120.464 136.909C120.18 137.303 119.783 137.614 119.271 137.841C118.76 138.068 118.165 138.182 117.487 138.182C116.597 138.182 115.86 137.989 115.277 137.602C114.694 137.216 114.324 136.652 114.169 135.909L115.442 135.591C115.563 136.061 115.792 136.413 116.129 136.648C116.47 136.883 116.915 137 117.464 137C118.089 137 118.586 136.867 118.953 136.602C119.324 136.333 119.51 136.011 119.51 135.636C119.51 135.333 119.404 135.08 119.192 134.875C118.98 134.667 118.654 134.511 118.214 134.409L116.76 134.068C115.961 133.879 115.374 133.585 114.999 133.188C114.627 132.786 114.442 132.284 114.442 131.682C114.442 131.189 114.58 130.754 114.857 130.375C115.137 129.996 115.518 129.699 115.999 129.483C116.483 129.267 117.033 129.159 117.646 129.159C118.51 129.159 119.188 129.348 119.68 129.727C120.177 130.106 120.529 130.606 120.737 131.227Z" fill="black"/>
<path d="M46.3097 163.727V171H45.429V164.651H45.3864L43.6108 165.83V164.935L45.429 163.727H46.3097Z" fill="black"/>
<path d="M77.3097 163.727V171H76.429V164.651H76.3864L74.6108 165.83V164.935L76.429 163.727H77.3097ZM81.7734 171.099C81.2384 171.099 80.7827 170.954 80.4062 170.663C80.0298 170.369 79.7422 169.944 79.5433 169.388C79.3445 168.829 79.245 168.154 79.245 167.364C79.245 166.578 79.3445 165.906 79.5433 165.35C79.7446 164.791 80.0334 164.365 80.4098 164.072C80.7886 163.776 81.2431 163.628 81.7734 163.628C82.3037 163.628 82.7571 163.776 83.1335 164.072C83.5123 164.365 83.8011 164.791 84 165.35C84.2012 165.906 84.3018 166.578 84.3018 167.364C84.3018 168.154 84.2024 168.829 84.0036 169.388C83.8047 169.944 83.517 170.369 83.1406 170.663C82.7642 170.954 82.3085 171.099 81.7734 171.099ZM81.7734 170.318C82.3037 170.318 82.7157 170.062 83.0092 169.551C83.3028 169.04 83.4496 168.311 83.4496 167.364C83.4496 166.734 83.3821 166.198 83.2472 165.755C83.1146 165.312 82.9228 164.975 82.6719 164.743C82.4233 164.511 82.1238 164.395 81.7734 164.395C81.2479 164.395 80.8371 164.654 80.5412 165.173C80.2453 165.689 80.0973 166.419 80.0973 167.364C80.0973 167.993 80.1636 168.528 80.2962 168.969C80.4287 169.409 80.6193 169.744 80.8679 169.974C81.1188 170.203 81.4207 170.318 81.7734 170.318ZM88.0234 171.099C87.4884 171.099 87.0327 170.954 86.6562 170.663C86.2798 170.369 85.9922 169.944 85.7933 169.388C85.5945 168.829 85.495 168.154 85.495 167.364C85.495 166.578 85.5945 165.906 85.7933 165.35C85.9946 164.791 86.2834 164.365 86.6598 164.072C87.0386 163.776 87.4931 163.628 88.0234 163.628C88.5537 163.628 89.0071 163.776 89.3835 164.072C89.7623 164.365 90.0511 164.791 90.25 165.35C90.4512 165.906 90.5518 166.578 90.5518 167.364C90.5518 168.154 90.4524 168.829 90.2536 169.388C90.0547 169.944 89.767 170.369 89.3906 170.663C89.0142 170.954 88.5585 171.099 88.0234 171.099ZM88.0234 170.318C88.5537 170.318 88.9657 170.062 89.2592 169.551C89.5528 169.04 89.6996 168.311 89.6996 167.364C89.6996 166.734 89.6321 166.198 89.4972 165.755C89.3646 165.312 89.1728 164.975 88.9219 164.743C88.6733 164.511 88.3738 164.395 88.0234 164.395C87.4979 164.395 87.0871 164.654 86.7912 165.173C86.4953 165.689 86.3473 166.419 86.3473 167.364C86.3473 167.993 86.4136 168.528 86.5462 168.969C86.6787 169.409 86.8693 169.744 87.1179 169.974C87.3688 170.203 87.6707 170.318 88.0234 170.318Z" fill="black"/>
<path d="M106.753 171V170.361L109.153 167.733C109.435 167.425 109.667 167.158 109.849 166.93C110.032 166.701 110.167 166.485 110.254 166.284C110.344 166.08 110.389 165.867 110.389 165.645C110.389 165.389 110.328 165.168 110.205 164.981C110.084 164.794 109.918 164.649 109.707 164.548C109.497 164.446 109.26 164.395 108.997 164.395C108.718 164.395 108.474 164.453 108.266 164.569C108.06 164.683 107.9 164.842 107.786 165.048C107.675 165.254 107.619 165.496 107.619 165.773H106.781C106.781 165.347 106.879 164.973 107.076 164.651C107.272 164.329 107.54 164.078 107.879 163.898C108.219 163.718 108.602 163.628 109.026 163.628C109.452 163.628 109.829 163.718 110.158 163.898C110.487 164.078 110.746 164.32 110.933 164.626C111.12 164.931 111.213 165.271 111.213 165.645C111.213 165.912 111.165 166.174 111.067 166.43C110.973 166.683 110.807 166.966 110.57 167.278C110.336 167.589 110.01 167.967 109.594 168.415L107.96 170.162V170.219H111.341V171H106.753ZM115.18 171.099C114.645 171.099 114.189 170.954 113.812 170.663C113.436 170.369 113.148 169.944 112.95 169.388C112.751 168.829 112.651 168.154 112.651 167.364C112.651 166.578 112.751 165.906 112.95 165.35C113.151 164.791 113.44 164.365 113.816 164.072C114.195 163.776 114.649 163.628 115.18 163.628C115.71 163.628 116.163 163.776 116.54 164.072C116.919 164.365 117.207 164.791 117.406 165.35C117.607 165.906 117.708 166.578 117.708 167.364C117.708 168.154 117.609 168.829 117.41 169.388C117.211 169.944 116.923 170.369 116.547 170.663C116.17 170.954 115.715 171.099 115.18 171.099ZM115.18 170.318C115.71 170.318 116.122 170.062 116.415 169.551C116.709 169.04 116.856 168.311 116.856 167.364C116.856 166.734 116.788 166.198 116.653 165.755C116.521 165.312 116.329 164.975 116.078 164.743C115.83 164.511 115.53 164.395 115.18 164.395C114.654 164.395 114.243 164.654 113.947 165.173C113.652 165.689 113.504 166.419 113.504 167.364C113.504 167.993 113.57 168.528 113.702 168.969C113.835 169.409 114.026 169.744 114.274 169.974C114.525 170.203 114.827 170.318 115.18 170.318ZM121.43 171.099C120.895 171.099 120.439 170.954 120.062 170.663C119.686 170.369 119.398 169.944 119.2 169.388C119.001 168.829 118.901 168.154 118.901 167.364C118.901 166.578 119.001 165.906 119.2 165.35C119.401 164.791 119.69 164.365 120.066 164.072C120.445 163.776 120.899 163.628 121.43 163.628C121.96 163.628 122.413 163.776 122.79 164.072C123.169 164.365 123.457 164.791 123.656 165.35C123.857 165.906 123.958 166.578 123.958 167.364C123.958 168.154 123.859 168.829 123.66 169.388C123.461 169.944 123.173 170.369 122.797 170.663C122.42 170.954 121.965 171.099 121.43 171.099ZM121.43 170.318C121.96 170.318 122.372 170.062 122.665 169.551C122.959 169.04 123.106 168.311 123.106 167.364C123.106 166.734 123.038 166.198 122.903 165.755C122.771 165.312 122.579 164.975 122.328 164.743C122.08 164.511 121.78 164.395 121.43 164.395C120.904 164.395 120.493 164.654 120.197 165.173C119.902 165.689 119.754 166.419 119.754 167.364C119.754 167.993 119.82 168.528 119.952 168.969C120.085 169.409 120.276 169.744 120.524 169.974C120.775 170.203 121.077 170.318 121.43 170.318ZM127.452 169.722V165.034H128.248V169.722H127.452ZM125.506 167.776V166.98H130.194V167.776H125.506Z" fill="black"/>
<path fill-rule="evenodd" clip-rule="evenodd" d="M60 144H44V156V162L49 156H60V144Z" fill="#80C341"/>
<path d="M60 144H75V156H60V144Z" fill="#FCEA45"/>
<path fill-rule="evenodd" clip-rule="evenodd" d="M91 144H75V156V162L80 156H91V144Z" fill="#EE852C"/>
<rect x="91" y="144" width="15" height="12" fill="#F80203"/>
<path fill-rule="evenodd" clip-rule="evenodd" d="M122 144H106V156V162.5L111 156H122V144Z" fill="#B727FF"/>
<path d="M35.2263 30V16.9091H37.2014V28.2997H43.1333V30H35.2263ZM49.4646 30.1982C48.4972 30.1982 47.6642 29.9915 46.9653 29.5781C46.2707 29.1605 45.7338 28.5746 45.3545 27.8203C44.9795 27.0618 44.792 26.1733 44.792 25.1548C44.792 24.1491 44.9795 23.2628 45.3545 22.4957C45.7338 21.7287 46.2622 21.13 46.9397 20.6996C47.6215 20.2692 48.4184 20.054 49.3303 20.054C49.8843 20.054 50.4213 20.1456 50.9411 20.3288C51.461 20.5121 51.9276 20.7997 52.341 21.1918C52.7544 21.5838 53.0803 22.093 53.319 22.7195C53.5576 23.3416 53.6769 24.098 53.6769 24.9886V25.6662H45.8722V24.2344H51.8041C51.8041 23.7315 51.7018 23.2862 51.4972 22.8984C51.2927 22.5064 51.0051 22.1974 50.6343 21.9716C50.2678 21.7457 49.8374 21.6328 49.3431 21.6328C48.8062 21.6328 48.3374 21.7649 47.9369 22.0291C47.5406 22.2891 47.2338 22.63 47.0164 23.0518C46.8034 23.4695 46.6968 23.9233 46.6968 24.4134V25.532C46.6968 26.1882 46.8119 26.7464 47.042 27.2067C47.2764 27.6669 47.6024 28.0185 48.02 28.2614C48.4376 28.5 48.9255 28.6193 49.4838 28.6193C49.846 28.6193 50.1762 28.5682 50.4745 28.4659C50.7728 28.3594 51.0306 28.2017 51.248 27.9929C51.4653 27.7841 51.6315 27.5263 51.7465 27.2195L53.5555 27.5455C53.4106 28.0781 53.1507 28.5447 52.7757 28.9453C52.4049 29.3416 51.9383 29.6506 51.3758 29.8722C50.8176 30.0895 50.1805 30.1982 49.4646 30.1982ZM59.914 33.8864C59.1341 33.8864 58.463 33.7841 57.9005 33.5795C57.3422 33.375 56.8863 33.1044 56.5326 32.7678C56.1789 32.4311 55.9147 32.0625 55.74 31.6619L57.3827 30.9844C57.4978 31.1719 57.6512 31.37 57.843 31.5788C58.039 31.7919 58.3032 31.973 58.6356 32.1222C58.9722 32.2713 59.4047 32.3459 59.9332 32.3459C60.6576 32.3459 61.2563 32.169 61.7293 31.8153C62.2023 31.4659 62.4388 30.9077 62.4388 30.1406V28.2102H62.3174C62.2023 28.419 62.0361 28.6513 61.8188 28.907C61.6057 29.1626 61.3117 29.3842 60.9367 29.5717C60.5617 29.7592 60.0738 29.853 59.4729 29.853C58.6974 29.853 57.9985 29.6719 57.3763 29.3097C56.7584 28.9432 56.2684 28.4041 55.9062 27.6925C55.5482 26.9766 55.3692 26.0966 55.3692 25.0526C55.3692 24.0085 55.5461 23.1136 55.8998 22.3679C56.2577 21.6222 56.7478 21.0511 57.3699 20.6548C57.9921 20.2543 58.6974 20.054 59.4857 20.054C60.0951 20.054 60.5873 20.1562 60.9623 20.3608C61.3373 20.5611 61.6292 20.7955 61.838 21.0639C62.051 21.3324 62.2151 21.5689 62.3302 21.7734H62.4708V20.1818H64.3437V30.2173C64.3437 31.0611 64.1476 31.7536 63.7556 32.2947C63.3635 32.8359 62.833 33.2365 62.164 33.4964C61.4992 33.7564 60.7492 33.8864 59.914 33.8864ZM59.8948 28.2678C60.4445 28.2678 60.909 28.1399 61.2883 27.8842C61.6718 27.6243 61.9616 27.2536 62.1576 26.772C62.3579 26.2862 62.458 25.7045 62.458 25.027C62.458 24.3665 62.36 23.7848 62.164 23.282C61.968 22.7791 61.6803 22.3871 61.301 22.1058C60.9218 21.8203 60.453 21.6776 59.8948 21.6776C59.3195 21.6776 58.8401 21.8267 58.4566 22.125C58.0731 22.419 57.7833 22.8196 57.5873 23.3267C57.3955 23.8338 57.2996 24.4006 57.2996 25.027C57.2996 25.6705 57.3976 26.2351 57.5937 26.7209C57.7897 27.2067 58.0795 27.5859 58.463 27.8587C58.8508 28.1314 59.328 28.2678 59.8948 28.2678ZM71.1384 30.1982C70.1711 30.1982 69.338 29.9915 68.6391 29.5781C67.9445 29.1605 67.4076 28.5746 67.0283 27.8203C66.6533 27.0618 66.4658 26.1733 66.4658 25.1548C66.4658 24.1491 66.6533 23.2628 67.0283 22.4957C67.4076 21.7287 67.936 21.13 68.6135 20.6996C69.2954 20.2692 70.0922 20.054 71.0042 20.054C71.5582 20.054 72.0951 20.1456 72.615 20.3288C73.1349 20.5121 73.6015 20.7997 74.0148 21.1918C74.4282 21.5838 74.7542 22.093 74.9928 22.7195C75.2314 23.3416 75.3508 24.098 75.3508 24.9886V25.6662H67.5461V24.2344H73.4779C73.4779 23.7315 73.3756 23.2862 73.1711 22.8984C72.9665 22.5064 72.6789 22.1974 72.3082 21.9716C71.9417 21.7457 71.5113 21.6328 71.017 21.6328C70.48 21.6328 70.0113 21.7649 69.6107 22.0291C69.2144 22.2891 68.9076 22.63 68.6903 23.0518C68.4772 23.4695 68.3707 23.9233 68.3707 24.4134V25.532C68.3707 26.1882 68.4857 26.7464 68.7158 27.2067C68.9502 27.6669 69.2762 28.0185 69.6938 28.2614C70.1114 28.5 70.5993 28.6193 71.1576 28.6193C71.5198 28.6193 71.8501 28.5682 72.1483 28.4659C72.4466 28.3594 72.7045 28.2017 72.9218 27.9929C73.1391 27.7841 73.3053 27.5263 73.4204 27.2195L75.2293 27.5455C75.0844 28.0781 74.8245 28.5447 74.4495 28.9453C74.0787 29.3416 73.6121 29.6506 73.0496 29.8722C72.4914 30.0895 71.8543 30.1982 71.1384 30.1982ZM79.3825 24.1705V30H77.4713V20.1818H79.3058V21.7798H79.4273C79.6531 21.2599 80.0068 20.8423 80.4884 20.527C80.9742 20.2116 81.5857 20.054 82.3229 20.054C82.9919 20.054 83.5779 20.1946 84.0807 20.4759C84.5835 20.7528 84.9735 21.1662 85.2504 21.7159C85.5274 22.2656 85.6659 22.9453 85.6659 23.755V30H83.7547V23.9851C83.7547 23.2734 83.5693 22.7173 83.1986 22.3168C82.8279 21.9119 82.3186 21.7095 81.6709 21.7095C81.2277 21.7095 80.8335 21.8054 80.4884 21.9972C80.1475 22.1889 79.8769 22.4702 79.6766 22.8409C79.4806 23.2074 79.3825 23.6506 79.3825 24.1705ZM91.9046 30.1918C91.1119 30.1918 90.4046 29.9893 89.7824 29.5845C89.1645 29.1754 88.6787 28.5937 88.325 27.8395C87.9756 27.081 87.8009 26.1712 87.8009 25.1101C87.8009 24.049 87.9777 23.1413 88.3314 22.3871C88.6894 21.6328 89.1794 21.0554 89.8016 20.6548C90.4237 20.2543 91.129 20.054 91.9173 20.054C92.5267 20.054 93.0168 20.1562 93.3875 20.3608C93.7625 20.5611 94.0523 20.7955 94.2568 21.0639C94.4656 21.3324 94.6276 21.5689 94.7426 21.7734H94.8577V16.9091H96.7689V30H94.9024V28.4723H94.7426C94.6276 28.6811 94.4614 28.9197 94.2441 29.1882C94.031 29.4567 93.7369 29.6911 93.3619 29.8913C92.9869 30.0916 92.5012 30.1918 91.9046 30.1918ZM92.3264 28.5618C92.8762 28.5618 93.3406 28.4169 93.7199 28.1271C94.1034 27.8331 94.3932 27.4261 94.5892 26.9062C94.7895 26.3864 94.8896 25.7812 94.8896 25.0909C94.8896 24.4091 94.7916 23.8125 94.5956 23.3011C94.3996 22.7898 94.1119 22.3913 93.7327 22.1058C93.3534 21.8203 92.8847 21.6776 92.3264 21.6776C91.7512 21.6776 91.2718 21.8267 90.8882 22.125C90.5047 22.4233 90.2149 22.8303 90.0189 23.3459C89.8271 23.8615 89.7313 24.4432 89.7313 25.0909C89.7313 25.7472 89.8293 26.3374 90.0253 26.8615C90.2213 27.3857 90.5111 27.8011 90.8946 28.108C91.2824 28.4105 91.7597 28.5618 92.3264 28.5618Z" fill="black"/>
</g>
<rect x="0.5" y="0.5" width="138" height="181" stroke="black" stroke-linejoin="round"/>
<defs>
<filter id="filter0_d_137_429" x="6" y="43" width="26" height="26" filterUnits="userSpaceOnUse" color-interpolation-filters="sRGB">
<feFlood flood-opacity="0" result="BackgroundImageFix"/>
<feColorMatrix in="SourceAlpha" type="matrix" values="0 0 0 0 0 0 0 0 0 0 0 0 0 0 0 0 0 0 127 0" result="hardAlpha"/>
<feOffset dy="1"/>
<feGaussianBlur stdDeviation="3"/>
<feColorMatrix type="matrix" values="0 0 0 0 0 0 0 0 0 0 0 0 0 0 0 0 0 0 0.15 0"/>
<feBlend mode="normal" in2="BackgroundImageFix" result="effect1_dropShadow_137_429"/>
<feBlend mode="normal" in="SourceGraphic" in2="effect1_dropShadow_137_429" result="shape"/>
</filter>
<filter id="filter1_b_137_429" x="1.5" y="127" width="36" height="36" filterUnits="userSpaceOnUse" color-interpolation-filters="sRGB">
<feFlood flood-opacity="0" result="BackgroundImageFix"/>
<feGaussianBlur in="BackgroundImageFix" stdDeviation="2"/>
<feComposite in2="SourceAlpha" operator="in" result="effect1_backgroundBlur_137_429"/>
<feBlend mode="normal" in="SourceGraphic" in2="effect1_backgroundBlur_137_429" result="shape"/>
</filter>
<clipPath id="clip0_137_429">
<rect x="1" y="1" width="137" height="180" fill="white"/>
</clipPath>
</defs>
</svg>
