<svg width="132" height="182" viewBox="0 0 132 182" fill="none" xmlns="http://www.w3.org/2000/svg">
<g clip-path="url(#clip0_36_874)">
<rect x="1" y="1" width="130" height="180" fill="white"/>
<circle opacity="0.3" cx="23" cy="55" r="12" fill="#6393F2"/>
<g filter="url(#filter0_d_36_874)">
<circle cx="23" cy="55" r="5" fill="#6393F2"/>
<circle cx="23" cy="55" r="6" stroke="white" stroke-width="2"/>
</g>
<g clip-path="url(#clip1_36_874)">
<g filter="url(#filter1_f_36_874)">
<ellipse cx="23" cy="117" rx="4" ry="2" fill="black" fill-opacity="0.12"/>
</g>
<mask id="path-7-outside-1_36_874" maskUnits="userSpaceOnUse" x="12" y="89" width="22" height="28" fill="black">
<rect fill="white" x="12" y="89" width="22" height="28"/>
<path fill-rule="evenodd" clip-rule="evenodd" d="M28.9159 108.063C31.3926 106.243 33 103.309 33 100C33 94.4772 28.5228 90 23 90C17.4772 90 13 94.4772 13 100C13 103.309 14.6074 106.243 17.0841 108.063C18.9661 109.481 21.619 111.718 22.2288 115.32C22.2934 115.701 22.6131 115.997 23 115.997C23.3869 115.997 23.7066 115.701 23.7712 115.32C24.381 111.718 27.0339 109.481 28.9159 108.063Z"/>
</mask>
<path fill-rule="evenodd" clip-rule="evenodd" d="M28.9159 108.063C31.3926 106.243 33 103.309 33 100C33 94.4772 28.5228 90 23 90C17.4772 90 13 94.4772 13 100C13 103.309 14.6074 106.243 17.0841 108.063C18.9661 109.481 21.619 111.718 22.2288 115.32C22.2934 115.701 22.6131 115.997 23 115.997C23.3869 115.997 23.7066 115.701 23.7712 115.32C24.381 111.718 27.0339 109.481 28.9159 108.063Z" fill="#EA352B"/>
<path d="M28.9159 108.063L28.3237 107.257L28.3141 107.265L28.9159 108.063ZM17.0841 108.063L17.6859 107.264L17.6763 107.257L17.0841 108.063ZM22.2288 115.32L21.2428 115.486H21.2428L22.2288 115.32ZM23.7712 115.32L24.7572 115.486H24.7572L23.7712 115.32ZM29.5081 108.869C32.2301 106.868 34 103.641 34 100H32C32 102.978 30.555 105.618 28.3237 107.257L29.5081 108.869ZM34 100C34 93.9249 29.0751 89 23 89V91C27.9706 91 32 95.0294 32 100H34ZM23 89C16.9249 89 12 93.9249 12 100H14C14 95.0294 18.0294 91 23 91V89ZM12 100C12 103.641 13.7699 106.868 16.4919 108.869L17.6763 107.257C15.445 105.618 14 102.978 14 100H12ZM23.2147 115.153C22.5345 111.136 19.5819 108.693 17.6859 107.265L16.4823 108.862C18.3502 110.269 20.7034 112.301 21.2428 115.486L23.2147 115.153ZM23 114.997C23.0686 114.997 23.1251 115.025 23.1593 115.055C23.1912 115.084 23.2089 115.118 23.2147 115.153L21.2428 115.486C21.3809 116.302 22.0789 116.997 23 116.997V114.997ZM22.7853 115.153C22.7911 115.118 22.8088 115.084 22.8407 115.055C22.8749 115.025 22.9314 114.997 23 114.997V116.997C23.9211 116.997 24.6191 116.302 24.7572 115.486L22.7853 115.153ZM28.3141 107.265C26.4181 108.693 23.4655 111.136 22.7853 115.153L24.7572 115.486C25.2966 112.301 27.6498 110.269 29.5177 108.862L28.3141 107.265Z" fill="url(#paint0_linear_36_874)" mask="url(#path-7-outside-1_36_874)"/>
</g>
<rect x="11.5" y="141.5" width="23" height="23" fill="#95B8FD" fill-opacity="0.2" stroke="black" stroke-linejoin="round"/>
<path d="M61.7727 50H60.3636C60.2803 49.5947 60.1345 49.2386 59.9261 48.9318C59.7216 48.625 59.4716 48.3674 59.1761 48.1591C58.8845 47.947 58.5606 47.7879 58.2045 47.6818C57.8485 47.5758 57.4773 47.5227 57.0909 47.5227C56.3864 47.5227 55.7481 47.7008 55.1761 48.0568C54.608 48.4129 54.1553 48.9375 53.8182 49.6307C53.4848 50.3239 53.3182 51.1742 53.3182 52.1818C53.3182 53.1894 53.4848 54.0398 53.8182 54.733C54.1553 55.4261 54.608 55.9508 55.1761 56.3068C55.7481 56.6629 56.3864 56.8409 57.0909 56.8409C57.4773 56.8409 57.8485 56.7879 58.2045 56.6818C58.5606 56.5758 58.8845 56.4186 59.1761 56.2102C59.4716 55.9981 59.7216 55.7386 59.9261 55.4318C60.1345 55.1212 60.2803 54.7652 60.3636 54.3636H61.7727C61.6667 54.9583 61.4735 55.4905 61.1932 55.9602C60.9129 56.4299 60.5644 56.8295 60.1477 57.1591C59.7311 57.4848 59.2633 57.733 58.7443 57.9034C58.2292 58.0739 57.678 58.1591 57.0909 58.1591C56.0985 58.1591 55.2159 57.9167 54.4432 57.4318C53.6705 56.947 53.0625 56.2576 52.6193 55.3636C52.1761 54.4697 51.9545 53.4091 51.9545 52.1818C51.9545 50.9545 52.1761 49.8939 52.6193 49C53.0625 48.1061 53.6705 47.4167 54.4432 46.9318C55.2159 46.447 56.0985 46.2045 57.0909 46.2045C57.678 46.2045 58.2292 46.2898 58.7443 46.4602C59.2633 46.6307 59.7311 46.8807 60.1477 47.2102C60.5644 47.536 60.9129 47.9337 61.1932 48.4034C61.4735 48.8693 61.6667 49.4015 61.7727 50ZM69.3679 54.4318V49.2727H70.7088V58H69.3679V56.5227H69.277C69.0724 56.9659 68.7543 57.3428 68.3224 57.6534C67.8906 57.9602 67.3452 58.1136 66.6861 58.1136C66.1406 58.1136 65.6558 57.9943 65.2315 57.7557C64.8073 57.5133 64.474 57.1496 64.2315 56.6648C63.9891 56.1761 63.8679 55.5606 63.8679 54.8182V49.2727H65.2088V54.7273C65.2088 55.3636 65.3868 55.8712 65.7429 56.25C66.1027 56.6288 66.5611 56.8182 67.1179 56.8182C67.4512 56.8182 67.7902 56.733 68.1349 56.5625C68.4834 56.392 68.7751 56.1307 69.0099 55.7784C69.2486 55.4261 69.3679 54.9773 69.3679 54.4318ZM73.1648 58V49.2727H74.4602V50.5909H74.5511C74.7102 50.1591 74.9981 49.8087 75.4148 49.5398C75.8314 49.2708 76.3011 49.1364 76.8239 49.1364C76.9223 49.1364 77.0455 49.1383 77.1932 49.142C77.3409 49.1458 77.4527 49.1515 77.5284 49.1591V50.5227C77.483 50.5114 77.3788 50.4943 77.2159 50.4716C77.0568 50.4451 76.8883 50.4318 76.7102 50.4318C76.286 50.4318 75.9072 50.5208 75.5739 50.6989C75.2443 50.8731 74.983 51.1155 74.7898 51.4261C74.6004 51.733 74.5057 52.0833 74.5057 52.4773V58H73.1648ZM79.1179 58V49.2727H80.4134V50.5909H80.5043C80.6634 50.1591 80.9512 49.8087 81.3679 49.5398C81.7846 49.2708 82.2543 49.1364 82.777 49.1364C82.8755 49.1364 82.9986 49.1383 83.1463 49.142C83.294 49.1458 83.4058 49.1515 83.4815 49.1591V50.5227C83.4361 50.5114 83.3319 50.4943 83.169 50.4716C83.0099 50.4451 82.8414 50.4318 82.6634 50.4318C82.2391 50.4318 81.8603 50.5208 81.527 50.6989C81.1974 50.8731 80.9361 51.1155 80.7429 51.4261C80.5535 51.733 80.4588 52.0833 80.4588 52.4773V58H79.1179ZM88.4645 58.1818C87.6236 58.1818 86.8982 57.9962 86.2884 57.625C85.6823 57.25 85.2145 56.7273 84.8849 56.0568C84.5592 55.3826 84.3963 54.5985 84.3963 53.7045C84.3963 52.8106 84.5592 52.0227 84.8849 51.3409C85.2145 50.6553 85.6728 50.1212 86.2599 49.7386C86.8509 49.3523 87.5402 49.1591 88.3281 49.1591C88.7827 49.1591 89.2315 49.2348 89.6747 49.3864C90.1179 49.5379 90.5213 49.7841 90.8849 50.125C91.2486 50.4621 91.5384 50.9091 91.7543 51.4659C91.9702 52.0227 92.0781 52.7083 92.0781 53.5227V54.0909H85.3509V52.9318H90.7145C90.7145 52.4394 90.616 52 90.419 51.6136C90.2259 51.2273 89.9493 50.9223 89.5895 50.6989C89.2334 50.4754 88.813 50.3636 88.3281 50.3636C87.794 50.3636 87.3319 50.4962 86.9418 50.7614C86.5554 51.0227 86.258 51.3636 86.0497 51.7841C85.8414 52.2045 85.7372 52.6553 85.7372 53.1364V53.9091C85.7372 54.5682 85.8509 55.1269 86.0781 55.5852C86.3092 56.0398 86.6293 56.3864 87.0384 56.625C87.4474 56.8598 87.9228 56.9773 88.4645 56.9773C88.8168 56.9773 89.1349 56.928 89.419 56.8295C89.7069 56.7273 89.955 56.5758 90.1634 56.375C90.3717 56.1705 90.5327 55.9167 90.6463 55.6136L91.9418 55.9773C91.8054 56.4167 91.5762 56.803 91.2543 57.1364C90.9323 57.4659 90.5346 57.7235 90.0611 57.9091C89.5876 58.0909 89.0554 58.1818 88.4645 58.1818ZM95.4588 52.75V58H94.1179V49.2727H95.4134V50.6364H95.527C95.7315 50.1932 96.0421 49.8371 96.4588 49.5682C96.8755 49.2955 97.4134 49.1591 98.0724 49.1591C98.6634 49.1591 99.1804 49.2803 99.6236 49.5227C100.067 49.7614 100.411 50.125 100.658 50.6136C100.904 51.0985 101.027 51.7121 101.027 52.4545V58H99.6861V52.5455C99.6861 51.8598 99.508 51.3258 99.152 50.9432C98.7959 50.5568 98.3073 50.3636 97.6861 50.3636C97.258 50.3636 96.8755 50.4564 96.5384 50.642C96.205 50.8277 95.9418 51.0985 95.7486 51.4545C95.5554 51.8106 95.4588 52.2424 95.4588 52.75ZM107.273 49.2727V50.4091H102.75V49.2727H107.273ZM104.068 47.1818H105.409V55.5C105.409 55.8788 105.464 56.1629 105.574 56.3523C105.688 56.5379 105.831 56.6629 106.006 56.7273C106.184 56.7879 106.371 56.8182 106.568 56.8182C106.716 56.8182 106.837 56.8106 106.932 56.7955C107.027 56.7765 107.102 56.7614 107.159 56.75L107.432 57.9545C107.341 57.9886 107.214 58.0227 107.051 58.0568C106.888 58.0947 106.682 58.1136 106.432 58.1136C106.053 58.1136 105.682 58.0322 105.318 57.8693C104.958 57.7064 104.659 57.4583 104.42 57.125C104.186 56.7917 104.068 56.3712 104.068 55.8636V47.1818ZM52.4091 77V65.3636H53.8182V75.75H59.2273V77H52.4091ZM64.7727 77.1818C63.9848 77.1818 63.2936 76.9943 62.6989 76.6193C62.108 76.2443 61.6458 75.7197 61.3125 75.0455C60.983 74.3712 60.8182 73.5833 60.8182 72.6818C60.8182 71.7727 60.983 70.9792 61.3125 70.3011C61.6458 69.6231 62.108 69.0966 62.6989 68.7216C63.2936 68.3466 63.9848 68.1591 64.7727 68.1591C65.5606 68.1591 66.25 68.3466 66.8409 68.7216C67.4356 69.0966 67.8977 69.6231 68.2273 70.3011C68.5606 70.9792 68.7273 71.7727 68.7273 72.6818C68.7273 73.5833 68.5606 74.3712 68.2273 75.0455C67.8977 75.7197 67.4356 76.2443 66.8409 76.6193C66.25 76.9943 65.5606 77.1818 64.7727 77.1818ZM64.7727 75.9773C65.3712 75.9773 65.8636 75.8239 66.25 75.517C66.6364 75.2102 66.9223 74.8068 67.108 74.3068C67.2936 73.8068 67.3864 73.2652 67.3864 72.6818C67.3864 72.0985 67.2936 71.5549 67.108 71.0511C66.9223 70.5473 66.6364 70.1402 66.25 69.8295C65.8636 69.5189 65.3712 69.3636 64.7727 69.3636C64.1742 69.3636 63.6818 69.5189 63.2955 69.8295C62.9091 70.1402 62.6231 70.5473 62.4375 71.0511C62.2519 71.5549 62.1591 72.0985 62.1591 72.6818C62.1591 73.2652 62.2519 73.8068 62.4375 74.3068C62.6231 74.8068 62.9091 75.2102 63.2955 75.517C63.6818 75.8239 64.1742 75.9773 64.7727 75.9773ZM74.3196 77.1818C73.5014 77.1818 72.7969 76.9886 72.206 76.6023C71.6151 76.2159 71.1605 75.6837 70.8423 75.0057C70.5241 74.3277 70.3651 73.553 70.3651 72.6818C70.3651 71.7955 70.5279 71.0133 70.8537 70.3352C71.1832 69.6534 71.6416 69.1212 72.2287 68.7386C72.8196 68.3523 73.509 68.1591 74.2969 68.1591C74.9105 68.1591 75.4635 68.2727 75.956 68.5C76.4484 68.7273 76.8518 69.0455 77.1662 69.4545C77.4806 69.8636 77.6757 70.3409 77.7514 70.8864H76.4105C76.3082 70.4886 76.081 70.1364 75.7287 69.8295C75.3802 69.5189 74.9105 69.3636 74.3196 69.3636C73.7969 69.3636 73.3385 69.5 72.9446 69.7727C72.5545 70.0417 72.2495 70.4223 72.0298 70.9148C71.8139 71.4034 71.706 71.9773 71.706 72.6364C71.706 73.3106 71.812 73.8977 72.0241 74.3977C72.2401 74.8977 72.5431 75.286 72.9332 75.5625C73.3272 75.839 73.7893 75.9773 74.3196 75.9773C74.6681 75.9773 74.9844 75.9167 75.2685 75.7955C75.5526 75.6742 75.7931 75.5 75.9901 75.2727C76.187 75.0455 76.3272 74.7727 76.4105 74.4545H77.7514C77.6757 74.9697 77.4882 75.4337 77.1889 75.8466C76.8935 76.2557 76.5014 76.5814 76.0128 76.8239C75.5279 77.0625 74.9635 77.1818 74.3196 77.1818ZM82.2798 77.2045C81.7268 77.2045 81.2249 77.1004 80.7741 76.892C80.3234 76.6799 79.9654 76.375 79.7003 75.9773C79.4351 75.5758 79.3026 75.0909 79.3026 74.5227C79.3026 74.0227 79.401 73.6174 79.598 73.3068C79.795 72.9924 80.0582 72.7462 80.3878 72.5682C80.7173 72.3902 81.081 72.2576 81.4787 72.1705C81.8802 72.0795 82.2836 72.0076 82.6889 71.9545C83.2192 71.8864 83.6491 71.8352 83.9787 71.8011C84.312 71.7633 84.5545 71.7008 84.706 71.6136C84.8613 71.5265 84.9389 71.375 84.9389 71.1591V71.1136C84.9389 70.553 84.7855 70.1174 84.4787 69.8068C84.1757 69.4962 83.7154 69.3409 83.098 69.3409C82.4579 69.3409 81.956 69.4811 81.5923 69.7614C81.2287 70.0417 80.973 70.3409 80.8253 70.6591L79.5526 70.2045C79.7798 69.6742 80.0829 69.2614 80.4616 68.9659C80.8442 68.6667 81.2609 68.4583 81.7116 68.3409C82.1662 68.2197 82.6132 68.1591 83.0526 68.1591C83.3329 68.1591 83.6548 68.1932 84.0185 68.2614C84.3859 68.3258 84.7401 68.4602 85.081 68.6648C85.4257 68.8693 85.7116 69.178 85.9389 69.5909C86.1662 70.0038 86.2798 70.5568 86.2798 71.25V77H84.9389V75.8182H84.8707C84.7798 76.0076 84.6283 76.2102 84.4162 76.4261C84.2041 76.642 83.9219 76.8258 83.5696 76.9773C83.2173 77.1288 82.7874 77.2045 82.2798 77.2045ZM82.4844 76C83.0147 76 83.4616 75.8958 83.8253 75.6875C84.1927 75.4792 84.4692 75.2102 84.6548 74.8807C84.8442 74.5511 84.9389 74.2045 84.9389 73.8409V72.6136C84.8821 72.6818 84.7571 72.7443 84.5639 72.8011C84.3745 72.8542 84.1548 72.9015 83.9048 72.9432C83.6586 72.9811 83.4181 73.0152 83.1832 73.0455C82.9522 73.072 82.7647 73.0947 82.6207 73.1136C82.2723 73.1591 81.9465 73.233 81.6435 73.3352C81.3442 73.4337 81.1018 73.5833 80.9162 73.7841C80.7344 73.9811 80.6435 74.25 80.6435 74.5909C80.6435 75.0568 80.8158 75.4091 81.1605 75.6477C81.509 75.8826 81.9503 76 82.4844 76ZM92.5227 68.2727V69.4091H88V68.2727H92.5227ZM89.3182 66.1818H90.6591V74.5C90.6591 74.8788 90.714 75.1629 90.8239 75.3523C90.9375 75.5379 91.0814 75.6629 91.2557 75.7273C91.4337 75.7879 91.6212 75.8182 91.8182 75.8182C91.9659 75.8182 92.0871 75.8106 92.1818 75.7955C92.2765 75.7765 92.3523 75.7614 92.4091 75.75L92.6818 76.9545C92.5909 76.9886 92.464 77.0227 92.3011 77.0568C92.1383 77.0947 91.9318 77.1136 91.6818 77.1136C91.303 77.1136 90.9318 77.0322 90.5682 76.8693C90.2083 76.7064 89.9091 76.4583 89.6705 76.125C89.4356 75.7917 89.3182 75.3712 89.3182 74.8636V66.1818ZM94.5398 77V68.2727H95.8807V77H94.5398ZM95.2216 66.8182C94.9602 66.8182 94.7348 66.7292 94.5455 66.5511C94.3598 66.3731 94.267 66.1591 94.267 65.9091C94.267 65.6591 94.3598 65.4451 94.5455 65.267C94.7348 65.089 94.9602 65 95.2216 65C95.483 65 95.7064 65.089 95.892 65.267C96.0814 65.4451 96.1761 65.6591 96.1761 65.9091C96.1761 66.1591 96.0814 66.3731 95.892 66.5511C95.7064 66.7292 95.483 66.8182 95.2216 66.8182ZM101.882 77.1818C101.094 77.1818 100.403 76.9943 99.8082 76.6193C99.2173 76.2443 98.7552 75.7197 98.4219 75.0455C98.0923 74.3712 97.9276 73.5833 97.9276 72.6818C97.9276 71.7727 98.0923 70.9792 98.4219 70.3011C98.7552 69.6231 99.2173 69.0966 99.8082 68.7216C100.403 68.3466 101.094 68.1591 101.882 68.1591C102.67 68.1591 103.359 68.3466 103.95 68.7216C104.545 69.0966 105.007 69.6231 105.337 70.3011C105.67 70.9792 105.837 71.7727 105.837 72.6818C105.837 73.5833 105.67 74.3712 105.337 75.0455C105.007 75.7197 104.545 76.2443 103.95 76.6193C103.359 76.9943 102.67 77.1818 101.882 77.1818ZM101.882 75.9773C102.481 75.9773 102.973 75.8239 103.359 75.517C103.746 75.2102 104.032 74.8068 104.217 74.3068C104.403 73.8068 104.496 73.2652 104.496 72.6818C104.496 72.0985 104.403 71.5549 104.217 71.0511C104.032 70.5473 103.746 70.1402 103.359 69.8295C102.973 69.5189 102.481 69.3636 101.882 69.3636C101.284 69.3636 100.791 69.5189 100.405 69.8295C100.018 70.1402 99.7325 70.5473 99.5469 71.0511C99.3613 71.5549 99.2685 72.0985 99.2685 72.6818C99.2685 73.2652 99.3613 73.8068 99.5469 74.3068C99.7325 74.8068 100.018 75.2102 100.405 75.517C100.791 75.8239 101.284 75.9773 101.882 75.9773ZM109.224 71.75V77H107.884V68.2727H109.179V69.6364H109.293C109.497 69.1932 109.808 68.8371 110.224 68.5682C110.641 68.2955 111.179 68.1591 111.838 68.1591C112.429 68.1591 112.946 68.2803 113.389 68.5227C113.832 68.7614 114.177 69.125 114.423 69.6136C114.67 70.0985 114.793 70.7121 114.793 71.4545V77H113.452V71.5455C113.452 70.8598 113.274 70.3258 112.918 69.9432C112.562 69.5568 112.073 69.3636 111.452 69.3636C111.024 69.3636 110.641 69.4564 110.304 69.642C109.971 69.8277 109.707 70.0985 109.514 70.4545C109.321 70.8106 109.224 71.2424 109.224 71.75Z" fill="black"/>
<path d="M52.4091 116V104.364H56.3409C57.2538 104.364 58 104.528 58.5795 104.858C59.1629 105.184 59.5947 105.625 59.875 106.182C60.1553 106.739 60.2955 107.36 60.2955 108.045C60.2955 108.731 60.1553 109.354 59.875 109.915C59.5985 110.475 59.1705 110.922 58.5909 111.256C58.0114 111.585 57.2689 111.75 56.3636 111.75H53.5455V110.5H56.3182C56.9432 110.5 57.4451 110.392 57.8239 110.176C58.2027 109.96 58.4773 109.669 58.6477 109.301C58.822 108.93 58.9091 108.511 58.9091 108.045C58.9091 107.58 58.822 107.163 58.6477 106.795C58.4773 106.428 58.2008 106.14 57.8182 105.932C57.4356 105.72 56.928 105.614 56.2955 105.614H53.8182V116H52.4091ZM65.9489 116.182C65.108 116.182 64.3826 115.996 63.7727 115.625C63.1667 115.25 62.6989 114.727 62.3693 114.057C62.0436 113.383 61.8807 112.598 61.8807 111.705C61.8807 110.811 62.0436 110.023 62.3693 109.341C62.6989 108.655 63.1572 108.121 63.7443 107.739C64.3352 107.352 65.0246 107.159 65.8125 107.159C66.267 107.159 66.7159 107.235 67.1591 107.386C67.6023 107.538 68.0057 107.784 68.3693 108.125C68.733 108.462 69.0227 108.909 69.2386 109.466C69.4545 110.023 69.5625 110.708 69.5625 111.523V112.091H62.8352V110.932H68.1989C68.1989 110.439 68.1004 110 67.9034 109.614C67.7102 109.227 67.4337 108.922 67.0739 108.699C66.7178 108.475 66.2973 108.364 65.8125 108.364C65.2784 108.364 64.8163 108.496 64.4261 108.761C64.0398 109.023 63.7424 109.364 63.5341 109.784C63.3258 110.205 63.2216 110.655 63.2216 111.136V111.909C63.2216 112.568 63.3352 113.127 63.5625 113.585C63.7936 114.04 64.1136 114.386 64.5227 114.625C64.9318 114.86 65.4072 114.977 65.9489 114.977C66.3011 114.977 66.6193 114.928 66.9034 114.83C67.1913 114.727 67.4394 114.576 67.6477 114.375C67.8561 114.17 68.017 113.917 68.1307 113.614L69.4261 113.977C69.2898 114.417 69.0606 114.803 68.7386 115.136C68.4167 115.466 68.0189 115.723 67.5455 115.909C67.072 116.091 66.5398 116.182 65.9489 116.182ZM77.7841 109.227L76.5795 109.568C76.5038 109.367 76.392 109.172 76.2443 108.983C76.1004 108.79 75.9034 108.631 75.6534 108.506C75.4034 108.381 75.0833 108.318 74.6932 108.318C74.1591 108.318 73.714 108.441 73.358 108.688C73.0057 108.93 72.8295 109.239 72.8295 109.614C72.8295 109.947 72.9508 110.21 73.1932 110.403C73.4356 110.597 73.8144 110.758 74.3295 110.886L75.625 111.205C76.4053 111.394 76.9867 111.684 77.3693 112.074C77.7519 112.46 77.9432 112.958 77.9432 113.568C77.9432 114.068 77.7992 114.515 77.5114 114.909C77.2273 115.303 76.8295 115.614 76.3182 115.841C75.8068 116.068 75.2121 116.182 74.5341 116.182C73.6439 116.182 72.9072 115.989 72.3239 115.602C71.7405 115.216 71.3712 114.652 71.2159 113.909L72.4886 113.591C72.6098 114.061 72.839 114.413 73.1761 114.648C73.517 114.883 73.9621 115 74.5114 115C75.1364 115 75.6326 114.867 76 114.602C76.3712 114.333 76.5568 114.011 76.5568 113.636C76.5568 113.333 76.4508 113.08 76.2386 112.875C76.0265 112.667 75.7008 112.511 75.2614 112.409L73.8068 112.068C73.0076 111.879 72.4205 111.585 72.0455 111.188C71.6742 110.786 71.4886 110.284 71.4886 109.682C71.4886 109.189 71.6269 108.754 71.9034 108.375C72.1837 107.996 72.5644 107.699 73.0455 107.483C73.5303 107.267 74.0795 107.159 74.6932 107.159C75.5568 107.159 76.2348 107.348 76.7273 107.727C77.2235 108.106 77.5758 108.606 77.7841 109.227ZM83.7571 107.273V108.409H79.2344V107.273H83.7571ZM80.5526 105.182H81.8935V113.5C81.8935 113.879 81.9484 114.163 82.0582 114.352C82.1719 114.538 82.3158 114.663 82.4901 114.727C82.6681 114.788 82.8556 114.818 83.0526 114.818C83.2003 114.818 83.3215 114.811 83.4162 114.795C83.5109 114.777 83.5866 114.761 83.6435 114.75L83.9162 115.955C83.8253 115.989 83.6984 116.023 83.5355 116.057C83.3726 116.095 83.1662 116.114 82.9162 116.114C82.5374 116.114 82.1662 116.032 81.8026 115.869C81.4427 115.706 81.1435 115.458 80.9048 115.125C80.67 114.792 80.5526 114.371 80.5526 113.864V105.182ZM85.7741 116V107.273H87.1151V116H85.7741ZM86.456 105.818C86.1946 105.818 85.9692 105.729 85.7798 105.551C85.5942 105.373 85.5014 105.159 85.5014 104.909C85.5014 104.659 85.5942 104.445 85.7798 104.267C85.9692 104.089 86.1946 104 86.456 104C86.7173 104 86.9408 104.089 87.1264 104.267C87.3158 104.445 87.4105 104.659 87.4105 104.909C87.4105 105.159 87.3158 105.373 87.1264 105.551C86.9408 105.729 86.7173 105.818 86.456 105.818ZM93.1165 116.182C92.2983 116.182 91.5938 115.989 91.0028 115.602C90.4119 115.216 89.9574 114.684 89.6392 114.006C89.321 113.328 89.1619 112.553 89.1619 111.682C89.1619 110.795 89.3248 110.013 89.6506 109.335C89.9801 108.653 90.4384 108.121 91.0256 107.739C91.6165 107.352 92.3059 107.159 93.0938 107.159C93.7074 107.159 94.2604 107.273 94.7528 107.5C95.2453 107.727 95.6487 108.045 95.9631 108.455C96.2775 108.864 96.4725 109.341 96.5483 109.886H95.2074C95.1051 109.489 94.8778 109.136 94.5256 108.83C94.1771 108.519 93.7074 108.364 93.1165 108.364C92.5938 108.364 92.1354 108.5 91.7415 108.773C91.3513 109.042 91.0464 109.422 90.8267 109.915C90.6108 110.403 90.5028 110.977 90.5028 111.636C90.5028 112.311 90.6089 112.898 90.821 113.398C91.0369 113.898 91.34 114.286 91.7301 114.562C92.1241 114.839 92.5862 114.977 93.1165 114.977C93.465 114.977 93.7812 114.917 94.0653 114.795C94.3494 114.674 94.59 114.5 94.7869 114.273C94.9839 114.045 95.1241 113.773 95.2074 113.455H96.5483C96.4725 113.97 96.285 114.434 95.9858 114.847C95.6903 115.256 95.2983 115.581 94.8097 115.824C94.3248 116.062 93.7604 116.182 93.1165 116.182ZM98.5085 116V107.273H99.8494V116H98.5085ZM99.1903 105.818C98.929 105.818 98.7036 105.729 98.5142 105.551C98.3286 105.373 98.2358 105.159 98.2358 104.909C98.2358 104.659 98.3286 104.445 98.5142 104.267C98.7036 104.089 98.929 104 99.1903 104C99.4517 104 99.6752 104.089 99.8608 104.267C100.05 104.445 100.145 104.659 100.145 104.909C100.145 105.159 100.05 105.373 99.8608 105.551C99.6752 105.729 99.4517 105.818 99.1903 105.818ZM105.601 116.182C104.874 116.182 104.232 115.998 103.675 115.631C103.118 115.259 102.682 114.737 102.368 114.062C102.054 113.384 101.896 112.583 101.896 111.659C101.896 110.742 102.054 109.947 102.368 109.273C102.682 108.598 103.12 108.078 103.68 107.71C104.241 107.343 104.889 107.159 105.624 107.159C106.192 107.159 106.641 107.254 106.97 107.443C107.304 107.629 107.557 107.841 107.732 108.08C107.91 108.314 108.048 108.508 108.146 108.659H108.26V104.364H109.601V116H108.305V114.659H108.146C108.048 114.818 107.908 115.019 107.726 115.261C107.544 115.5 107.285 115.714 106.947 115.903C106.61 116.089 106.161 116.182 105.601 116.182ZM105.783 114.977C106.321 114.977 106.775 114.837 107.146 114.557C107.518 114.273 107.8 113.881 107.993 113.381C108.186 112.877 108.283 112.295 108.283 111.636C108.283 110.985 108.188 110.415 107.999 109.926C107.809 109.434 107.529 109.051 107.158 108.778C106.786 108.502 106.328 108.364 105.783 108.364C105.214 108.364 104.741 108.509 104.362 108.801C103.987 109.089 103.705 109.481 103.516 109.977C103.33 110.47 103.237 111.023 103.237 111.636C103.237 112.258 103.332 112.822 103.521 113.33C103.714 113.833 103.999 114.235 104.374 114.534C104.752 114.83 105.222 114.977 105.783 114.977ZM115.902 116.182C115.061 116.182 114.336 115.996 113.726 115.625C113.12 115.25 112.652 114.727 112.322 114.057C111.997 113.383 111.834 112.598 111.834 111.705C111.834 110.811 111.997 110.023 112.322 109.341C112.652 108.655 113.11 108.121 113.697 107.739C114.288 107.352 114.978 107.159 115.766 107.159C116.22 107.159 116.669 107.235 117.112 107.386C117.555 107.538 117.959 107.784 118.322 108.125C118.686 108.462 118.976 108.909 119.192 109.466C119.408 110.023 119.516 110.708 119.516 111.523V112.091H112.788V110.932H118.152C118.152 110.439 118.054 110 117.857 109.614C117.663 109.227 117.387 108.922 117.027 108.699C116.671 108.475 116.25 108.364 115.766 108.364C115.232 108.364 114.769 108.496 114.379 108.761C113.993 109.023 113.696 109.364 113.487 109.784C113.279 110.205 113.175 110.655 113.175 111.136V111.909C113.175 112.568 113.288 113.127 113.516 113.585C113.747 114.04 114.067 114.386 114.476 114.625C114.885 114.86 115.36 114.977 115.902 114.977C116.254 114.977 116.572 114.928 116.857 114.83C117.144 114.727 117.393 114.576 117.601 114.375C117.809 114.17 117.97 113.917 118.084 113.614L119.379 113.977C119.243 114.417 119.014 114.803 118.692 115.136C118.37 115.466 117.972 115.723 117.499 115.909C117.025 116.091 116.493 116.182 115.902 116.182Z" fill="black"/>
<path d="M52.4091 155V143.364H56.3409C57.25 143.364 57.9962 143.519 58.5795 143.83C59.1629 144.136 59.5947 144.559 59.875 145.097C60.1553 145.634 60.2955 146.246 60.2955 146.932C60.2955 147.617 60.1553 148.225 59.875 148.756C59.5947 149.286 59.1648 149.703 58.5852 150.006C58.0057 150.305 57.2652 150.455 56.3636 150.455H53.1818V149.182H56.3182C56.9394 149.182 57.4394 149.091 57.8182 148.909C58.2008 148.727 58.4773 148.47 58.6477 148.136C58.822 147.799 58.9091 147.398 58.9091 146.932C58.9091 146.466 58.822 146.059 58.6477 145.71C58.4735 145.362 58.1951 145.093 57.8125 144.903C57.4299 144.71 56.9242 144.614 56.2955 144.614H53.8182V155H52.4091ZM57.8864 149.773L60.75 155H59.1136L56.2955 149.773H57.8864ZM65.0298 155.205C64.4768 155.205 63.9749 155.1 63.5241 154.892C63.0734 154.68 62.7154 154.375 62.4503 153.977C62.1851 153.576 62.0526 153.091 62.0526 152.523C62.0526 152.023 62.151 151.617 62.348 151.307C62.545 150.992 62.8082 150.746 63.1378 150.568C63.4673 150.39 63.831 150.258 64.2287 150.17C64.6302 150.08 65.0336 150.008 65.4389 149.955C65.9692 149.886 66.3991 149.835 66.7287 149.801C67.062 149.763 67.3045 149.701 67.456 149.614C67.6113 149.527 67.6889 149.375 67.6889 149.159V149.114C67.6889 148.553 67.5355 148.117 67.2287 147.807C66.9257 147.496 66.4654 147.341 65.848 147.341C65.2079 147.341 64.706 147.481 64.3423 147.761C63.9787 148.042 63.723 148.341 63.5753 148.659L62.3026 148.205C62.5298 147.674 62.8329 147.261 63.2116 146.966C63.5942 146.667 64.0109 146.458 64.4616 146.341C64.9162 146.22 65.3632 146.159 65.8026 146.159C66.0829 146.159 66.4048 146.193 66.7685 146.261C67.1359 146.326 67.4901 146.46 67.831 146.665C68.1757 146.869 68.4616 147.178 68.6889 147.591C68.9162 148.004 69.0298 148.557 69.0298 149.25V155H67.6889V153.818H67.6207C67.5298 154.008 67.3783 154.21 67.1662 154.426C66.9541 154.642 66.6719 154.826 66.3196 154.977C65.9673 155.129 65.5374 155.205 65.0298 155.205ZM65.2344 154C65.7647 154 66.2116 153.896 66.5753 153.688C66.9427 153.479 67.2192 153.21 67.4048 152.881C67.5942 152.551 67.6889 152.205 67.6889 151.841V150.614C67.6321 150.682 67.5071 150.744 67.3139 150.801C67.1245 150.854 66.9048 150.902 66.6548 150.943C66.4086 150.981 66.1681 151.015 65.9332 151.045C65.7022 151.072 65.5147 151.095 65.3707 151.114C65.0223 151.159 64.6965 151.233 64.3935 151.335C64.0942 151.434 63.8518 151.583 63.6662 151.784C63.4844 151.981 63.3935 152.25 63.3935 152.591C63.3935 153.057 63.5658 153.409 63.9105 153.648C64.259 153.883 64.7003 154 65.2344 154ZM74.7727 155.182C74.0455 155.182 73.4034 154.998 72.8466 154.631C72.2898 154.259 71.8542 153.737 71.5398 153.062C71.2254 152.384 71.0682 151.583 71.0682 150.659C71.0682 149.742 71.2254 148.947 71.5398 148.273C71.8542 147.598 72.2917 147.078 72.8523 146.71C73.4129 146.343 74.0606 146.159 74.7955 146.159C75.3636 146.159 75.8125 146.254 76.142 146.443C76.4754 146.629 76.7292 146.841 76.9034 147.08C77.0814 147.314 77.2197 147.508 77.3182 147.659H77.4318V143.364H78.7727V155H77.4773V153.659H77.3182C77.2197 153.818 77.0795 154.019 76.8977 154.261C76.7159 154.5 76.4564 154.714 76.1193 154.903C75.7822 155.089 75.3333 155.182 74.7727 155.182ZM74.9545 153.977C75.4924 153.977 75.947 153.837 76.3182 153.557C76.6894 153.273 76.9716 152.881 77.1648 152.381C77.358 151.877 77.4545 151.295 77.4545 150.636C77.4545 149.985 77.3598 149.415 77.1705 148.926C76.9811 148.434 76.7008 148.051 76.3295 147.778C75.9583 147.502 75.5 147.364 74.9545 147.364C74.3864 147.364 73.9129 147.509 73.5341 147.801C73.1591 148.089 72.8769 148.481 72.6875 148.977C72.5019 149.47 72.4091 150.023 72.4091 150.636C72.4091 151.258 72.5038 151.822 72.6932 152.33C72.8864 152.833 73.1705 153.235 73.5455 153.534C73.9242 153.83 74.3939 153.977 74.9545 153.977ZM81.4148 155V146.273H82.7557V155H81.4148ZM82.0966 144.818C81.8352 144.818 81.6098 144.729 81.4205 144.551C81.2348 144.373 81.142 144.159 81.142 143.909C81.142 143.659 81.2348 143.445 81.4205 143.267C81.6098 143.089 81.8352 143 82.0966 143C82.358 143 82.5814 143.089 82.767 143.267C82.9564 143.445 83.0511 143.659 83.0511 143.909C83.0511 144.159 82.9564 144.373 82.767 144.551C82.5814 144.729 82.358 144.818 82.0966 144.818ZM90.7116 151.432V146.273H92.0526V155H90.7116V153.523H90.6207C90.4162 153.966 90.098 154.343 89.6662 154.653C89.2344 154.96 88.6889 155.114 88.0298 155.114C87.4844 155.114 86.9995 154.994 86.5753 154.756C86.151 154.513 85.8177 154.15 85.5753 153.665C85.3329 153.176 85.2116 152.561 85.2116 151.818V146.273H86.5526V151.727C86.5526 152.364 86.7306 152.871 87.0866 153.25C87.4465 153.629 87.9048 153.818 88.4616 153.818C88.795 153.818 89.134 153.733 89.4787 153.562C89.8272 153.392 90.1188 153.131 90.3537 152.778C90.5923 152.426 90.7116 151.977 90.7116 151.432ZM100.69 148.227L99.4858 148.568C99.41 148.367 99.2983 148.172 99.1506 147.983C99.0066 147.79 98.8097 147.631 98.5597 147.506C98.3097 147.381 97.9896 147.318 97.5994 147.318C97.0653 147.318 96.6203 147.441 96.2642 147.688C95.9119 147.93 95.7358 148.239 95.7358 148.614C95.7358 148.947 95.857 149.21 96.0994 149.403C96.3419 149.597 96.7206 149.758 97.2358 149.886L98.5312 150.205C99.3116 150.394 99.893 150.684 100.276 151.074C100.658 151.46 100.849 151.958 100.849 152.568C100.849 153.068 100.705 153.515 100.418 153.909C100.134 154.303 99.7358 154.614 99.2244 154.841C98.7131 155.068 98.1184 155.182 97.4403 155.182C96.5502 155.182 95.8134 154.989 95.2301 154.602C94.6468 154.216 94.2775 153.652 94.1222 152.909L95.3949 152.591C95.5161 153.061 95.7453 153.413 96.0824 153.648C96.4233 153.883 96.8684 154 97.4176 154C98.0426 154 98.5388 153.867 98.9062 153.602C99.2775 153.333 99.4631 153.011 99.4631 152.636C99.4631 152.333 99.357 152.08 99.1449 151.875C98.9328 151.667 98.607 151.511 98.1676 151.409L96.7131 151.068C95.9138 150.879 95.3267 150.585 94.9517 150.188C94.5805 149.786 94.3949 149.284 94.3949 148.682C94.3949 148.189 94.5331 147.754 94.8097 147.375C95.09 146.996 95.4706 146.699 95.9517 146.483C96.4366 146.267 96.9858 146.159 97.5994 146.159C98.4631 146.159 99.1411 146.348 99.6335 146.727C100.13 147.106 100.482 147.606 100.69 148.227Z" fill="black"/>
<path d="M35.2263 30V16.9091H37.2014V28.2997H43.1333V30H35.2263ZM49.4646 30.1982C48.4972 30.1982 47.6642 29.9915 46.9653 29.5781C46.2707 29.1605 45.7338 28.5746 45.3545 27.8203C44.9795 27.0618 44.792 26.1733 44.792 25.1548C44.792 24.1491 44.9795 23.2628 45.3545 22.4957C45.7338 21.7287 46.2622 21.13 46.9397 20.6996C47.6215 20.2692 48.4184 20.054 49.3303 20.054C49.8843 20.054 50.4213 20.1456 50.9411 20.3288C51.461 20.5121 51.9276 20.7997 52.341 21.1918C52.7544 21.5838 53.0803 22.093 53.319 22.7195C53.5576 23.3416 53.6769 24.098 53.6769 24.9886V25.6662H45.8722V24.2344H51.8041C51.8041 23.7315 51.7018 23.2862 51.4972 22.8984C51.2927 22.5064 51.0051 22.1974 50.6343 21.9716C50.2678 21.7457 49.8374 21.6328 49.3431 21.6328C48.8062 21.6328 48.3374 21.7649 47.9369 22.0291C47.5406 22.2891 47.2338 22.63 47.0164 23.0518C46.8034 23.4695 46.6968 23.9233 46.6968 24.4134V25.532C46.6968 26.1882 46.8119 26.7464 47.042 27.2067C47.2764 27.6669 47.6024 28.0185 48.02 28.2614C48.4376 28.5 48.9255 28.6193 49.4838 28.6193C49.846 28.6193 50.1762 28.5682 50.4745 28.4659C50.7728 28.3594 51.0306 28.2017 51.248 27.9929C51.4653 27.7841 51.6315 27.5263 51.7465 27.2195L53.5555 27.5455C53.4106 28.0781 53.1507 28.5447 52.7757 28.9453C52.4049 29.3416 51.9383 29.6506 51.3758 29.8722C50.8176 30.0895 50.1805 30.1982 49.4646 30.1982ZM59.914 33.8864C59.1341 33.8864 58.463 33.7841 57.9005 33.5795C57.3422 33.375 56.8863 33.1044 56.5326 32.7678C56.1789 32.4311 55.9147 32.0625 55.74 31.6619L57.3827 30.9844C57.4978 31.1719 57.6512 31.37 57.843 31.5788C58.039 31.7919 58.3032 31.973 58.6356 32.1222C58.9722 32.2713 59.4047 32.3459 59.9332 32.3459C60.6576 32.3459 61.2563 32.169 61.7293 31.8153C62.2023 31.4659 62.4388 30.9077 62.4388 30.1406V28.2102H62.3174C62.2023 28.419 62.0361 28.6513 61.8188 28.907C61.6057 29.1626 61.3117 29.3842 60.9367 29.5717C60.5617 29.7592 60.0738 29.853 59.4729 29.853C58.6974 29.853 57.9985 29.6719 57.3763 29.3097C56.7584 28.9432 56.2684 28.4041 55.9062 27.6925C55.5482 26.9766 55.3692 26.0966 55.3692 25.0526C55.3692 24.0085 55.5461 23.1136 55.8998 22.3679C56.2577 21.6222 56.7478 21.0511 57.3699 20.6548C57.9921 20.2543 58.6974 20.054 59.4857 20.054C60.0951 20.054 60.5873 20.1562 60.9623 20.3608C61.3373 20.5611 61.6292 20.7955 61.838 21.0639C62.051 21.3324 62.2151 21.5689 62.3302 21.7734H62.4708V20.1818H64.3437V30.2173C64.3437 31.0611 64.1476 31.7536 63.7556 32.2947C63.3635 32.8359 62.833 33.2365 62.164 33.4964C61.4992 33.7564 60.7492 33.8864 59.914 33.8864ZM59.8948 28.2678C60.4445 28.2678 60.909 28.1399 61.2883 27.8842C61.6718 27.6243 61.9616 27.2536 62.1576 26.772C62.3579 26.2862 62.458 25.7045 62.458 25.027C62.458 24.3665 62.36 23.7848 62.164 23.282C61.968 22.7791 61.6803 22.3871 61.301 22.1058C60.9218 21.8203 60.453 21.6776 59.8948 21.6776C59.3195 21.6776 58.8401 21.8267 58.4566 22.125C58.0731 22.419 57.7833 22.8196 57.5873 23.3267C57.3955 23.8338 57.2996 24.4006 57.2996 25.027C57.2996 25.6705 57.3976 26.2351 57.5937 26.7209C57.7897 27.2067 58.0795 27.5859 58.463 27.8587C58.8508 28.1314 59.328 28.2678 59.8948 28.2678ZM71.1384 30.1982C70.1711 30.1982 69.338 29.9915 68.6391 29.5781C67.9445 29.1605 67.4076 28.5746 67.0283 27.8203C66.6533 27.0618 66.4658 26.1733 66.4658 25.1548C66.4658 24.1491 66.6533 23.2628 67.0283 22.4957C67.4076 21.7287 67.936 21.13 68.6135 20.6996C69.2954 20.2692 70.0922 20.054 71.0042 20.054C71.5582 20.054 72.0951 20.1456 72.615 20.3288C73.1349 20.5121 73.6015 20.7997 74.0148 21.1918C74.4282 21.5838 74.7542 22.093 74.9928 22.7195C75.2314 23.3416 75.3508 24.098 75.3508 24.9886V25.6662H67.5461V24.2344H73.4779C73.4779 23.7315 73.3756 23.2862 73.1711 22.8984C72.9665 22.5064 72.6789 22.1974 72.3082 21.9716C71.9417 21.7457 71.5113 21.6328 71.017 21.6328C70.48 21.6328 70.0113 21.7649 69.6107 22.0291C69.2144 22.2891 68.9076 22.63 68.6903 23.0518C68.4772 23.4695 68.3707 23.9233 68.3707 24.4134V25.532C68.3707 26.1882 68.4857 26.7464 68.7158 27.2067C68.9502 27.6669 69.2762 28.0185 69.6938 28.2614C70.1114 28.5 70.5993 28.6193 71.1576 28.6193C71.5198 28.6193 71.8501 28.5682 72.1483 28.4659C72.4466 28.3594 72.7045 28.2017 72.9218 27.9929C73.1391 27.7841 73.3053 27.5263 73.4204 27.2195L75.2293 27.5455C75.0844 28.0781 74.8245 28.5447 74.4495 28.9453C74.0787 29.3416 73.6121 29.6506 73.0496 29.8722C72.4914 30.0895 71.8543 30.1982 71.1384 30.1982ZM79.3825 24.1705V30H77.4713V20.1818H79.3058V21.7798H79.4273C79.6531 21.2599 80.0068 20.8423 80.4884 20.527C80.9742 20.2116 81.5857 20.054 82.3229 20.054C82.9919 20.054 83.5779 20.1946 84.0807 20.4759C84.5835 20.7528 84.9735 21.1662 85.2504 21.7159C85.5274 22.2656 85.6659 22.9453 85.6659 23.755V30H83.7547V23.9851C83.7547 23.2734 83.5693 22.7173 83.1986 22.3168C82.8279 21.9119 82.3186 21.7095 81.6709 21.7095C81.2277 21.7095 80.8335 21.8054 80.4884 21.9972C80.1475 22.1889 79.8769 22.4702 79.6766 22.8409C79.4806 23.2074 79.3825 23.6506 79.3825 24.1705ZM91.9046 30.1918C91.1119 30.1918 90.4046 29.9893 89.7824 29.5845C89.1645 29.1754 88.6787 28.5937 88.325 27.8395C87.9756 27.081 87.8009 26.1712 87.8009 25.1101C87.8009 24.049 87.9777 23.1413 88.3314 22.3871C88.6894 21.6328 89.1794 21.0554 89.8016 20.6548C90.4237 20.2543 91.129 20.054 91.9173 20.054C92.5267 20.054 93.0168 20.1562 93.3875 20.3608C93.7625 20.5611 94.0523 20.7955 94.2568 21.0639C94.4656 21.3324 94.6276 21.5689 94.7426 21.7734H94.8577V16.9091H96.7689V30H94.9024V28.4723H94.7426C94.6276 28.6811 94.4614 28.9197 94.2441 29.1882C94.031 29.4567 93.7369 29.6911 93.3619 29.8913C92.9869 30.0916 92.5012 30.1918 91.9046 30.1918ZM92.3264 28.5618C92.8762 28.5618 93.3406 28.4169 93.7199 28.1271C94.1034 27.8331 94.3932 27.4261 94.5892 26.9062C94.7895 26.3864 94.8896 25.7812 94.8896 25.0909C94.8896 24.4091 94.7916 23.8125 94.5956 23.3011C94.3996 22.7898 94.1119 22.3913 93.7327 22.1058C93.3534 21.8203 92.8847 21.6776 92.3264 21.6776C91.7512 21.6776 91.2718 21.8267 90.8882 22.125C90.5047 22.4233 90.2149 22.8303 90.0189 23.3459C89.8271 23.8615 89.7313 24.4432 89.7313 25.0909C89.7313 25.7472 89.8293 26.3374 90.0253 26.8615C90.2213 27.3857 90.5111 27.8011 90.8946 28.108C91.2824 28.4105 91.7597 28.5618 92.3264 28.5618Z" fill="black"/>
</g>
<rect x="0.5" y="0.5" width="131" height="181" stroke="black" stroke-linejoin="round"/>
<defs>
<filter id="filter0_d_36_874" x="10" y="43" width="26" height="26" filterUnits="userSpaceOnUse" color-interpolation-filters="sRGB">
<feFlood flood-opacity="0" result="BackgroundImageFix"/>
<feColorMatrix in="SourceAlpha" type="matrix" values="0 0 0 0 0 0 0 0 0 0 0 0 0 0 0 0 0 0 127 0" result="hardAlpha"/>
<feOffset dy="1"/>
<feGaussianBlur stdDeviation="3"/>
<feColorMatrix type="matrix" values="0 0 0 0 0 0 0 0 0 0 0 0 0 0 0 0 0 0 0.15 0"/>
<feBlend mode="normal" in2="BackgroundImageFix" result="effect1_dropShadow_36_874"/>
<feBlend mode="normal" in="SourceGraphic" in2="effect1_dropShadow_36_874" result="shape"/>
</filter>
<filter id="filter1_f_36_874" x="17" y="113" width="12" height="8" filterUnits="userSpaceOnUse" color-interpolation-filters="sRGB">
<feFlood flood-opacity="0" result="BackgroundImageFix"/>
<feBlend mode="normal" in="SourceGraphic" in2="BackgroundImageFix" result="shape"/>
<feGaussianBlur stdDeviation="1" result="effect1_foregroundBlur_36_874"/>
</filter>
<linearGradient id="paint0_linear_36_874" x1="23" y1="90" x2="23" y2="115.997" gradientUnits="userSpaceOnUse">
<stop stop-color="white"/>
<stop offset="1" stop-color="white" stop-opacity="0.35"/>
</linearGradient>
<clipPath id="clip0_36_874">
<rect x="1" y="1" width="130" height="180" fill="white"/>
</clipPath>
<clipPath id="clip1_36_874">
<rect width="24" height="32" fill="white" transform="translate(11 88)"/>
</clipPath>
</defs>
</svg>
