<svg width="139" height="182" viewBox="0 0 139 182" fill="none" xmlns="http://www.w3.org/2000/svg">
<g clip-path="url(#clip0_137_461)">
<rect x="1" y="1" width="137" height="180" fill="white"/>
<circle opacity="0.3" cx="19.5" cy="55" r="12" fill="#6393F2"/>
<g filter="url(#filter0_d_137_461)">
<circle cx="19" cy="55" r="5" fill="#6393F2"/>
<circle cx="19" cy="55" r="6" stroke="white" stroke-width="2"/>
</g>
<rect x="8" y="87.5" width="23" height="23" fill="#95B8FD" fill-opacity="0.2" stroke="black" stroke-linejoin="round"/>
<g filter="url(#filter1_b_137_461)">
<path d="M33.5 145C33.5 152.732 27.232 159 19.5 159C11.768 159 5.5 152.732 5.5 145C5.5 137.268 11.768 131 19.5 131C27.232 131 33.5 137.268 33.5 145Z" fill="#F80203" fill-opacity="0.1"/>
</g>
<path d="M31.0417 145C31.0417 151.374 25.8743 156.542 19.5 156.542C13.1258 156.542 7.95837 151.374 7.95837 145C7.95837 138.626 13.1258 133.458 19.5 133.458C25.8743 133.458 31.0417 138.626 31.0417 145Z" fill="#F80203" fill-opacity="0.3" stroke="white" stroke-width="0.25"/>
<path d="M28.6833 145C28.6833 150.072 24.5718 154.183 19.5 154.183C14.4281 154.183 10.3166 150.072 10.3166 145C10.3166 139.928 14.4281 135.817 19.5 135.817C24.5718 135.817 28.6833 139.928 28.6833 145Z" fill="#F80203" fill-opacity="0.5" stroke="white" stroke-width="0.3"/>
<circle cx="19.5" cy="145" r="6.75" fill="#F80203" stroke="white" stroke-width="0.5"/>
<path d="M53.0455 41.3636H54.4545V49.0682C54.4545 49.8636 54.267 50.5739 53.892 51.1989C53.5208 51.8201 52.9962 52.3106 52.3182 52.6705C51.6402 53.0265 50.8447 53.2045 49.9318 53.2045C49.0189 53.2045 48.2235 53.0265 47.5455 52.6705C46.8674 52.3106 46.3409 51.8201 45.9659 51.1989C45.5947 50.5739 45.4091 49.8636 45.4091 49.0682V41.3636H46.8182V48.9545C46.8182 49.5227 46.9432 50.0284 47.1932 50.4716C47.4432 50.911 47.7992 51.2576 48.2614 51.5114C48.7273 51.7614 49.2841 51.8864 49.9318 51.8864C50.5795 51.8864 51.1364 51.7614 51.6023 51.5114C52.0682 51.2576 52.4242 50.911 52.6705 50.4716C52.9205 50.0284 53.0455 49.5227 53.0455 48.9545V41.3636ZM57.2685 53V41.3636H58.6094V45.6591H58.723C58.8215 45.5076 58.9579 45.3144 59.1321 45.0795C59.3101 44.8409 59.5639 44.6288 59.8935 44.4432C60.2268 44.2538 60.6776 44.1591 61.2457 44.1591C61.9806 44.1591 62.6283 44.3428 63.1889 44.7102C63.7495 45.0777 64.187 45.5985 64.5014 46.2727C64.8158 46.947 64.973 47.7424 64.973 48.6591C64.973 49.5833 64.8158 50.3845 64.5014 51.0625C64.187 51.7367 63.7514 52.2595 63.1946 52.6307C62.6378 52.9981 61.9957 53.1818 61.2685 53.1818C60.7079 53.1818 60.259 53.089 59.9219 52.9034C59.5848 52.714 59.3253 52.5 59.1435 52.2614C58.9616 52.0189 58.8215 51.8182 58.723 51.6591H58.5639V53H57.2685ZM58.5866 48.6364C58.5866 49.2955 58.6832 49.8769 58.8764 50.3807C59.0696 50.8807 59.3518 51.2727 59.723 51.5568C60.0942 51.8371 60.5488 51.9773 61.0866 51.9773C61.6473 51.9773 62.1151 51.8295 62.4901 51.5341C62.8688 51.2348 63.1529 50.8333 63.3423 50.3295C63.5355 49.822 63.6321 49.2576 63.6321 48.6364C63.6321 48.0227 63.5374 47.4697 63.348 46.9773C63.1624 46.4811 62.8802 46.089 62.5014 45.8011C62.1264 45.5095 61.6548 45.3636 61.0866 45.3636C60.5412 45.3636 60.0829 45.5019 59.7116 45.7784C59.3404 46.0511 59.0601 46.4337 58.8707 46.9261C58.6813 47.4148 58.5866 47.9848 58.5866 48.6364ZM67.0241 53V44.2727H68.3651V53H67.0241ZM67.706 42.8182C67.4446 42.8182 67.2192 42.7292 67.0298 42.5511C66.8442 42.3731 66.7514 42.1591 66.7514 41.9091C66.7514 41.6591 66.8442 41.4451 67.0298 41.267C67.2192 41.089 67.4446 41 67.706 41C67.9673 41 68.1908 41.089 68.3764 41.267C68.5658 41.4451 68.6605 41.6591 68.6605 41.9091C68.6605 42.1591 68.5658 42.3731 68.3764 42.5511C68.1908 42.7292 67.9673 42.8182 67.706 42.8182ZM74.3665 53.1818C73.5483 53.1818 72.8438 52.9886 72.2528 52.6023C71.6619 52.2159 71.2074 51.6837 70.8892 51.0057C70.571 50.3277 70.4119 49.553 70.4119 48.6818C70.4119 47.7955 70.5748 47.0133 70.9006 46.3352C71.2301 45.6534 71.6884 45.1212 72.2756 44.7386C72.8665 44.3523 73.5559 44.1591 74.3438 44.1591C74.9574 44.1591 75.5104 44.2727 76.0028 44.5C76.4953 44.7273 76.8987 45.0455 77.2131 45.4545C77.5275 45.8636 77.7225 46.3409 77.7983 46.8864H76.4574C76.3551 46.4886 76.1278 46.1364 75.7756 45.8295C75.4271 45.5189 74.9574 45.3636 74.3665 45.3636C73.8438 45.3636 73.3854 45.5 72.9915 45.7727C72.6013 46.0417 72.2964 46.4223 72.0767 46.9148C71.8608 47.4034 71.7528 47.9773 71.7528 48.6364C71.7528 49.3106 71.8589 49.8977 72.071 50.3977C72.2869 50.8977 72.59 51.286 72.9801 51.5625C73.3741 51.839 73.8362 51.9773 74.3665 51.9773C74.715 51.9773 75.0312 51.9167 75.3153 51.7955C75.5994 51.6742 75.84 51.5 76.0369 51.2727C76.2339 51.0455 76.3741 50.7727 76.4574 50.4545H77.7983C77.7225 50.9697 77.535 51.4337 77.2358 51.8466C76.9403 52.2557 76.5483 52.5814 76.0597 52.8239C75.5748 53.0625 75.0104 53.1818 74.3665 53.1818ZM82.3267 53.2045C81.7737 53.2045 81.2718 53.1004 80.821 52.892C80.3703 52.6799 80.0123 52.375 79.7472 51.9773C79.482 51.5758 79.3494 51.0909 79.3494 50.5227C79.3494 50.0227 79.4479 49.6174 79.6449 49.3068C79.8419 48.9924 80.1051 48.7462 80.4347 48.5682C80.7642 48.3902 81.1278 48.2576 81.5256 48.1705C81.9271 48.0795 82.3305 48.0076 82.7358 47.9545C83.2661 47.8864 83.696 47.8352 84.0256 47.8011C84.3589 47.7633 84.6013 47.7008 84.7528 47.6136C84.9081 47.5265 84.9858 47.375 84.9858 47.1591V47.1136C84.9858 46.553 84.8324 46.1174 84.5256 45.8068C84.2225 45.4962 83.7623 45.3409 83.1449 45.3409C82.5047 45.3409 82.0028 45.4811 81.6392 45.7614C81.2756 46.0417 81.0199 46.3409 80.8722 46.6591L79.5994 46.2045C79.8267 45.6742 80.1297 45.2614 80.5085 44.9659C80.8911 44.6667 81.3078 44.4583 81.7585 44.3409C82.2131 44.2197 82.66 44.1591 83.0994 44.1591C83.3797 44.1591 83.7017 44.1932 84.0653 44.2614C84.4328 44.3258 84.7869 44.4602 85.1278 44.6648C85.4725 44.8693 85.7585 45.178 85.9858 45.5909C86.2131 46.0038 86.3267 46.5568 86.3267 47.25V53H84.9858V51.8182H84.9176C84.8267 52.0076 84.6752 52.2102 84.4631 52.4261C84.2509 52.642 83.9688 52.8258 83.6165 52.9773C83.2642 53.1288 82.8343 53.2045 82.3267 53.2045ZM82.5312 52C83.0616 52 83.5085 51.8958 83.8722 51.6875C84.2396 51.4792 84.5161 51.2102 84.7017 50.8807C84.8911 50.5511 84.9858 50.2045 84.9858 49.8409V48.6136C84.929 48.6818 84.804 48.7443 84.6108 48.8011C84.4214 48.8542 84.2017 48.9015 83.9517 48.9432C83.7055 48.9811 83.465 49.0152 83.2301 49.0455C82.9991 49.072 82.8116 49.0947 82.6676 49.1136C82.3191 49.1591 81.9934 49.233 81.6903 49.3352C81.3911 49.4337 81.1487 49.5833 80.9631 49.7841C80.7813 49.9811 80.6903 50.25 80.6903 50.5909C80.6903 51.0568 80.8627 51.4091 81.2074 51.6477C81.5559 51.8826 81.9972 52 82.5312 52ZM92.3196 53.1818C91.5014 53.1818 90.7969 52.9886 90.206 52.6023C89.6151 52.2159 89.1605 51.6837 88.8423 51.0057C88.5241 50.3277 88.3651 49.553 88.3651 48.6818C88.3651 47.7955 88.5279 47.0133 88.8537 46.3352C89.1832 45.6534 89.6416 45.1212 90.2287 44.7386C90.8196 44.3523 91.509 44.1591 92.2969 44.1591C92.9105 44.1591 93.4635 44.2727 93.956 44.5C94.4484 44.7273 94.8518 45.0455 95.1662 45.4545C95.4806 45.8636 95.6757 46.3409 95.7514 46.8864H94.4105C94.3082 46.4886 94.081 46.1364 93.7287 45.8295C93.3802 45.5189 92.9105 45.3636 92.3196 45.3636C91.7969 45.3636 91.3385 45.5 90.9446 45.7727C90.5545 46.0417 90.2495 46.4223 90.0298 46.9148C89.8139 47.4034 89.706 47.9773 89.706 48.6364C89.706 49.3106 89.812 49.8977 90.0241 50.3977C90.2401 50.8977 90.5431 51.286 90.9332 51.5625C91.3272 51.839 91.7893 51.9773 92.3196 51.9773C92.6681 51.9773 92.9844 51.9167 93.2685 51.7955C93.5526 51.6742 93.7931 51.5 93.9901 51.2727C94.187 51.0455 94.3272 50.7727 94.4105 50.4545H95.7514C95.6757 50.9697 95.4882 51.4337 95.1889 51.8466C94.8935 52.2557 94.5014 52.5814 94.0128 52.8239C93.5279 53.0625 92.9635 53.1818 92.3196 53.1818ZM97.7116 53V44.2727H99.0526V53H97.7116ZM98.3935 42.8182C98.1321 42.8182 97.9067 42.7292 97.7173 42.5511C97.5317 42.3731 97.4389 42.1591 97.4389 41.9091C97.4389 41.6591 97.5317 41.4451 97.7173 41.267C97.9067 41.089 98.1321 41 98.3935 41C98.6548 41 98.8783 41.089 99.0639 41.267C99.2533 41.4451 99.348 41.6591 99.348 41.9091C99.348 42.1591 99.2533 42.3731 99.0639 42.5511C98.8783 42.7292 98.6548 42.8182 98.3935 42.8182ZM105.054 53.1818C104.266 53.1818 103.575 52.9943 102.98 52.6193C102.389 52.2443 101.927 51.7197 101.594 51.0455C101.264 50.3712 101.099 49.5833 101.099 48.6818C101.099 47.7727 101.264 46.9792 101.594 46.3011C101.927 45.6231 102.389 45.0966 102.98 44.7216C103.575 44.3466 104.266 44.1591 105.054 44.1591C105.842 44.1591 106.531 44.3466 107.122 44.7216C107.717 45.0966 108.179 45.6231 108.509 46.3011C108.842 46.9792 109.009 47.7727 109.009 48.6818C109.009 49.5833 108.842 50.3712 108.509 51.0455C108.179 51.7197 107.717 52.2443 107.122 52.6193C106.531 52.9943 105.842 53.1818 105.054 53.1818ZM105.054 51.9773C105.652 51.9773 106.145 51.8239 106.531 51.517C106.918 51.2102 107.204 50.8068 107.389 50.3068C107.575 49.8068 107.668 49.2652 107.668 48.6818C107.668 48.0985 107.575 47.5549 107.389 47.0511C107.204 46.5473 106.918 46.1402 106.531 45.8295C106.145 45.5189 105.652 45.3636 105.054 45.3636C104.455 45.3636 103.963 45.5189 103.577 45.8295C103.19 46.1402 102.904 46.5473 102.719 47.0511C102.533 47.5549 102.44 48.0985 102.44 48.6818C102.44 49.2652 102.533 49.8068 102.719 50.3068C102.904 50.8068 103.19 51.2102 103.577 51.517C103.963 51.8239 104.455 51.9773 105.054 51.9773ZM104.44 43.0909L105.827 40.4545H107.395L105.622 43.0909H104.44ZM112.396 47.75V53H111.055V44.2727H112.351V45.6364H112.464C112.669 45.1932 112.98 44.8371 113.396 44.5682C113.813 44.2955 114.351 44.1591 115.01 44.1591C115.601 44.1591 116.118 44.2803 116.561 44.5227C117.004 44.7614 117.349 45.125 117.595 45.6136C117.841 46.0985 117.964 46.7121 117.964 47.4545V53H116.624V47.5455C116.624 46.8598 116.446 46.3258 116.089 45.9432C115.733 45.5568 115.245 45.3636 114.624 45.3636C114.196 45.3636 113.813 45.4564 113.476 45.642C113.143 45.8277 112.879 46.0985 112.686 46.4545C112.493 46.8106 112.396 47.2424 112.396 47.75ZM45.8864 72H44.4091L48.6818 60.3636H50.1364L54.4091 72H52.9318L49.4545 62.2045H49.3636L45.8864 72ZM46.4318 67.4545H52.3864V68.7045H46.4318V67.4545ZM59.5852 72.1818C58.767 72.1818 58.0625 71.9886 57.4716 71.6023C56.8807 71.2159 56.4261 70.6837 56.108 70.0057C55.7898 69.3277 55.6307 68.553 55.6307 67.6818C55.6307 66.7955 55.7936 66.0133 56.1193 65.3352C56.4489 64.6534 56.9072 64.1212 57.4943 63.7386C58.0852 63.3523 58.7746 63.1591 59.5625 63.1591C60.1761 63.1591 60.7292 63.2727 61.2216 63.5C61.714 63.7273 62.1174 64.0455 62.4318 64.4545C62.7462 64.8636 62.9413 65.3409 63.017 65.8864H61.6761C61.5739 65.4886 61.3466 65.1364 60.9943 64.8295C60.6458 64.5189 60.1761 64.3636 59.5852 64.3636C59.0625 64.3636 58.6042 64.5 58.2102 64.7727C57.8201 65.0417 57.5152 65.4223 57.2955 65.9148C57.0795 66.4034 56.9716 66.9773 56.9716 67.6364C56.9716 68.3106 57.0777 68.8977 57.2898 69.3977C57.5057 69.8977 57.8087 70.286 58.1989 70.5625C58.5928 70.839 59.0549 70.9773 59.5852 70.9773C59.9337 70.9773 60.25 70.9167 60.5341 70.7955C60.8182 70.6742 61.0587 70.5 61.2557 70.2727C61.4527 70.0455 61.5928 69.7727 61.6761 69.4545H63.017C62.9413 69.9697 62.7538 70.4337 62.4545 70.8466C62.1591 71.2557 61.767 71.5814 61.2784 71.8239C60.7936 72.0625 60.2292 72.1818 59.5852 72.1818ZM68.7727 63.2727V64.4091H64.25V63.2727H68.7727ZM65.5682 61.1818H66.9091V69.5C66.9091 69.8788 66.964 70.1629 67.0739 70.3523C67.1875 70.5379 67.3314 70.6629 67.5057 70.7273C67.6837 70.7879 67.8712 70.8182 68.0682 70.8182C68.2159 70.8182 68.3371 70.8106 68.4318 70.7955C68.5265 70.7765 68.6023 70.7614 68.6591 70.75L68.9318 71.9545C68.8409 71.9886 68.714 72.0227 68.5511 72.0568C68.3883 72.0947 68.1818 72.1136 67.9318 72.1136C67.553 72.1136 67.1818 72.0322 66.8182 71.8693C66.4583 71.7064 66.1591 71.4583 65.9205 71.125C65.6856 70.7917 65.5682 70.3712 65.5682 69.8636V61.1818ZM76.2898 68.4318V63.2727H77.6307V72H76.2898V70.5227H76.1989C75.9943 70.9659 75.6761 71.3428 75.2443 71.6534C74.8125 71.9602 74.267 72.1136 73.608 72.1136C73.0625 72.1136 72.5777 71.9943 72.1534 71.7557C71.7292 71.5133 71.3958 71.1496 71.1534 70.6648C70.911 70.1761 70.7898 69.5606 70.7898 68.8182V63.2727H72.1307V68.7273C72.1307 69.3636 72.3087 69.8712 72.6648 70.25C73.0246 70.6288 73.483 70.8182 74.0398 70.8182C74.3731 70.8182 74.7121 70.733 75.0568 70.5625C75.4053 70.392 75.697 70.1307 75.9318 69.7784C76.1705 69.4261 76.2898 68.9773 76.2898 68.4318ZM82.6548 72.2045C82.1018 72.2045 81.5999 72.1004 81.1491 71.892C80.6984 71.6799 80.3404 71.375 80.0753 70.9773C79.8101 70.5758 79.6776 70.0909 79.6776 69.5227C79.6776 69.0227 79.776 68.6174 79.973 68.3068C80.17 67.9924 80.4332 67.7462 80.7628 67.5682C81.0923 67.3902 81.456 67.2576 81.8537 67.1705C82.2552 67.0795 82.6586 67.0076 83.0639 66.9545C83.5942 66.8864 84.0241 66.8352 84.3537 66.8011C84.687 66.7633 84.9295 66.7008 85.081 66.6136C85.2363 66.5265 85.3139 66.375 85.3139 66.1591V66.1136C85.3139 65.553 85.1605 65.1174 84.8537 64.8068C84.5507 64.4962 84.0904 64.3409 83.473 64.3409C82.8329 64.3409 82.331 64.4811 81.9673 64.7614C81.6037 65.0417 81.348 65.3409 81.2003 65.6591L79.9276 65.2045C80.1548 64.6742 80.4579 64.2614 80.8366 63.9659C81.2192 63.6667 81.6359 63.4583 82.0866 63.3409C82.5412 63.2197 82.9882 63.1591 83.4276 63.1591C83.7079 63.1591 84.0298 63.1932 84.3935 63.2614C84.7609 63.3258 85.1151 63.4602 85.456 63.6648C85.8007 63.8693 86.0866 64.178 86.3139 64.5909C86.5412 65.0038 86.6548 65.5568 86.6548 66.25V72H85.3139V70.8182H85.2457C85.1548 71.0076 85.0033 71.2102 84.7912 71.4261C84.5791 71.642 84.2969 71.8258 83.9446 71.9773C83.5923 72.1288 83.1624 72.2045 82.6548 72.2045ZM82.8594 71C83.3897 71 83.8366 70.8958 84.2003 70.6875C84.5677 70.4792 84.8442 70.2102 85.0298 69.8807C85.2192 69.5511 85.3139 69.2045 85.3139 68.8409V67.6136C85.2571 67.6818 85.1321 67.7443 84.9389 67.8011C84.7495 67.8542 84.5298 67.9015 84.2798 67.9432C84.0336 67.9811 83.7931 68.0152 83.5582 68.0455C83.3272 68.072 83.1397 68.0947 82.9957 68.1136C82.6473 68.1591 82.3215 68.233 82.0185 68.3352C81.7192 68.4337 81.4768 68.5833 81.2912 68.7841C81.1094 68.9811 81.0185 69.25 81.0185 69.5909C81.0185 70.0568 81.1908 70.4091 81.5355 70.6477C81.884 70.8826 82.3253 71 82.8594 71ZM90.4432 60.3636V72H89.1023V60.3636H90.4432Z" fill="black"/>
<path d="M45.4091 102V90.3636H49.3409C50.25 90.3636 50.9962 90.5189 51.5795 90.8295C52.1629 91.1364 52.5947 91.5587 52.875 92.0966C53.1553 92.6345 53.2955 93.2462 53.2955 93.9318C53.2955 94.6174 53.1553 95.2254 52.875 95.7557C52.5947 96.286 52.1648 96.7027 51.5852 97.0057C51.0057 97.3049 50.2652 97.4545 49.3636 97.4545H46.1818V96.1818H49.3182C49.9394 96.1818 50.4394 96.0909 50.8182 95.9091C51.2008 95.7273 51.4773 95.4697 51.6477 95.1364C51.822 94.7992 51.9091 94.3977 51.9091 93.9318C51.9091 93.4659 51.822 93.0587 51.6477 92.7102C51.4735 92.3617 51.1951 92.0928 50.8125 91.9034C50.4299 91.7102 49.9242 91.6136 49.2955 91.6136H46.8182V102H45.4091ZM50.8864 96.7727L53.75 102H52.1136L49.2955 96.7727H50.8864ZM58.0298 102.205C57.4768 102.205 56.9749 102.1 56.5241 101.892C56.0734 101.68 55.7154 101.375 55.4503 100.977C55.1851 100.576 55.0526 100.091 55.0526 99.5227C55.0526 99.0227 55.151 98.6174 55.348 98.3068C55.545 97.9924 55.8082 97.7462 56.1378 97.5682C56.4673 97.3902 56.831 97.2576 57.2287 97.1705C57.6302 97.0795 58.0336 97.0076 58.4389 96.9545C58.9692 96.8864 59.3991 96.8352 59.7287 96.8011C60.062 96.7633 60.3045 96.7008 60.456 96.6136C60.6113 96.5265 60.6889 96.375 60.6889 96.1591V96.1136C60.6889 95.553 60.5355 95.1174 60.2287 94.8068C59.9257 94.4962 59.4654 94.3409 58.848 94.3409C58.2079 94.3409 57.706 94.4811 57.3423 94.7614C56.9787 95.0417 56.723 95.3409 56.5753 95.6591L55.3026 95.2045C55.5298 94.6742 55.8329 94.2614 56.2116 93.9659C56.5942 93.6667 57.0109 93.4583 57.4616 93.3409C57.9162 93.2197 58.3632 93.1591 58.8026 93.1591C59.0829 93.1591 59.4048 93.1932 59.7685 93.2614C60.1359 93.3258 60.4901 93.4602 60.831 93.6648C61.1757 93.8693 61.4616 94.178 61.6889 94.5909C61.9162 95.0038 62.0298 95.5568 62.0298 96.25V102H60.6889V100.818H60.6207C60.5298 101.008 60.3783 101.21 60.1662 101.426C59.9541 101.642 59.6719 101.826 59.3196 101.977C58.9673 102.129 58.5374 102.205 58.0298 102.205ZM58.2344 101C58.7647 101 59.2116 100.896 59.5753 100.688C59.9427 100.479 60.2192 100.21 60.4048 99.8807C60.5942 99.5511 60.6889 99.2045 60.6889 98.8409V97.6136C60.6321 97.6818 60.5071 97.7443 60.3139 97.8011C60.1245 97.8542 59.9048 97.9015 59.6548 97.9432C59.4086 97.9811 59.1681 98.0152 58.9332 98.0455C58.7022 98.072 58.5147 98.0947 58.3707 98.1136C58.0223 98.1591 57.6965 98.233 57.3935 98.3352C57.0942 98.4337 56.8518 98.5833 56.6662 98.7841C56.4844 98.9811 56.3935 99.25 56.3935 99.5909C56.3935 100.057 56.5658 100.409 56.9105 100.648C57.259 100.883 57.7003 101 58.2344 101ZM67.7727 102.182C67.0455 102.182 66.4034 101.998 65.8466 101.631C65.2898 101.259 64.8542 100.737 64.5398 100.062C64.2254 99.3845 64.0682 98.5833 64.0682 97.6591C64.0682 96.7424 64.2254 95.947 64.5398 95.2727C64.8542 94.5985 65.2917 94.0777 65.8523 93.7102C66.4129 93.3428 67.0606 93.1591 67.7955 93.1591C68.3636 93.1591 68.8125 93.2538 69.142 93.4432C69.4754 93.6288 69.7292 93.8409 69.9034 94.0795C70.0814 94.3144 70.2197 94.5076 70.3182 94.6591H70.4318V90.3636H71.7727V102H70.4773V100.659H70.3182C70.2197 100.818 70.0795 101.019 69.8977 101.261C69.7159 101.5 69.4564 101.714 69.1193 101.903C68.7822 102.089 68.3333 102.182 67.7727 102.182ZM67.9545 100.977C68.4924 100.977 68.947 100.837 69.3182 100.557C69.6894 100.273 69.9716 99.8807 70.1648 99.3807C70.358 98.8769 70.4545 98.2955 70.4545 97.6364C70.4545 96.9848 70.3598 96.4148 70.1705 95.9261C69.9811 95.4337 69.7008 95.0511 69.3295 94.7784C68.9583 94.5019 68.5 94.3636 67.9545 94.3636C67.3864 94.3636 66.9129 94.5095 66.5341 94.8011C66.1591 95.089 65.8769 95.4811 65.6875 95.9773C65.5019 96.4697 65.4091 97.0227 65.4091 97.6364C65.4091 98.2576 65.5038 98.822 65.6932 99.3295C65.8864 99.8333 66.1705 100.235 66.5455 100.534C66.9242 100.83 67.3939 100.977 67.9545 100.977ZM74.4148 102V93.2727H75.7557V102H74.4148ZM75.0966 91.8182C74.8352 91.8182 74.6098 91.7292 74.4205 91.5511C74.2348 91.3731 74.142 91.1591 74.142 90.9091C74.142 90.6591 74.2348 90.4451 74.4205 90.267C74.6098 90.089 74.8352 90 75.0966 90C75.358 90 75.5814 90.089 75.767 90.267C75.9564 90.4451 76.0511 90.6591 76.0511 90.9091C76.0511 91.1591 75.9564 91.3731 75.767 91.5511C75.5814 91.7292 75.358 91.8182 75.0966 91.8182ZM81.7571 102.182C80.9692 102.182 80.2779 101.994 79.6832 101.619C79.0923 101.244 78.6302 100.72 78.2969 100.045C77.9673 99.3712 77.8026 98.5833 77.8026 97.6818C77.8026 96.7727 77.9673 95.9792 78.2969 95.3011C78.6302 94.6231 79.0923 94.0966 79.6832 93.7216C80.2779 93.3466 80.9692 93.1591 81.7571 93.1591C82.545 93.1591 83.2344 93.3466 83.8253 93.7216C84.42 94.0966 84.8821 94.6231 85.2116 95.3011C85.545 95.9792 85.7116 96.7727 85.7116 97.6818C85.7116 98.5833 85.545 99.3712 85.2116 100.045C84.8821 100.72 84.42 101.244 83.8253 101.619C83.2344 101.994 82.545 102.182 81.7571 102.182ZM81.7571 100.977C82.3556 100.977 82.848 100.824 83.2344 100.517C83.6207 100.21 83.9067 99.8068 84.0923 99.3068C84.2779 98.8068 84.3707 98.2652 84.3707 97.6818C84.3707 97.0985 84.2779 96.5549 84.0923 96.0511C83.9067 95.5473 83.6207 95.1402 83.2344 94.8295C82.848 94.5189 82.3556 94.3636 81.7571 94.3636C81.1586 94.3636 80.6662 94.5189 80.2798 94.8295C79.8935 95.1402 79.6075 95.5473 79.4219 96.0511C79.2363 96.5549 79.1435 97.0985 79.1435 97.6818C79.1435 98.2652 79.2363 98.8068 79.4219 99.3068C79.6075 99.8068 79.8935 100.21 80.2798 100.517C80.6662 100.824 81.1586 100.977 81.7571 100.977Z" fill="black"/>
<path d="M45.4091 138V126.364H49.3409C50.2538 126.364 51 126.528 51.5795 126.858C52.1629 127.184 52.5947 127.625 52.875 128.182C53.1553 128.739 53.2955 129.36 53.2955 130.045C53.2955 130.731 53.1553 131.354 52.875 131.915C52.5985 132.475 52.1705 132.922 51.5909 133.256C51.0114 133.585 50.2689 133.75 49.3636 133.75H46.5455V132.5H49.3182C49.9432 132.5 50.4451 132.392 50.8239 132.176C51.2027 131.96 51.4773 131.669 51.6477 131.301C51.822 130.93 51.9091 130.511 51.9091 130.045C51.9091 129.58 51.822 129.163 51.6477 128.795C51.4773 128.428 51.2008 128.14 50.8182 127.932C50.4356 127.72 49.928 127.614 49.2955 127.614H46.8182V138H45.4091ZM58.9489 138.182C58.108 138.182 57.3826 137.996 56.7727 137.625C56.1667 137.25 55.6989 136.727 55.3693 136.057C55.0436 135.383 54.8807 134.598 54.8807 133.705C54.8807 132.811 55.0436 132.023 55.3693 131.341C55.6989 130.655 56.1572 130.121 56.7443 129.739C57.3352 129.352 58.0246 129.159 58.8125 129.159C59.267 129.159 59.7159 129.235 60.1591 129.386C60.6023 129.538 61.0057 129.784 61.3693 130.125C61.733 130.462 62.0227 130.909 62.2386 131.466C62.4545 132.023 62.5625 132.708 62.5625 133.523V134.091H55.8352V132.932H61.1989C61.1989 132.439 61.1004 132 60.9034 131.614C60.7102 131.227 60.4337 130.922 60.0739 130.699C59.7178 130.475 59.2973 130.364 58.8125 130.364C58.2784 130.364 57.8163 130.496 57.4261 130.761C57.0398 131.023 56.7424 131.364 56.5341 131.784C56.3258 132.205 56.2216 132.655 56.2216 133.136V133.909C56.2216 134.568 56.3352 135.127 56.5625 135.585C56.7936 136.04 57.1136 136.386 57.5227 136.625C57.9318 136.86 58.4072 136.977 58.9489 136.977C59.3011 136.977 59.6193 136.928 59.9034 136.83C60.1913 136.727 60.4394 136.576 60.6477 136.375C60.8561 136.17 61.017 135.917 61.1307 135.614L62.4261 135.977C62.2898 136.417 62.0606 136.803 61.7386 137.136C61.4167 137.466 61.0189 137.723 60.5455 137.909C60.072 138.091 59.5398 138.182 58.9489 138.182ZM70.7841 131.227L69.5795 131.568C69.5038 131.367 69.392 131.172 69.2443 130.983C69.1004 130.79 68.9034 130.631 68.6534 130.506C68.4034 130.381 68.0833 130.318 67.6932 130.318C67.1591 130.318 66.714 130.441 66.358 130.688C66.0057 130.93 65.8295 131.239 65.8295 131.614C65.8295 131.947 65.9508 132.21 66.1932 132.403C66.4356 132.597 66.8144 132.758 67.3295 132.886L68.625 133.205C69.4053 133.394 69.9867 133.684 70.3693 134.074C70.7519 134.46 70.9432 134.958 70.9432 135.568C70.9432 136.068 70.7992 136.515 70.5114 136.909C70.2273 137.303 69.8295 137.614 69.3182 137.841C68.8068 138.068 68.2121 138.182 67.5341 138.182C66.6439 138.182 65.9072 137.989 65.3239 137.602C64.7405 137.216 64.3712 136.652 64.2159 135.909L65.4886 135.591C65.6098 136.061 65.839 136.413 66.1761 136.648C66.517 136.883 66.9621 137 67.5114 137C68.1364 137 68.6326 136.867 69 136.602C69.3712 136.333 69.5568 136.011 69.5568 135.636C69.5568 135.333 69.4508 135.08 69.2386 134.875C69.0265 134.667 68.7008 134.511 68.2614 134.409L66.8068 134.068C66.0076 133.879 65.4205 133.585 65.0455 133.188C64.6742 132.786 64.4886 132.284 64.4886 131.682C64.4886 131.189 64.6269 130.754 64.9034 130.375C65.1837 129.996 65.5644 129.699 66.0455 129.483C66.5303 129.267 67.0795 129.159 67.6932 129.159C68.5568 129.159 69.2348 129.348 69.7273 129.727C70.2235 130.106 70.5758 130.606 70.7841 131.227ZM76.7571 129.273V130.409H72.2344V129.273H76.7571ZM73.5526 127.182H74.8935V135.5C74.8935 135.879 74.9484 136.163 75.0582 136.352C75.1719 136.538 75.3158 136.663 75.4901 136.727C75.6681 136.788 75.8556 136.818 76.0526 136.818C76.2003 136.818 76.3215 136.811 76.4162 136.795C76.5109 136.777 76.5866 136.761 76.6435 136.75L76.9162 137.955C76.8253 137.989 76.6984 138.023 76.5355 138.057C76.3726 138.095 76.1662 138.114 75.9162 138.114C75.5374 138.114 75.1662 138.032 74.8026 137.869C74.4427 137.706 74.1435 137.458 73.9048 137.125C73.67 136.792 73.5526 136.371 73.5526 135.864V127.182ZM78.7741 138V129.273H80.1151V138H78.7741ZM79.456 127.818C79.1946 127.818 78.9692 127.729 78.7798 127.551C78.5942 127.373 78.5014 127.159 78.5014 126.909C78.5014 126.659 78.5942 126.445 78.7798 126.267C78.9692 126.089 79.1946 126 79.456 126C79.7173 126 79.9408 126.089 80.1264 126.267C80.3158 126.445 80.4105 126.659 80.4105 126.909C80.4105 127.159 80.3158 127.373 80.1264 127.551C79.9408 127.729 79.7173 127.818 79.456 127.818ZM86.1165 138.182C85.2983 138.182 84.5938 137.989 84.0028 137.602C83.4119 137.216 82.9574 136.684 82.6392 136.006C82.321 135.328 82.1619 134.553 82.1619 133.682C82.1619 132.795 82.3248 132.013 82.6506 131.335C82.9801 130.653 83.4384 130.121 84.0256 129.739C84.6165 129.352 85.3059 129.159 86.0938 129.159C86.7074 129.159 87.2604 129.273 87.7528 129.5C88.2453 129.727 88.6487 130.045 88.9631 130.455C89.2775 130.864 89.4725 131.341 89.5483 131.886H88.2074C88.1051 131.489 87.8778 131.136 87.5256 130.83C87.1771 130.519 86.7074 130.364 86.1165 130.364C85.5938 130.364 85.1354 130.5 84.7415 130.773C84.3513 131.042 84.0464 131.422 83.8267 131.915C83.6108 132.403 83.5028 132.977 83.5028 133.636C83.5028 134.311 83.6089 134.898 83.821 135.398C84.0369 135.898 84.34 136.286 84.7301 136.562C85.1241 136.839 85.5862 136.977 86.1165 136.977C86.465 136.977 86.7812 136.917 87.0653 136.795C87.3494 136.674 87.59 136.5 87.7869 136.273C87.9839 136.045 88.1241 135.773 88.2074 135.455H89.5483C89.4725 135.97 89.285 136.434 88.9858 136.847C88.6903 137.256 88.2983 137.581 87.8097 137.824C87.3248 138.062 86.7604 138.182 86.1165 138.182ZM91.5085 138V129.273H92.8494V138H91.5085ZM92.1903 127.818C91.929 127.818 91.7036 127.729 91.5142 127.551C91.3286 127.373 91.2358 127.159 91.2358 126.909C91.2358 126.659 91.3286 126.445 91.5142 126.267C91.7036 126.089 91.929 126 92.1903 126C92.4517 126 92.6752 126.089 92.8608 126.267C93.0502 126.445 93.1449 126.659 93.1449 126.909C93.1449 127.159 93.0502 127.373 92.8608 127.551C92.6752 127.729 92.4517 127.818 92.1903 127.818ZM98.6009 138.182C97.8736 138.182 97.2315 137.998 96.6747 137.631C96.1179 137.259 95.6823 136.737 95.3679 136.062C95.0535 135.384 94.8963 134.583 94.8963 133.659C94.8963 132.742 95.0535 131.947 95.3679 131.273C95.6823 130.598 96.1198 130.078 96.6804 129.71C97.241 129.343 97.8887 129.159 98.6236 129.159C99.1918 129.159 99.6406 129.254 99.9702 129.443C100.304 129.629 100.557 129.841 100.732 130.08C100.91 130.314 101.048 130.508 101.146 130.659H101.26V126.364H102.601V138H101.305V136.659H101.146C101.048 136.818 100.908 137.019 100.726 137.261C100.544 137.5 100.285 137.714 99.9474 137.903C99.6103 138.089 99.1615 138.182 98.6009 138.182ZM98.7827 136.977C99.3205 136.977 99.7751 136.837 100.146 136.557C100.518 136.273 100.8 135.881 100.993 135.381C101.186 134.877 101.283 134.295 101.283 133.636C101.283 132.985 101.188 132.415 100.999 131.926C100.809 131.434 100.529 131.051 100.158 130.778C99.7865 130.502 99.3281 130.364 98.7827 130.364C98.2145 130.364 97.741 130.509 97.3622 130.801C96.9872 131.089 96.705 131.481 96.5156 131.977C96.33 132.47 96.2372 133.023 96.2372 133.636C96.2372 134.258 96.3319 134.822 96.5213 135.33C96.7145 135.833 96.9986 136.235 97.3736 136.534C97.7524 136.83 98.2221 136.977 98.7827 136.977ZM107.811 138.205C107.258 138.205 106.756 138.1 106.305 137.892C105.855 137.68 105.497 137.375 105.232 136.977C104.966 136.576 104.834 136.091 104.834 135.523C104.834 135.023 104.932 134.617 105.129 134.307C105.326 133.992 105.589 133.746 105.919 133.568C106.249 133.39 106.612 133.258 107.01 133.17C107.411 133.08 107.815 133.008 108.22 132.955C108.75 132.886 109.18 132.835 109.51 132.801C109.843 132.763 110.086 132.701 110.237 132.614C110.393 132.527 110.47 132.375 110.47 132.159V132.114C110.47 131.553 110.317 131.117 110.01 130.807C109.707 130.496 109.247 130.341 108.629 130.341C107.989 130.341 107.487 130.481 107.124 130.761C106.76 131.042 106.504 131.341 106.357 131.659L105.084 131.205C105.311 130.674 105.614 130.261 105.993 129.966C106.375 129.667 106.792 129.458 107.243 129.341C107.697 129.22 108.144 129.159 108.584 129.159C108.864 129.159 109.186 129.193 109.55 129.261C109.917 129.326 110.271 129.46 110.612 129.665C110.957 129.869 111.243 130.178 111.47 130.591C111.697 131.004 111.811 131.557 111.811 132.25V138H110.47V136.818H110.402C110.311 137.008 110.16 137.21 109.947 137.426C109.735 137.642 109.453 137.826 109.101 137.977C108.749 138.129 108.319 138.205 107.811 138.205ZM108.016 137C108.546 137 108.993 136.896 109.357 136.688C109.724 136.479 110 136.21 110.186 135.881C110.375 135.551 110.47 135.205 110.47 134.841V133.614C110.413 133.682 110.288 133.744 110.095 133.801C109.906 133.854 109.686 133.902 109.436 133.943C109.19 133.981 108.949 134.015 108.714 134.045C108.483 134.072 108.296 134.095 108.152 134.114C107.804 134.159 107.478 134.233 107.175 134.335C106.875 134.434 106.633 134.583 106.447 134.784C106.266 134.981 106.175 135.25 106.175 135.591C106.175 136.057 106.347 136.409 106.692 136.648C107.04 136.883 107.482 137 108.016 137ZM120.44 131.227L119.236 131.568C119.16 131.367 119.048 131.172 118.901 130.983C118.757 130.79 118.56 130.631 118.31 130.506C118.06 130.381 117.74 130.318 117.349 130.318C116.815 130.318 116.37 130.441 116.014 130.688C115.662 130.93 115.486 131.239 115.486 131.614C115.486 131.947 115.607 132.21 115.849 132.403C116.092 132.597 116.471 132.758 116.986 132.886L118.281 133.205C119.062 133.394 119.643 133.684 120.026 134.074C120.408 134.46 120.599 134.958 120.599 135.568C120.599 136.068 120.455 136.515 120.168 136.909C119.884 137.303 119.486 137.614 118.974 137.841C118.463 138.068 117.868 138.182 117.19 138.182C116.3 138.182 115.563 137.989 114.98 137.602C114.397 137.216 114.027 136.652 113.872 135.909L115.145 135.591C115.266 136.061 115.495 136.413 115.832 136.648C116.173 136.883 116.618 137 117.168 137C117.793 137 118.289 136.867 118.656 136.602C119.027 136.333 119.213 136.011 119.213 135.636C119.213 135.333 119.107 135.08 118.895 134.875C118.683 134.667 118.357 134.511 117.918 134.409L116.463 134.068C115.664 133.879 115.077 133.585 114.702 133.188C114.33 132.786 114.145 132.284 114.145 131.682C114.145 131.189 114.283 130.754 114.56 130.375C114.84 129.996 115.221 129.699 115.702 129.483C116.187 129.267 116.736 129.159 117.349 129.159C118.213 129.159 118.891 129.348 119.384 129.727C119.88 130.106 120.232 130.606 120.44 131.227Z" fill="black"/>
<path d="M46.3097 163.727V171H45.429V164.651H45.3864L43.6108 165.83V164.935L45.429 163.727H46.3097Z" fill="black"/>
<path d="M77.3097 163.727V171H76.429V164.651H76.3864L74.6108 165.83V164.935L76.429 163.727H77.3097ZM81.7734 171.099C81.2384 171.099 80.7827 170.954 80.4062 170.663C80.0298 170.369 79.7422 169.944 79.5433 169.388C79.3445 168.829 79.245 168.154 79.245 167.364C79.245 166.578 79.3445 165.906 79.5433 165.35C79.7446 164.791 80.0334 164.365 80.4098 164.072C80.7886 163.776 81.2431 163.628 81.7734 163.628C82.3037 163.628 82.7571 163.776 83.1335 164.072C83.5123 164.365 83.8011 164.791 84 165.35C84.2012 165.906 84.3018 166.578 84.3018 167.364C84.3018 168.154 84.2024 168.829 84.0036 169.388C83.8047 169.944 83.517 170.369 83.1406 170.663C82.7642 170.954 82.3085 171.099 81.7734 171.099ZM81.7734 170.318C82.3037 170.318 82.7157 170.062 83.0092 169.551C83.3028 169.04 83.4496 168.311 83.4496 167.364C83.4496 166.734 83.3821 166.198 83.2472 165.755C83.1146 165.312 82.9228 164.975 82.6719 164.743C82.4233 164.511 82.1238 164.395 81.7734 164.395C81.2479 164.395 80.8371 164.654 80.5412 165.173C80.2453 165.689 80.0973 166.419 80.0973 167.364C80.0973 167.993 80.1636 168.528 80.2962 168.969C80.4287 169.409 80.6193 169.744 80.8679 169.974C81.1188 170.203 81.4207 170.318 81.7734 170.318ZM88.0234 171.099C87.4884 171.099 87.0327 170.954 86.6562 170.663C86.2798 170.369 85.9922 169.944 85.7933 169.388C85.5945 168.829 85.495 168.154 85.495 167.364C85.495 166.578 85.5945 165.906 85.7933 165.35C85.9946 164.791 86.2834 164.365 86.6598 164.072C87.0386 163.776 87.4931 163.628 88.0234 163.628C88.5537 163.628 89.0071 163.776 89.3835 164.072C89.7623 164.365 90.0511 164.791 90.25 165.35C90.4512 165.906 90.5518 166.578 90.5518 167.364C90.5518 168.154 90.4524 168.829 90.2536 169.388C90.0547 169.944 89.767 170.369 89.3906 170.663C89.0142 170.954 88.5585 171.099 88.0234 171.099ZM88.0234 170.318C88.5537 170.318 88.9657 170.062 89.2592 169.551C89.5528 169.04 89.6996 168.311 89.6996 167.364C89.6996 166.734 89.6321 166.198 89.4972 165.755C89.3646 165.312 89.1728 164.975 88.9219 164.743C88.6733 164.511 88.3738 164.395 88.0234 164.395C87.4979 164.395 87.0871 164.654 86.7912 165.173C86.4953 165.689 86.3473 166.419 86.3473 167.364C86.3473 167.993 86.4136 168.528 86.5462 168.969C86.6787 169.409 86.8693 169.744 87.1179 169.974C87.3688 170.203 87.6707 170.318 88.0234 170.318Z" fill="black"/>
<path d="M106.753 171V170.361L109.153 167.733C109.435 167.425 109.667 167.158 109.849 166.93C110.032 166.701 110.167 166.485 110.254 166.284C110.344 166.08 110.389 165.867 110.389 165.645C110.389 165.389 110.328 165.168 110.205 164.981C110.084 164.794 109.918 164.649 109.707 164.548C109.497 164.446 109.26 164.395 108.997 164.395C108.718 164.395 108.474 164.453 108.266 164.569C108.06 164.683 107.9 164.842 107.786 165.048C107.675 165.254 107.619 165.496 107.619 165.773H106.781C106.781 165.347 106.879 164.973 107.076 164.651C107.272 164.329 107.54 164.078 107.879 163.898C108.219 163.718 108.602 163.628 109.026 163.628C109.452 163.628 109.829 163.718 110.158 163.898C110.487 164.078 110.746 164.32 110.933 164.626C111.12 164.931 111.213 165.271 111.213 165.645C111.213 165.912 111.165 166.174 111.067 166.43C110.973 166.683 110.807 166.966 110.57 167.278C110.336 167.589 110.01 167.967 109.594 168.415L107.96 170.162V170.219H111.341V171H106.753ZM115.18 171.099C114.645 171.099 114.189 170.954 113.812 170.663C113.436 170.369 113.148 169.944 112.95 169.388C112.751 168.829 112.651 168.154 112.651 167.364C112.651 166.578 112.751 165.906 112.95 165.35C113.151 164.791 113.44 164.365 113.816 164.072C114.195 163.776 114.649 163.628 115.18 163.628C115.71 163.628 116.163 163.776 116.54 164.072C116.919 164.365 117.207 164.791 117.406 165.35C117.607 165.906 117.708 166.578 117.708 167.364C117.708 168.154 117.609 168.829 117.41 169.388C117.211 169.944 116.923 170.369 116.547 170.663C116.17 170.954 115.715 171.099 115.18 171.099ZM115.18 170.318C115.71 170.318 116.122 170.062 116.415 169.551C116.709 169.04 116.856 168.311 116.856 167.364C116.856 166.734 116.788 166.198 116.653 165.755C116.521 165.312 116.329 164.975 116.078 164.743C115.83 164.511 115.53 164.395 115.18 164.395C114.654 164.395 114.243 164.654 113.947 165.173C113.652 165.689 113.504 166.419 113.504 167.364C113.504 167.993 113.57 168.528 113.702 168.969C113.835 169.409 114.026 169.744 114.274 169.974C114.525 170.203 114.827 170.318 115.18 170.318ZM121.43 171.099C120.895 171.099 120.439 170.954 120.062 170.663C119.686 170.369 119.398 169.944 119.2 169.388C119.001 168.829 118.901 168.154 118.901 167.364C118.901 166.578 119.001 165.906 119.2 165.35C119.401 164.791 119.69 164.365 120.066 164.072C120.445 163.776 120.899 163.628 121.43 163.628C121.96 163.628 122.413 163.776 122.79 164.072C123.169 164.365 123.457 164.791 123.656 165.35C123.857 165.906 123.958 166.578 123.958 167.364C123.958 168.154 123.859 168.829 123.66 169.388C123.461 169.944 123.173 170.369 122.797 170.663C122.42 170.954 121.965 171.099 121.43 171.099ZM121.43 170.318C121.96 170.318 122.372 170.062 122.665 169.551C122.959 169.04 123.106 168.311 123.106 167.364C123.106 166.734 123.038 166.198 122.903 165.755C122.771 165.312 122.579 164.975 122.328 164.743C122.08 164.511 121.78 164.395 121.43 164.395C120.904 164.395 120.493 164.654 120.197 165.173C119.902 165.689 119.754 166.419 119.754 167.364C119.754 167.993 119.82 168.528 119.952 168.969C120.085 169.409 120.276 169.744 120.524 169.974C120.775 170.203 121.077 170.318 121.43 170.318ZM127.452 169.722V165.034H128.248V169.722H127.452ZM125.506 167.776V166.98H130.194V167.776H125.506Z" fill="black"/>
<path fill-rule="evenodd" clip-rule="evenodd" d="M60 144H44V156V162L49 156H60V144Z" fill="#80C341"/>
<path d="M60 144H75V156H60V144Z" fill="#FCEA45"/>
<path fill-rule="evenodd" clip-rule="evenodd" d="M91 144H75V156V162L80 156H91V144Z" fill="#EE852C"/>
<rect x="91" y="144" width="15" height="12" fill="#F80203"/>
<path fill-rule="evenodd" clip-rule="evenodd" d="M122 144H106V156V162.5L111 156H122V144Z" fill="#B727FF"/>
<path d="M20.2693 30V16.9091H24.9355C25.9497 16.9091 26.7913 17.0838 27.4603 17.4332C28.1336 17.7827 28.6365 18.2663 28.9688 18.8842C29.3012 19.4979 29.4674 20.2074 29.4674 21.0128C29.4674 21.8139 29.2991 22.5192 28.9624 23.1286C28.6301 23.7337 28.1272 24.2045 27.4539 24.5412C26.7849 24.8778 25.9433 25.0462 24.9291 25.0462H21.3943V23.3459H24.7501C25.3893 23.3459 25.9092 23.2543 26.3097 23.071C26.7146 22.8878 27.0107 22.6214 27.1982 22.272C27.3857 21.9226 27.4795 21.5028 27.4795 21.0128C27.4795 20.5185 27.3836 20.0902 27.1919 19.728C27.0044 19.3658 26.7082 19.0888 26.3034 18.897C25.9028 18.701 25.3765 18.603 24.7245 18.603H22.2444V30H20.2693ZM26.7316 24.0938L29.966 30H27.716L24.5455 24.0938H26.7316ZM35.8259 30.1982C34.8586 30.1982 34.0255 29.9915 33.3266 29.5781C32.632 29.1605 32.0951 28.5746 31.7158 27.8203C31.3408 27.0618 31.1533 26.1733 31.1533 25.1548C31.1533 24.1491 31.3408 23.2628 31.7158 22.4957C32.0951 21.7287 32.6235 21.13 33.301 20.6996C33.9829 20.2692 34.7797 20.054 35.6917 20.054C36.2457 20.054 36.7826 20.1456 37.3025 20.3288C37.8224 20.5121 38.289 20.7997 38.7023 21.1918C39.1157 21.5838 39.4417 22.093 39.6803 22.7195C39.9189 23.3416 40.0383 24.098 40.0383 24.9886V25.6662H32.2336V24.2344H38.1654C38.1654 23.7315 38.0631 23.2862 37.8586 22.8984C37.654 22.5064 37.3664 22.1974 36.9957 21.9716C36.6292 21.7457 36.1988 21.6328 35.7045 21.6328C35.1675 21.6328 34.6988 21.7649 34.2982 22.0291C33.9019 22.2891 33.5951 22.63 33.3778 23.0518C33.1647 23.4695 33.0582 23.9233 33.0582 24.4134V25.532C33.0582 26.1882 33.1732 26.7464 33.4033 27.2067C33.6377 27.6669 33.9637 28.0185 34.3813 28.2614C34.7989 28.5 35.2868 28.6193 35.8451 28.6193C36.2073 28.6193 36.5376 28.5682 36.8358 28.4659C37.1341 28.3594 37.392 28.2017 37.6093 27.9929C37.8266 27.7841 37.9928 27.5263 38.1079 27.2195L39.9168 27.5455C39.7719 28.0781 39.512 28.5447 39.137 28.9453C38.7662 29.3416 38.2996 29.6506 37.7371 29.8722C37.1789 30.0895 36.5418 30.1982 35.8259 30.1982ZM46.8314 20.1818V21.7159H41.2831V20.1818H46.8314ZM42.8044 30V19.044C42.8044 18.4304 42.9387 17.9212 43.2071 17.5163C43.4756 17.1072 43.8314 16.8026 44.2746 16.6023C44.7178 16.3977 45.1993 16.2955 45.7192 16.2955C46.1027 16.2955 46.4308 16.3274 46.7036 16.3913C46.9763 16.451 47.1787 16.5064 47.3108 16.5575L46.8634 18.1044C46.7739 18.0788 46.6588 18.049 46.5182 18.0149C46.3776 17.9766 46.2071 17.9574 46.0068 17.9574C45.5423 17.9574 45.21 18.0724 45.0097 18.3026C44.8137 18.5327 44.7156 18.8651 44.7156 19.2997V30H42.8044ZM52.6482 30.1982C51.6808 30.1982 50.8477 29.9915 50.1489 29.5781C49.4543 29.1605 48.9173 28.5746 48.5381 27.8203C48.1631 27.0618 47.9756 26.1733 47.9756 25.1548C47.9756 24.1491 48.1631 23.2628 48.5381 22.4957C48.9173 21.7287 49.4458 21.13 50.1233 20.6996C50.8051 20.2692 51.602 20.054 52.5139 20.054C53.0679 20.054 53.6048 20.1456 54.1247 20.3288C54.6446 20.5121 55.1112 20.7997 55.5246 21.1918C55.9379 21.5838 56.2639 22.093 56.5026 22.7195C56.7412 23.3416 56.8605 24.098 56.8605 24.9886V25.6662H49.0558V24.2344H54.9877C54.9877 23.7315 54.8854 23.2862 54.6808 22.8984C54.4763 22.5064 54.1887 22.1974 53.8179 21.9716C53.4514 21.7457 53.021 21.6328 52.5267 21.6328C51.9898 21.6328 51.521 21.7649 51.1205 22.0291C50.7242 22.2891 50.4173 22.63 50.2 23.0518C49.9869 23.4695 49.8804 23.9233 49.8804 24.4134V25.532C49.8804 26.1882 49.9955 26.7464 50.2256 27.2067C50.46 27.6669 50.786 28.0185 51.2036 28.2614C51.6212 28.5 52.1091 28.6193 52.6673 28.6193C53.0296 28.6193 53.3598 28.5682 53.6581 28.4659C53.9564 28.3594 54.2142 28.2017 54.4316 27.9929C54.6489 27.7841 54.8151 27.5263 54.9301 27.2195L56.7391 27.5455C56.5942 28.0781 56.3343 28.5447 55.9593 28.9453C55.5885 29.3416 55.1219 29.6506 54.5594 29.8722C54.0012 30.0895 53.3641 30.1982 52.6482 30.1982ZM58.9811 30V20.1818H60.8284V21.7415H60.9307C61.1096 21.2131 61.425 20.7976 61.8767 20.495C62.3327 20.1882 62.8483 20.0348 63.4236 20.0348C63.5429 20.0348 63.6835 20.0391 63.8454 20.0476C64.0116 20.0561 64.1416 20.0668 64.2354 20.0795V21.9077C64.1586 21.8864 64.0223 21.8629 63.8263 21.8374C63.6302 21.8075 63.4342 21.7926 63.2382 21.7926C62.7865 21.7926 62.3838 21.8885 62.0301 22.0803C61.6807 22.2678 61.4037 22.5298 61.1991 22.8665C60.9946 23.1989 60.8923 23.5781 60.8923 24.0043V30H58.9811ZM69.7693 30.1982C68.8019 30.1982 67.9688 29.9915 67.27 29.5781C66.5754 29.1605 66.0384 28.5746 65.6592 27.8203C65.2842 27.0618 65.0967 26.1733 65.0967 25.1548C65.0967 24.1491 65.2842 23.2628 65.6592 22.4957C66.0384 21.7287 66.5669 21.13 67.2444 20.6996C67.9262 20.2692 68.7231 20.054 69.635 20.054C70.189 20.054 70.7259 20.1456 71.2458 20.3288C71.7657 20.5121 72.2323 20.7997 72.6457 21.1918C73.059 21.5838 73.385 22.093 73.6237 22.7195C73.8623 23.3416 73.9816 24.098 73.9816 24.9886V25.6662H66.1769V24.2344H72.1088C72.1088 23.7315 72.0065 23.2862 71.8019 22.8984C71.5974 22.5064 71.3097 22.1974 70.939 21.9716C70.5725 21.7457 70.1421 21.6328 69.6478 21.6328C69.1109 21.6328 68.6421 21.7649 68.2416 22.0291C67.8453 22.2891 67.5384 22.63 67.3211 23.0518C67.108 23.4695 67.0015 23.9233 67.0015 24.4134V25.532C67.0015 26.1882 67.1166 26.7464 67.3467 27.2067C67.5811 27.6669 67.907 28.0185 68.3247 28.2614C68.7423 28.5 69.2302 28.6193 69.7884 28.6193C70.1507 28.6193 70.4809 28.5682 70.7792 28.4659C71.0775 28.3594 71.3353 28.2017 71.5526 27.9929C71.77 27.7841 71.9362 27.5263 72.0512 27.2195L73.8602 27.5455C73.7153 28.0781 73.4553 28.5447 73.0803 28.9453C72.7096 29.3416 72.243 29.6506 71.6805 29.8722C71.1222 30.0895 70.4852 30.1982 69.7693 30.1982ZM78.0134 24.1705V30H76.1022V20.1818H77.9367V21.7798H78.0582C78.284 21.2599 78.6377 20.8423 79.1192 20.527C79.605 20.2116 80.2165 20.054 80.9537 20.054C81.6228 20.054 82.2087 20.1946 82.7116 20.4759C83.2144 20.7528 83.6043 21.1662 83.8813 21.7159C84.1583 22.2656 84.2968 22.9453 84.2968 23.755V30H82.3856V23.9851C82.3856 23.2734 82.2002 22.7173 81.8295 22.3168C81.4587 21.9119 80.9495 21.7095 80.3018 21.7095C79.8586 21.7095 79.4644 21.8054 79.1192 21.9972C78.7783 22.1889 78.5077 22.4702 78.3074 22.8409C78.1114 23.2074 78.0134 23.6506 78.0134 24.1705ZM90.9957 30.1982C90.0454 30.1982 89.2272 29.983 88.5411 29.5526C87.8593 29.1179 87.3351 28.5192 86.9687 27.7564C86.6022 26.9936 86.4189 26.12 86.4189 25.1357C86.4189 24.1385 86.6064 23.2585 86.9814 22.4957C87.3564 21.7287 87.8849 21.13 88.5667 20.6996C89.2485 20.2692 90.0518 20.054 90.9765 20.054C91.7222 20.054 92.387 20.1925 92.9708 20.4695C93.5546 20.7422 94.0255 21.1257 94.3834 21.62C94.7456 22.1143 94.9608 22.6918 95.029 23.3523H93.1689C93.0667 22.892 92.8323 22.4957 92.4658 22.1634C92.1036 21.831 91.6178 21.6648 91.0084 21.6648C90.4758 21.6648 90.0091 21.8054 89.6086 22.0866C89.2123 22.3636 88.9033 22.7599 88.6817 23.2756C88.4601 23.7869 88.3493 24.392 88.3493 25.0909C88.3493 25.8068 88.458 26.4247 88.6753 26.9446C88.8927 27.4645 89.1995 27.8672 89.5958 28.1527C89.9964 28.4382 90.4672 28.581 91.0084 28.581C91.3706 28.581 91.6988 28.5149 91.9928 28.3828C92.2911 28.2464 92.5404 28.0526 92.7407 27.8011C92.9452 27.5497 93.088 27.2472 93.1689 26.8935H95.029C94.9608 27.5284 94.7542 28.0952 94.409 28.5938C94.0638 29.0923 93.6015 29.4844 93.0219 29.7699C92.4466 30.0554 91.7712 30.1982 90.9957 30.1982ZM97.0729 30V20.1818H98.9841V30H97.0729ZM98.0381 18.6669C97.7057 18.6669 97.4202 18.5561 97.1816 18.3345C96.9472 18.1087 96.83 17.8402 96.83 17.5291C96.83 17.2138 96.9472 16.9453 97.1816 16.7237C97.4202 16.4979 97.7057 16.3849 98.0381 16.3849C98.3705 16.3849 98.6539 16.4979 98.8882 16.7237C99.1269 16.9453 99.2462 17.2138 99.2462 17.5291C99.2462 17.8402 99.1269 18.1087 98.8882 18.3345C98.6539 18.5561 98.3705 18.6669 98.0381 18.6669ZM104.413 30.2173C103.79 30.2173 103.228 30.1023 102.725 29.8722C102.222 29.6378 101.824 29.299 101.53 28.8558C101.24 28.4126 101.095 27.8693 101.095 27.2259C101.095 26.6719 101.202 26.2159 101.415 25.858C101.628 25.5 101.915 25.2166 102.278 25.0078C102.64 24.799 103.045 24.6413 103.492 24.5348C103.94 24.4283 104.396 24.3473 104.86 24.2919C105.448 24.2237 105.925 24.1683 106.292 24.1257C106.658 24.0788 106.925 24.0043 107.091 23.902C107.257 23.7997 107.34 23.6335 107.34 23.4034V23.3587C107.34 22.8004 107.182 22.3679 106.867 22.0611C106.556 21.7543 106.092 21.6009 105.474 21.6009C104.83 21.6009 104.323 21.7436 103.952 22.0291C103.586 22.3104 103.332 22.6236 103.192 22.9688L101.396 22.5597C101.609 21.9631 101.92 21.4815 102.329 21.1151C102.742 20.7443 103.217 20.4759 103.754 20.3097C104.291 20.1392 104.856 20.054 105.448 20.054C105.84 20.054 106.256 20.1009 106.695 20.1946C107.138 20.2841 107.551 20.4503 107.935 20.6932C108.322 20.9361 108.64 21.2834 108.887 21.7351C109.134 22.1825 109.258 22.7642 109.258 23.4801V30H107.391V28.6577H107.315C107.191 28.9048 107.006 29.1477 106.758 29.3864C106.511 29.625 106.194 29.8232 105.806 29.9808C105.418 30.1385 104.954 30.2173 104.413 30.2173ZM104.828 28.6832C105.356 28.6832 105.808 28.5788 106.183 28.37C106.562 28.1612 106.85 27.8885 107.046 27.5518C107.246 27.2109 107.347 26.8466 107.347 26.4588V25.1932C107.278 25.2614 107.146 25.3253 106.95 25.3849C106.758 25.4403 106.539 25.4893 106.292 25.532C106.045 25.5703 105.804 25.6065 105.57 25.6406C105.335 25.6705 105.139 25.696 104.981 25.7173C104.611 25.7642 104.272 25.843 103.965 25.9538C103.663 26.0646 103.42 26.2244 103.236 26.4332C103.057 26.6378 102.968 26.9105 102.968 27.2514C102.968 27.7244 103.143 28.0824 103.492 28.3253C103.842 28.5639 104.287 28.6832 104.828 28.6832ZM119.161 22.5788L117.428 22.8857C117.356 22.6641 117.241 22.4531 117.083 22.2528C116.93 22.0526 116.721 21.8885 116.457 21.7607C116.193 21.6328 115.862 21.5689 115.466 21.5689C114.925 21.5689 114.473 21.6903 114.111 21.9332C113.749 22.1719 113.568 22.4808 113.568 22.8601C113.568 23.1882 113.689 23.4524 113.932 23.6527C114.175 23.853 114.567 24.017 115.108 24.1449L116.668 24.5028C117.571 24.7116 118.244 25.0334 118.688 25.468C119.131 25.9027 119.352 26.4673 119.352 27.1619C119.352 27.75 119.182 28.2741 118.841 28.7344C118.504 29.1903 118.033 29.5483 117.428 29.8082C116.828 30.0682 116.131 30.1982 115.338 30.1982C114.239 30.1982 113.342 29.9638 112.647 29.495C111.953 29.022 111.526 28.3509 111.369 27.4815L113.216 27.2003C113.331 27.6818 113.568 28.0462 113.926 28.2933C114.283 28.5362 114.75 28.6577 115.325 28.6577C115.952 28.6577 116.453 28.5277 116.828 28.2678C117.203 28.0036 117.39 27.6818 117.39 27.3026C117.39 26.9957 117.275 26.7379 117.045 26.5291C116.819 26.3203 116.472 26.1626 116.003 26.0561L114.341 25.6918C113.425 25.483 112.747 25.1506 112.308 24.6946C111.874 24.2386 111.656 23.6612 111.656 22.9624C111.656 22.3828 111.818 21.8757 112.142 21.4411C112.466 21.0064 112.913 20.6676 113.484 20.4247C114.055 20.1776 114.71 20.054 115.447 20.054C116.508 20.054 117.343 20.2841 117.953 20.7443C118.562 21.2003 118.965 21.8118 119.161 22.5788Z" fill="black"/>
</g>
<rect x="0.5" y="0.5" width="138" height="181" stroke="black" stroke-linejoin="round"/>
<defs>
<filter id="filter0_d_137_461" x="6" y="43" width="26" height="26" filterUnits="userSpaceOnUse" color-interpolation-filters="sRGB">
<feFlood flood-opacity="0" result="BackgroundImageFix"/>
<feColorMatrix in="SourceAlpha" type="matrix" values="0 0 0 0 0 0 0 0 0 0 0 0 0 0 0 0 0 0 127 0" result="hardAlpha"/>
<feOffset dy="1"/>
<feGaussianBlur stdDeviation="3"/>
<feColorMatrix type="matrix" values="0 0 0 0 0 0 0 0 0 0 0 0 0 0 0 0 0 0 0.15 0"/>
<feBlend mode="normal" in2="BackgroundImageFix" result="effect1_dropShadow_137_461"/>
<feBlend mode="normal" in="SourceGraphic" in2="effect1_dropShadow_137_461" result="shape"/>
</filter>
<filter id="filter1_b_137_461" x="1.5" y="127" width="36" height="36" filterUnits="userSpaceOnUse" color-interpolation-filters="sRGB">
<feFlood flood-opacity="0" result="BackgroundImageFix"/>
<feGaussianBlur in="BackgroundImageFix" stdDeviation="2"/>
<feComposite in2="SourceAlpha" operator="in" result="effect1_backgroundBlur_137_461"/>
<feBlend mode="normal" in="SourceGraphic" in2="effect1_backgroundBlur_137_461" result="shape"/>
</filter>
<clipPath id="clip0_137_461">
<rect x="1" y="1" width="137" height="180" fill="white"/>
</clipPath>
</defs>
</svg>
